<svg width="198" height="101" viewBox="0 0 198 101" fill="none" xmlns="http://www.w3.org/2000/svg">
<path d="M140.061 87.8732H152.332C152.723 87.8732 153.098 87.7354 153.437 87.541C153.776 87.3466 154.126 87.1026 154.322 86.7659C154.517 86.4292 154.653 86.0472 154.653 85.6586C154.653 85.2698 154.518 84.888 154.322 84.5515L146.031 70.2682C145.835 69.9316 145.596 69.6874 145.257 69.4931C144.918 69.2988 144.432 69.1609 144.041 69.1609C143.65 69.1609 143.275 69.2988 142.936 69.4931C142.597 69.6874 142.357 69.9316 142.162 70.2682L140.061 73.9221L135.861 66.8355C135.665 66.4989 135.426 66.1443 135.087 65.95C134.748 65.7556 134.373 65.7285 133.982 65.7285C133.59 65.7285 133.215 65.7556 132.876 65.95C132.537 66.1443 132.188 66.4989 131.992 66.8355L121.711 84.5515C121.515 84.888 121.49 85.2698 121.49 85.6586C121.49 86.0472 121.516 86.4292 121.711 86.7659C121.907 87.1025 122.257 87.3466 122.596 87.541C122.935 87.7354 123.31 87.8732 123.701 87.8732H131.439C134.505 87.8732 136.737 86.4955 138.293 83.8871L142.051 77.3544L144.041 73.9221L150.121 84.33H142.051L140.061 87.8732ZM131.329 84.33H125.912L133.982 70.3789L138.072 77.3544L135.362 82.0851C134.329 83.7775 133.151 84.33 131.329 84.33Z" fill="#00DC82"/>
<path d="M190.567 63.6875C190.841 63.6875 191.308 63.7091 191.969 63.7522C192.645 63.781 193.357 63.8529 194.105 63.9679C194.867 64.0686 195.514 64.2339 196.046 64.464C196.592 64.6797 196.866 64.9745 196.866 65.3483C196.866 65.5353 196.808 65.9307 196.693 66.5346C196.578 67.1386 196.434 67.8144 196.262 68.5621C196.103 69.3099 195.952 70.0073 195.809 70.6544C195.665 71.287 195.557 71.7328 195.485 71.9916C195.428 72.2217 195.356 72.423 195.269 72.5956C195.183 72.7538 194.996 72.8328 194.709 72.8328C194.608 72.8328 194.514 72.8185 194.428 72.7897C194.342 72.7609 194.256 72.7394 194.169 72.725C193.537 72.5668 192.911 72.4877 192.293 72.4877C192.005 72.4877 191.682 72.5309 191.322 72.6172C190.977 72.7034 190.805 72.9479 190.805 73.3505C190.805 73.7819 190.948 74.2277 191.236 74.6878C191.538 75.1479 191.89 75.5793 192.293 75.9819C192.695 76.3846 193.055 76.7153 193.371 76.9741C194.392 77.765 195.219 78.4624 195.852 79.0663C196.499 79.6703 196.973 80.3749 197.275 81.1801C197.592 81.971 197.75 83.0566 197.75 84.4371V84.9332C197.75 86.7306 197.434 88.2117 196.801 89.3764C196.182 90.5268 195.327 91.4255 194.234 92.0726C193.141 92.7196 191.897 93.1726 190.503 93.4314C189.108 93.6903 187.641 93.8197 186.102 93.8197C185.225 93.8197 184.19 93.7765 182.997 93.6903C181.817 93.6184 180.825 93.4171 180.02 93.0863C179.833 93.0144 179.682 92.9282 179.567 92.8275C179.466 92.7268 179.416 92.5615 179.416 92.3314C179.416 92.2595 179.43 92.166 179.459 92.051C179.603 91.2889 179.747 90.534 179.891 89.7862C180.034 89.0385 180.171 88.2908 180.3 87.543C180.358 87.1836 180.401 86.8241 180.43 86.4646C180.473 86.0907 180.545 85.7312 180.645 85.3861C180.689 85.2423 180.761 85.0698 180.861 84.8685C180.976 84.6671 181.127 84.5665 181.314 84.5665C181.429 84.5665 181.537 84.5809 181.638 84.6096C181.753 84.624 181.861 84.6456 181.961 84.6743C182.594 84.8181 183.212 84.926 183.816 84.9979C184.42 85.0698 185.046 85.1057 185.693 85.1057C186.023 85.1057 186.34 85.0626 186.642 84.9763C186.944 84.89 187.095 84.6312 187.095 84.1998C187.095 83.7684 186.987 83.3658 186.771 82.9919C186.584 82.6612 186.361 82.3449 186.102 82.0429C185.858 81.7265 185.599 81.4318 185.326 81.1586C184.981 80.7991 184.614 80.4683 184.226 80.1664C183.838 79.8644 183.449 79.5552 183.061 79.2389C181.839 78.2899 181.062 77.3336 180.732 76.3702C180.401 75.3924 180.221 74.1414 180.193 72.6172V72.423C180.193 70.2373 180.645 68.5118 181.551 67.2464C182.457 65.9666 183.694 65.0535 185.261 64.5071C186.829 63.9607 188.597 63.6875 190.567 63.6875Z" fill="url(#paint0_linear_2032_2135)"/>
<path d="M175.684 77.2333C175.684 78.585 175.699 79.9367 175.728 81.2884C175.756 82.64 175.771 83.9917 175.771 85.3434C175.771 88.8088 174.951 91.7135 173.312 94.0573C171.673 96.4156 169.156 98.062 165.763 98.9967C165.029 99.198 164.238 99.3777 163.39 99.5359C162.556 99.6941 161.751 99.7732 160.974 99.7732C160.644 99.7732 160.406 99.7085 160.262 99.579C160.133 99.464 160.068 99.2339 160.068 98.8888C160.068 97.9973 160.104 97.113 160.176 96.2358C160.248 95.3587 160.298 94.4815 160.327 93.6044C160.356 93.1874 160.356 92.7488 160.327 92.2886C160.313 91.8285 160.342 91.3971 160.413 90.9945C160.485 90.6638 160.564 90.4553 160.651 90.369C160.751 90.2683 160.96 90.1821 161.276 90.1102C161.535 90.0526 161.794 90.0167 162.053 90.0023C162.312 89.9736 162.57 89.9304 162.829 89.8729C164.08 89.5709 164.921 89.0173 165.353 88.2121C165.784 87.4068 166 86.4074 166 85.2139C166 83.8048 166.007 82.3956 166.021 80.9864C166.036 79.5772 166.043 78.168 166.043 76.7588C166.043 74.7457 166.029 72.7398 166 70.741C165.971 68.7279 165.957 66.722 165.957 64.7232C165.957 64.1336 166.244 63.8389 166.82 63.8389H174.994C175.569 63.8389 175.857 64.1049 175.857 64.6369C175.857 66.7363 175.828 68.8357 175.771 70.9351C175.713 73.0345 175.684 75.1339 175.684 77.2333Z" fill="url(#paint1_linear_2032_2135)"/>
<path d="M93.2041 64.7448C93.2041 64.1408 93.4917 63.8389 94.0669 63.8389H114.04C114.615 63.8389 114.903 64.1408 114.903 64.7448C114.903 65.4494 114.881 66.1612 114.838 66.8801C114.809 67.5847 114.78 68.2965 114.752 69.0155C114.737 69.5907 114.723 70.1658 114.709 70.741C114.709 71.3018 114.694 71.8698 114.665 72.445C114.651 73.0345 114.356 73.3293 113.781 73.3293H108.863C108.676 73.3293 108.583 73.4228 108.583 73.6097V76.9745C108.583 79.5772 108.612 82.1799 108.669 84.7826C108.727 87.3852 108.755 89.9879 108.755 92.5906C108.755 93.1802 108.461 93.475 107.871 93.475H99.718C99.1572 93.475 98.8768 93.1802 98.8768 92.5906C98.8768 90.218 98.8984 87.8454 98.9415 85.4728C98.9846 83.1002 99.0062 80.7276 99.0062 78.3549V73.6097C99.0062 73.4228 98.9199 73.3293 98.7474 73.3293H94.3257C93.7505 73.3293 93.4557 73.0345 93.4414 72.445C93.4126 71.8698 93.3982 71.3018 93.3982 70.741C93.3982 70.1658 93.3838 69.5907 93.3551 69.0155C93.3407 68.2965 93.312 67.5847 93.2688 66.8801C93.2257 66.1612 93.2041 65.4494 93.2041 64.7448Z" fill="url(#paint2_linear_2032_2135)"/>
<path d="M62.4033 92.8926C62.4033 92.7488 62.4465 92.6122 62.5327 92.4828C62.6046 92.339 62.6693 92.2167 62.7269 92.1161C62.885 91.8573 63.1942 91.3612 63.6543 90.6278C64.1289 89.8801 64.6825 89.0029 65.3152 87.9964C65.9622 86.9754 66.6165 85.9257 67.278 84.8473C67.9538 83.7544 68.5793 82.7263 69.1545 81.7629C69.744 80.7994 70.2186 79.9942 70.578 79.3471C70.9375 78.7 71.1173 78.319 71.1173 78.204C71.1173 78.1033 70.9447 77.7582 70.5996 77.1686C70.2545 76.5647 69.8087 75.8098 69.2623 74.9039C68.7159 73.998 68.1192 73.0417 67.4721 72.0352C66.8394 71.0142 66.2211 70.0292 65.6171 69.0802C65.0132 68.1168 64.4883 67.2899 64.0426 66.5997C63.6112 65.8951 63.3164 65.4278 63.1582 65.1977C63.0863 65.0827 63.0144 64.9605 62.9425 64.8311C62.8707 64.7016 62.8347 64.565 62.8347 64.4212C62.8347 64.148 62.9569 63.9827 63.2014 63.9251C63.4458 63.8676 63.6687 63.8389 63.87 63.8389H74.4174C74.7193 63.8389 74.971 63.9755 75.1723 64.2487C75.3017 64.4212 75.5318 64.7951 75.8625 65.3703C76.2076 65.9455 76.5815 66.571 76.9841 67.2468C77.3867 67.9226 77.7534 68.505 78.0841 68.9939C78.4149 69.4828 78.6234 69.7273 78.7096 69.7273C78.7528 69.7273 78.7743 69.7201 78.7743 69.7057C79.0907 69.0874 79.3639 68.4331 79.594 67.7429C79.8384 67.0527 80.0757 66.384 80.3058 65.737C80.392 65.5213 80.4711 65.2984 80.543 65.0683C80.6149 64.8239 80.7012 64.601 80.8018 64.3997C81.0032 64.0258 81.2764 63.8389 81.6215 63.8389H91.4786C91.6799 63.8389 91.9028 63.8676 92.1473 63.9251C92.3917 63.9827 92.5139 64.148 92.5139 64.4212C92.5139 64.565 92.478 64.7016 92.4061 64.8311C92.3342 64.9605 92.2623 65.0827 92.1904 65.1977C92.0466 65.4422 91.7446 65.9311 91.2845 66.6644C90.8243 67.3834 90.2779 68.239 89.6452 69.2312C89.0269 70.2234 88.387 71.2515 87.7256 72.3156C87.0641 73.3796 86.4458 74.3862 85.8706 75.3353C85.3098 76.2699 84.8497 77.0536 84.4902 77.6863C84.1307 78.3046 83.951 78.6641 83.951 78.7648C83.951 78.8654 84.1307 79.2249 84.4902 79.8432C84.8497 80.4615 85.3098 81.238 85.8706 82.1727C86.4458 83.093 87.0641 84.078 87.7256 85.1277C88.4014 86.163 89.0485 87.1696 89.6668 88.1474C90.2995 89.1252 90.8459 89.9736 91.306 90.6925C91.7662 91.3971 92.0754 91.8716 92.2335 92.1161C92.3054 92.2311 92.3773 92.3534 92.4492 92.4828C92.5211 92.6122 92.5571 92.756 92.5571 92.9142C92.5571 93.173 92.4348 93.3312 92.1904 93.3887C91.9603 93.4462 91.7446 93.475 91.5433 93.475H80.8018C80.5143 93.475 80.2626 93.3383 80.0469 93.0651C79.9175 92.8926 79.6803 92.5187 79.3351 91.9435C79.0044 91.354 78.6306 90.7141 78.2135 90.0239C77.8109 89.3337 77.4442 88.7369 77.1135 88.2336C76.7828 87.7304 76.5743 87.4787 76.488 87.4787C76.4305 87.4787 76.373 87.5578 76.3155 87.716C75.956 88.55 75.6468 89.4128 75.388 90.3043C75.1292 91.1958 74.8128 92.0586 74.4389 92.8926C74.2808 93.2808 74.0004 93.475 73.5977 93.475H63.4171C63.2158 93.475 63.0001 93.4462 62.77 93.3887C62.5255 93.3312 62.4033 93.1658 62.4033 92.8926Z" fill="url(#paint3_linear_2032_2135)"/>
<path d="M43.0333 63.8389C43.6229 63.8389 43.9177 64.1336 43.9177 64.7232C43.9177 67.5272 43.9321 70.3312 43.9608 73.1352C43.9896 75.9248 44.0039 78.7216 44.0039 81.5256C44.0039 82.7191 44.3059 83.5459 44.9099 84.0061C45.5282 84.4518 46.3981 84.6747 47.5197 84.6747C48.5407 84.6747 49.4034 84.4303 50.108 83.9414C50.8126 83.4525 51.1649 82.6472 51.1649 81.5256C51.1649 78.7216 51.1793 75.9248 51.2081 73.1352C51.2368 70.3312 51.2512 67.5272 51.2512 64.7232C51.2512 64.1336 51.546 63.8389 52.1355 63.8389H60.1161C60.6913 63.8389 60.9789 64.1408 60.9789 64.7448C60.9789 65.4925 60.9502 66.2474 60.8926 67.0095C60.8351 67.7573 60.792 68.505 60.7632 69.2527C60.7057 70.7482 60.6698 72.2509 60.6554 73.7607C60.641 75.2562 60.6338 76.7516 60.6338 78.2471V81.806C60.6338 83.5747 60.2743 85.1924 59.5553 86.6591C58.8507 88.1114 57.8801 89.3696 56.6435 90.4337C55.4212 91.4978 54.0264 92.3246 52.4591 92.9142C50.9061 93.4893 49.2884 93.7769 47.606 93.7769C45.0177 93.7769 42.7314 93.3599 40.747 92.5259C38.7626 91.6919 37.2097 90.4049 36.0881 88.665C34.9665 86.9107 34.4057 84.6531 34.4057 81.8923C34.4057 79.7929 34.4057 77.6863 34.4057 75.5725C34.4057 73.4587 34.3625 71.3521 34.2762 69.2527C34.2475 68.505 34.2043 67.7573 34.1468 67.0095C34.0893 66.2474 34.0605 65.4925 34.0605 64.7448C34.0605 64.1408 34.3481 63.8389 34.9233 63.8389H43.0333Z" fill="url(#paint4_linear_2032_2135)"/>
<path d="M29.8771 94.3589C29.8627 94.3733 29.8484 94.3805 29.834 94.3805C29.8196 94.3805 29.798 94.3733 29.7693 94.3589C29.7405 94.3446 29.719 94.3374 29.7046 94.3374C26.4548 92.6406 23.2698 90.8144 20.1494 88.8588C17.0434 86.9032 13.8943 85.0267 10.7021 83.2292C10.659 83.1861 10.6086 83.1645 10.5511 83.1645C10.5224 83.1645 10.5008 83.1717 10.4864 83.1861C10.4864 83.2005 10.472 83.2508 10.4433 83.3371C10.4145 83.4234 10.4001 83.4737 10.4001 83.4881C10.4001 84.624 10.4073 85.76 10.4217 86.896C10.4361 88.032 10.4433 89.168 10.4433 90.3039C10.4433 90.6778 10.4433 91.0589 10.4433 91.4471C10.4577 91.8354 10.4505 92.2164 10.4217 92.5903C10.3786 93.1798 10.0838 93.4746 9.53737 93.4746H1.16852C0.593338 93.4746 0.305749 93.1726 0.305749 92.5687C0.305749 91.7922 0.341697 91.0085 0.413595 90.2177C0.485492 89.4268 0.53582 88.6431 0.564579 87.8666C0.636477 86.2417 0.686805 84.6097 0.715564 82.9704C0.758702 81.3311 0.780271 79.6991 0.780271 78.0742C0.780271 76.3774 0.758702 74.6878 0.715564 73.0054C0.686805 71.3087 0.636477 69.6191 0.564579 67.9367C0.521441 67.1314 0.463923 66.3262 0.392026 65.5209C0.320128 64.7013 0.28418 63.8889 0.28418 63.0836C0.28418 63.0117 0.305749 62.9686 0.348887 62.9542C0.363267 62.9542 0.377646 62.9542 0.392026 62.9542C0.406405 62.9398 0.420785 62.9326 0.435164 62.9326C0.478302 62.9326 0.528631 62.947 0.586148 62.9758C2.78621 64.1261 4.94313 65.3484 7.05691 66.6425C9.18507 67.9367 11.306 69.2452 13.4198 70.5681C14.4264 71.1864 15.4329 71.8119 16.4395 72.4446C17.4461 73.063 18.467 73.6597 19.5023 74.2349C19.5167 74.2349 19.5383 74.2421 19.567 74.2564C19.6102 74.2708 19.6389 74.278 19.6533 74.278C19.7252 74.278 19.7612 74.2421 19.7612 74.1702C19.7755 74.0839 19.7827 74.0192 19.7827 73.976V67.8073C19.7827 67.304 19.7755 66.7935 19.7612 66.2758C19.7468 65.7438 19.754 65.2261 19.7827 64.7229C19.8259 64.1333 20.1207 63.8385 20.6671 63.8385H28.8849C29.4601 63.8385 29.7477 64.1405 29.7477 64.7444C29.7477 65.4778 29.719 66.2111 29.6614 66.9445C29.6039 67.6778 29.5608 68.4112 29.532 69.1445C29.4745 70.6688 29.4242 72.193 29.381 73.7172C29.3523 75.2414 29.3379 76.7729 29.3379 78.3115C29.3379 80.1089 29.3595 81.9063 29.4026 83.7038C29.4457 85.5012 29.5176 87.2986 29.6183 89.0961C29.6614 89.9588 29.7118 90.8216 29.7693 91.6844C29.8412 92.5328 29.8915 93.3883 29.9203 94.2511L29.8771 94.3589Z" fill="url(#paint5_linear_2032_2135)"/>
<path d="M190.567 63.6878C188.87 63.7067 187.167 63.9272 185.561 64.4635C185.467 64.4949 185.373 64.5275 185.28 64.5611C183.815 65.0771 182.506 66.0287 181.633 67.3053C180.603 68.7791 180.327 70.6409 180.338 72.4232C180.339 72.4879 180.339 72.5526 180.34 72.6145C180.377 73.871 180.498 75.14 180.897 76.3134C181.304 77.4431 182.219 78.3353 183.183 79.0814C183.184 79.082 183.186 79.0835 183.187 79.0841C183.572 79.3944 183.961 79.7006 184.353 80.0021C184.753 80.3095 185.131 80.6468 185.482 81.0089L185.69 81.2211C185.894 81.4374 186.088 81.6638 186.271 81.8979L186.368 82.0129C186.592 82.2836 186.795 82.5729 186.969 82.8779C187.202 83.2732 187.329 83.7399 187.329 84.2001C187.328 84.3823 187.311 84.5787 187.217 84.7781C187.128 84.9793 186.916 85.153 186.707 85.2065C186.377 85.3026 186.033 85.348 185.692 85.3491C185.057 85.3517 184.42 85.3202 183.786 85.2472C183.153 85.1741 182.524 85.0644 181.904 84.9255C181.901 84.9249 181.893 84.9232 181.89 84.9224C181.799 84.8967 181.703 84.8785 181.605 84.8667C181.597 84.8656 181.574 84.861 181.566 84.8588C181.487 84.8365 181.402 84.826 181.314 84.8264C181.226 84.8277 181.165 84.8692 181.091 84.9927C181.013 85.1502 180.942 85.3109 180.897 85.4602C180.8 85.7977 180.733 86.1446 180.694 86.4954L180.671 86.7622C180.644 87.0379 180.609 87.3132 180.565 87.5892C180.437 88.3401 180.302 89.0899 180.159 89.8383C180.016 90.593 179.873 91.3478 179.732 92.1029C179.732 92.1061 179.729 92.1155 179.729 92.1187C179.709 92.1987 179.694 92.2828 179.694 92.3317C179.692 92.4665 179.726 92.5862 179.757 92.6225C179.852 92.7036 179.98 92.7718 180.12 92.8252C180.121 92.8257 180.125 92.8271 180.126 92.8276C181.026 93.1932 182.02 93.3465 183.016 93.4085C183.828 93.4665 184.639 93.5111 185.449 93.529C185.667 93.5337 185.885 93.5364 186.102 93.5365C187.561 93.5368 189.02 93.42 190.451 93.156C191.732 92.9206 192.979 92.495 194.094 91.8366C195.139 91.2271 195.993 90.3213 196.567 89.25C197.271 87.9577 197.492 86.4319 197.499 84.9334C197.5 84.7681 197.5 84.6028 197.501 84.4375C197.5 83.3544 197.432 82.2474 197.057 81.2673C197.057 81.2663 197.056 81.2635 197.056 81.2626C196.773 80.4906 196.303 79.794 195.698 79.2268C194.928 78.4864 194.093 77.8013 193.246 77.1353C193.245 77.1346 193.243 77.1324 193.242 77.1317C192.857 76.8125 192.501 76.4699 192.155 76.1198C191.754 75.7141 191.392 75.2684 191.082 74.7889C191.081 74.7883 191.08 74.7861 191.08 74.7854C190.82 74.3649 190.626 73.8718 190.63 73.3506C190.631 73.1685 190.662 72.9667 190.78 72.7879C190.896 72.6073 191.097 72.4975 191.283 72.4548C191.61 72.3792 191.947 72.3258 192.292 72.3276C192.938 72.332 193.582 72.4228 194.204 72.5837L194.193 72.5813C194.288 72.5979 194.382 72.6226 194.473 72.6536C194.546 72.6788 194.626 72.6908 194.708 72.6915C194.9 72.6949 195.086 72.6499 195.147 72.5327C195.238 72.3543 195.305 72.1596 195.358 71.9566C195.48 71.521 195.585 71.073 195.691 70.6285C195.851 69.9338 196.008 69.2381 196.162 68.5398C196.323 67.8686 196.476 67.1954 196.612 66.5194C196.686 66.1293 196.774 65.7314 196.794 65.3486C196.808 64.9415 196.403 64.669 196.022 64.518C195.882 64.4557 195.739 64.4001 195.593 64.3501C195.11 64.1846 194.607 64.0788 194.098 64.0059C193.393 63.89 192.682 63.8063 191.968 63.768C191.501 63.7337 191.034 63.697 190.567 63.6878C191.035 63.6865 191.502 63.713 191.969 63.7372C192.685 63.76 193.4 63.8289 194.109 63.9304C194.622 63.9931 195.132 64.0891 195.627 64.2477C195.776 64.2957 195.924 64.3495 196.067 64.4097C196.455 64.5565 196.935 64.8405 196.936 65.3486C196.921 65.7659 196.841 66.1534 196.774 66.5502C196.65 67.2315 196.509 67.9094 196.36 68.5832C196.219 69.2829 196.074 69.9822 195.925 70.681C195.826 71.1299 195.729 71.5773 195.612 72.0237C195.56 72.2386 195.491 72.4522 195.391 72.6568C195.391 72.6576 195.389 72.6601 195.389 72.6611C195.236 72.9361 194.928 72.9714 194.708 72.9748C194.601 72.9757 194.489 72.9616 194.382 72.9266C194.304 72.9014 194.225 72.882 194.145 72.8693C194.143 72.869 194.136 72.8675 194.134 72.867C193.53 72.7209 192.91 72.6436 192.292 72.6485C191.983 72.6513 191.669 72.7039 191.362 72.7796C191.091 72.8422 190.972 73.0554 190.978 73.3506C190.981 73.7842 191.149 74.2104 191.391 74.5906L191.389 74.587C191.691 75.0407 192.042 75.4616 192.43 75.8448C192.775 76.1848 193.129 76.516 193.5 76.8168L193.495 76.8137C194.357 77.4748 195.206 78.156 196.003 78.9047C196.657 79.5051 197.18 80.2619 197.494 81.0982L197.492 81.0934C197.917 82.1804 197.986 83.3222 197.998 84.4375C197.998 84.6028 197.999 84.7681 198 84.9334C198.002 86.4808 197.792 88.0878 197.034 89.5025C196.428 90.6515 195.5 91.6476 194.373 92.3092C193.197 93.01 191.887 93.4597 190.553 93.7076C189.085 93.9818 187.591 94.1034 186.102 94.1035C185.88 94.1035 185.658 94.1008 185.436 94.096C184.613 94.0778 183.794 94.0319 182.979 93.9727C181.947 93.9067 180.901 93.7486 179.913 93.3456L179.919 93.348C179.736 93.277 179.551 93.1848 179.382 93.0382C179.38 93.0358 179.372 93.0283 179.369 93.0256C179.149 92.7899 179.142 92.5344 179.137 92.3317C179.139 92.1907 179.163 92.0874 179.188 91.9836C179.331 91.2337 179.475 90.4841 179.621 89.7348C179.765 88.9903 179.903 88.2443 180.034 87.5007C180.091 87.1501 180.134 86.7975 180.164 86.4437C180.164 86.4418 180.164 86.436 180.164 86.4342C180.209 86.0559 180.284 85.6799 180.393 85.3108C180.456 85.106 180.539 84.9268 180.627 84.7517C180.628 84.749 180.632 84.7416 180.634 84.739C180.737 84.5356 181.01 84.2932 181.314 84.3071C181.436 84.3074 181.562 84.3222 181.686 84.3557C181.797 84.3707 181.909 84.3923 182.02 84.4237C182.623 84.5629 183.232 84.6735 183.845 84.7489C184.457 84.8241 185.074 84.8601 185.692 84.8627C185.992 84.8642 186.29 84.8269 186.576 84.7465C186.776 84.6993 186.858 84.4943 186.859 84.2001C186.863 83.8164 186.764 83.4402 186.571 83.1047C186.39 82.7801 186.175 82.4737 185.933 82.1884C185.931 82.1867 185.927 82.1816 185.926 82.1797C185.693 81.8749 185.441 81.5842 185.172 81.312C185.171 81.3112 185.17 81.3094 185.169 81.3088C184.836 80.9578 184.478 80.6305 184.097 80.3312C183.902 80.1773 183.707 80.0223 183.513 79.8661L182.938 79.3971C181.954 78.6142 180.998 77.6771 180.565 76.4268C180.163 75.1873 180.063 73.8946 180.044 72.6172C180.044 72.5526 180.045 72.4879 180.046 72.4232C180.062 70.6091 180.373 68.6978 181.468 67.1884C182.388 65.8932 183.75 64.9457 185.242 64.4536C185.337 64.4216 185.432 64.391 185.528 64.3611C187.158 63.853 188.87 63.6691 190.567 63.6878Z" fill="#00DC82"/>
<path d="M166.819 63.6348C169.544 63.6522 172.269 63.6721 174.994 63.6953C175.232 63.6985 175.502 63.7363 175.717 63.9217C175.933 64.1095 175.992 64.3979 175.988 64.6369C175.97 66.7377 175.921 68.8382 175.841 70.937C175.821 71.4701 175.802 72.0033 175.786 72.5366C175.737 74.1015 175.703 75.6672 175.684 77.2332C175.665 75.6673 175.663 74.1009 175.678 72.5346C175.683 72.0008 175.69 71.4668 175.699 70.9331C175.735 68.8343 175.743 66.7353 175.725 64.6369C175.748 64.2012 175.424 63.9568 174.994 63.9821C172.269 64.0052 169.544 64.0252 166.819 64.0426C166.377 64.032 166.154 64.2818 166.169 64.723C166.181 66.728 166.206 68.733 166.244 70.7375C166.282 72.7443 166.303 74.7515 166.309 76.7587C166.313 78.1688 166.309 79.579 166.298 80.9891C166.286 82.3973 166.281 83.8057 166.282 85.2139C166.281 86.2214 166.138 87.2639 165.674 88.2055C165.651 88.2527 165.627 88.2995 165.602 88.3458C165.046 89.3924 163.923 89.9022 162.895 90.1469C162.894 90.1471 162.891 90.1478 162.89 90.1481C162.624 90.2069 162.355 90.2518 162.083 90.2816C162.08 90.282 162.071 90.283 162.068 90.2832C161.822 90.2966 161.578 90.3306 161.338 90.3836C161.14 90.4256 160.902 90.5083 160.848 90.5665C160.844 90.5635 160.79 90.6663 160.764 90.7542C160.734 90.8458 160.708 90.9462 160.686 91.0486C160.614 91.4508 160.591 91.8647 160.603 92.2799L160.618 92.6082C160.628 92.9456 160.624 93.2843 160.6 93.623L160.573 94.2749C160.541 94.9365 160.497 95.5975 160.441 96.2574C160.367 97.1321 160.329 98.0102 160.326 98.8886C160.32 99.1038 160.371 99.3471 160.433 99.3893C160.523 99.4776 160.751 99.5221 160.974 99.5208C161.766 99.5241 162.561 99.443 163.345 99.298C164.138 99.1539 164.925 98.9836 165.701 98.7752C168.62 98.0042 171.43 96.4625 173.172 93.9596C174.946 91.4889 175.661 88.3854 175.681 85.3431C175.692 84.2062 175.694 83.0691 175.686 81.9319C175.684 81.7177 175.682 81.5031 175.68 81.289C175.666 79.9369 175.668 78.5849 175.684 77.2332C175.7 78.5849 175.73 79.9363 175.774 81.287C175.781 81.5012 175.788 81.7157 175.794 81.9299C175.826 83.0673 175.848 84.2051 175.86 85.3431C175.901 88.4078 175.237 91.5847 173.451 94.1544C171.694 96.7669 168.799 98.4007 165.823 99.2182C165.034 99.439 164.236 99.62 163.434 99.7733C162.626 99.9304 161.802 100.022 160.974 100.025C160.702 100.019 160.389 100.015 160.092 99.7694C159.792 99.4558 159.826 99.1523 159.81 98.8886C159.807 97.9965 159.839 97.1038 159.91 96.2139C159.979 95.3423 160.027 94.4691 160.053 93.5953C160.053 93.5933 160.054 93.5874 160.054 93.5854C160.082 93.1613 160.078 92.7331 160.051 92.3055C160.051 92.3037 160.05 92.299 160.05 92.2972C160.036 91.8486 160.059 91.3946 160.139 90.9455C160.139 90.9434 160.14 90.9372 160.141 90.9352C160.208 90.6957 160.199 90.4927 160.453 90.171C160.743 89.9226 160.974 89.903 161.215 89.8363C161.417 89.7911 161.622 89.7575 161.829 89.7371L162.021 89.7225C162.272 89.6944 162.521 89.6523 162.767 89.5972C163.727 89.3678 164.667 88.9068 165.102 88.0779C165.124 88.0372 165.145 87.9958 165.166 87.9542C165.575 87.1245 165.716 86.1664 165.717 85.2139C165.718 83.8038 165.727 82.3935 165.744 80.9835C165.761 79.5754 165.772 78.167 165.776 76.7587C165.782 74.7539 165.775 72.749 165.755 70.7442C165.735 68.7372 165.731 66.73 165.743 64.723C165.746 64.4645 165.792 64.1561 166.017 63.9201C166.244 63.6847 166.56 63.6332 166.819 63.6348Z" fill="#00DC82"/>
<path d="M114.039 63.6485C114.299 63.6462 114.619 63.7037 114.839 63.9429C115.056 64.1815 115.099 64.4856 115.101 64.745C115.106 65.4613 115.088 66.1778 115.049 66.893L115.049 66.8887C115.024 67.6005 114.999 68.3127 114.975 69.0213C114.963 69.5965 114.952 70.1717 114.94 70.7468L114.939 71.1704C114.936 71.5995 114.924 72.0285 114.905 72.457V72.4511C114.898 72.7147 114.846 73.0306 114.611 73.2742C114.374 73.5175 114.046 73.575 113.78 73.5757C112.141 73.5824 110.502 73.5882 108.862 73.5931C108.857 73.593 108.852 73.594 108.848 73.5942C108.848 73.5987 108.847 73.6038 108.847 73.6097C108.85 74.7312 108.853 75.8531 108.855 76.9747C108.861 79.5755 108.893 82.1763 108.951 84.7764C108.964 85.3181 108.974 85.8598 108.984 86.4016C109.02 88.4644 109.037 90.5276 109.034 92.5907C109.033 92.8606 108.983 93.1961 108.73 93.4505C108.475 93.7025 108.14 93.7517 107.87 93.752C105.153 93.7474 102.435 93.74 99.7173 93.7303C99.4545 93.7304 99.1213 93.6698 98.891 93.4154C98.6649 93.1615 98.6268 92.8501 98.6259 92.5907C98.6351 90.2165 98.6678 87.8424 98.7239 85.4691C98.78 83.0983 98.8162 80.7266 98.833 78.3549C98.8442 76.7732 98.8564 75.1914 98.8693 73.6097C98.8604 73.4834 98.8591 73.4721 98.7464 73.4619C97.2726 73.4497 95.7986 73.4368 94.3248 73.4231C94.0778 73.4216 93.7974 73.3649 93.6056 73.1647C93.4142 72.9654 93.3642 72.6918 93.3602 72.4491C93.3372 71.88 93.3281 71.3103 93.3338 70.7409C93.337 70.4131 93.3354 70.0853 93.3294 69.7574C93.3249 69.5109 93.3179 69.2643 93.3081 69.0165C93.3012 68.3047 93.2803 67.5928 93.2445 66.8816C93.2095 66.1698 93.1953 65.4572 93.2034 64.745C93.2114 65.4572 93.2412 66.1689 93.2915 66.8788C93.3427 67.5897 93.379 68.302 93.4005 69.0134C93.4154 69.2601 93.4277 69.5071 93.4373 69.7542C93.45 70.0829 93.4577 70.4119 93.461 70.7409C93.4667 71.308 93.4872 71.8752 93.5211 72.4432C93.5283 72.669 93.5827 72.8969 93.7301 73.0426C93.8757 73.1901 94.1013 73.2384 94.3248 73.2355C95.7986 73.2218 97.2726 73.2089 98.7464 73.1967C98.8357 73.1954 98.9612 73.218 99.0463 73.3165C99.1289 73.414 99.1399 73.5224 99.1416 73.6097C99.1545 75.1914 99.1663 76.7732 99.1775 78.3549C99.1943 80.7287 99.1879 83.1031 99.1578 85.477C99.1277 87.8482 99.117 90.2195 99.1262 92.5907C99.126 93.0226 99.2998 93.2269 99.7173 93.2198C102.435 93.2101 105.153 93.2027 107.87 93.1981C108.303 93.197 108.476 93.022 108.476 92.5907C108.473 90.5309 108.453 88.471 108.417 86.4115C108.408 85.8706 108.397 85.3298 108.385 84.789C108.329 82.1847 108.303 79.5796 108.309 76.9747C108.311 75.8531 108.314 74.7312 108.317 73.6097C108.318 73.503 108.335 73.3455 108.465 73.2125C108.599 73.0824 108.756 73.0666 108.862 73.0659C110.502 73.0708 112.141 73.0766 113.78 73.0833C114.211 73.0931 114.418 72.8779 114.424 72.4392C114.425 72.438 114.425 72.4341 114.425 72.4329C114.456 71.8694 114.473 71.3051 114.475 70.7409C114.475 70.7396 114.475 70.7366 114.475 70.7354C114.493 70.1603 114.51 69.5851 114.527 69.0066C114.559 68.295 114.592 67.5833 114.625 66.8717C114.625 66.8709 114.626 66.8681 114.626 66.8673C114.672 66.1608 114.698 65.453 114.702 64.745C114.72 64.2941 114.489 64.0147 114.039 64.0294C108.575 63.994 103.11 63.9483 97.6452 63.8927C96.4521 63.8806 95.259 63.8679 94.066 63.8548C93.8318 63.8513 93.5797 63.9032 93.4164 64.08C93.2523 64.2555 93.2062 64.5083 93.2034 64.745C93.2011 64.5084 93.2405 64.2534 93.4045 64.0693C93.5682 63.8837 93.8275 63.8247 94.066 63.8232C95.259 63.8101 96.4521 63.7974 97.6452 63.7852C103.11 63.7296 108.575 63.6839 114.039 63.6485Z" fill="#00DC82"/>
<path d="M91.4781 63.5547C91.7335 63.5551 91.9771 63.5936 92.2114 63.6483C92.3616 63.6816 92.546 63.7719 92.6587 63.936C92.772 64.0985 92.7962 64.2753 92.7967 64.4204C92.7975 64.5917 92.755 64.7685 92.6789 64.9195C92.6708 64.9359 92.662 64.9519 92.6532 64.9677C92.5823 65.0954 92.5081 65.2221 92.43 65.3471L92.2087 65.7137C91.9822 66.0843 91.7528 66.448 91.5223 66.8162C90.975 67.6709 90.4288 68.5263 89.8841 69.3795C89.2431 70.4067 88.6024 71.4342 87.9621 72.462C87.3379 73.464 86.7181 74.4685 86.1057 75.4757C85.638 76.2534 85.1735 77.0334 84.7235 77.8213C84.6226 77.9942 84.5236 78.1674 84.4299 78.3405C84.3833 78.4268 84.3377 78.5135 84.2967 78.5982C84.2764 78.6403 84.2568 78.6827 84.241 78.721C84.2352 78.7321 84.2299 78.7498 84.2256 78.7641C84.2298 78.7783 84.2346 78.7958 84.2402 78.8068C84.2559 78.8452 84.2753 78.8878 84.2956 78.9301C84.3362 79.0149 84.3816 79.102 84.4279 79.1885C84.521 79.3619 84.6193 79.5352 84.7195 79.7085C85.1707 80.4873 85.631 81.2634 86.0931 82.0379L87.9356 84.9892C88.5876 85.9938 89.2329 87.003 89.8686 88.0152C90.4144 88.8645 90.9591 89.7145 91.4994 90.565C91.8076 91.0407 92.1154 91.5159 92.424 91.9959C92.5011 92.1201 92.5745 92.2461 92.6445 92.3732C92.737 92.5388 92.7804 92.7321 92.7789 92.9134C92.7786 93.0502 92.7505 93.2162 92.6429 93.3571C92.5359 93.499 92.3756 93.5711 92.2431 93.6009C92.0179 93.6562 91.7836 93.6921 91.5429 93.6914C87.9624 93.6776 84.3818 93.6617 80.8013 93.6436C80.4392 93.6506 80.1092 93.4233 79.917 93.1663C79.9164 93.1656 79.9151 93.1638 79.9146 93.1631C79.6465 92.7847 79.4286 92.4066 79.199 92.0239C79.1985 92.0231 79.1971 92.0207 79.1966 92.02C78.8385 91.3737 78.4673 90.7339 78.0871 90.0964C77.7381 89.491 77.3802 88.8912 77.0012 88.3064C76.9118 88.1688 76.8208 88.0326 76.7258 87.9022C76.6785 87.8375 76.6295 87.7733 76.5796 87.7149C76.5548 87.6859 76.5289 87.6575 76.5045 87.6347C76.5021 87.6314 76.4983 87.629 76.4947 87.626C76.4922 87.6297 76.4892 87.6334 76.4875 87.6378C76.468 87.6717 76.4497 87.7144 76.4334 87.7583C76.4329 87.7598 76.4312 87.7637 76.4306 87.7651C76.0647 88.6001 75.7525 89.459 75.4926 90.3339C75.2293 91.2202 74.9056 92.0887 74.5233 92.9264C74.396 93.2949 73.9928 93.5861 73.5971 93.5586C72.1254 93.5488 70.6538 93.5384 69.1821 93.5278C67.2603 93.514 65.3385 93.4998 63.4166 93.4848C63.1973 93.483 62.9796 93.4476 62.7682 93.3931C62.5354 93.3543 62.3856 93.1171 62.4027 92.8916C62.3898 93.118 62.5413 93.3477 62.7706 93.3824C62.9822 93.4335 63.1994 93.4651 63.4166 93.4634C65.3385 93.4484 67.2603 93.4342 69.1821 93.4203C70.6538 93.4098 72.1254 93.3994 73.5971 93.3895C73.9442 93.4003 74.2366 93.1824 74.3546 92.8541C74.7235 92.0164 75.0329 91.1531 75.2824 90.273C75.5023 89.4974 75.7632 88.7327 76.0663 87.9848L76.1963 87.6718C76.2152 87.6196 76.2359 87.5676 76.2667 87.5122C76.3036 87.4641 76.3187 87.3722 76.4875 87.3498C76.6278 87.3697 76.6351 87.4146 76.6796 87.4454C76.7156 87.4785 76.746 87.5118 76.7752 87.545C76.8332 87.6113 76.8858 87.6789 76.9364 87.7465C77.0377 87.8823 77.1322 88.0203 77.2249 88.1594C77.6145 88.7457 77.9813 89.345 78.3376 89.9474C78.725 90.5808 79.1053 91.2192 79.4724 91.8655L79.8174 92.4258C79.934 92.6109 80.0527 92.792 80.1758 92.962L80.2402 93.0375C80.3961 93.2048 80.5894 93.3092 80.8013 93.3046C84.3818 93.2864 87.9624 93.2706 91.5429 93.2568C91.7386 93.2559 91.9387 93.2248 92.1395 93.1738C92.2955 93.1286 92.3273 93.0832 92.3343 92.9134C92.3339 92.7952 92.3072 92.6868 92.2529 92.5905C92.1853 92.4698 92.1149 92.3509 92.0435 92.2377C91.7346 91.7648 91.423 91.2914 91.1106 90.8164C90.5639 89.9688 90.0141 89.1232 89.462 88.2756C88.8201 87.2673 88.1704 86.2638 87.512 85.261C86.8892 84.2785 86.2681 83.2948 85.6493 82.3097C85.6488 82.3089 85.6475 82.3066 85.6469 82.3058C85.1806 81.5321 84.7161 80.757 84.2596 79.976C84.1568 79.7999 84.0556 79.6234 83.9573 79.4418C83.9083 79.351 83.8599 79.2589 83.8131 79.1624C83.7897 79.114 83.7663 79.0641 83.7439 79.0099C83.7226 78.9455 83.6952 78.9269 83.6819 78.7637C83.695 78.6006 83.7224 78.5821 83.7435 78.5175C83.7657 78.4634 83.7887 78.4135 83.8119 78.365C83.8583 78.2683 83.9066 78.1758 83.9553 78.0849C84.053 77.9029 84.1537 77.726 84.2545 77.5518C84.7043 76.758 85.1676 75.9743 85.6351 75.192C86.2466 74.1799 86.8648 73.1719 87.4879 72.1672C88.1263 71.138 88.7657 70.1094 89.4071 69.0788C89.9526 68.2223 90.4984 67.3664 91.0442 66.5131C91.3483 66.0269 91.6564 65.5381 91.9455 65.0531C91.9463 65.0517 91.9486 65.0481 91.9495 65.0467C92.0217 64.9312 92.0909 64.8129 92.1577 64.6927C92.1624 64.6842 92.1669 64.6755 92.1711 64.667C92.2106 64.5877 92.23 64.507 92.23 64.4204C92.2306 64.3414 92.213 64.2854 92.1952 64.262C92.1788 64.2388 92.1502 64.2165 92.0818 64.2C91.8779 64.152 91.6733 64.1215 91.4781 64.1213C88.1924 64.1207 84.9065 64.1181 81.6208 64.1138C81.3761 64.1094 81.1876 64.2612 81.0447 64.5256C80.947 64.7209 80.8685 64.9296 80.8049 65.1447C80.8046 65.1457 80.8036 65.1482 80.8033 65.1491C80.7304 65.3811 80.6488 65.6107 80.5579 65.837L80.5619 65.8272C80.3232 66.4951 80.0847 67.1634 79.8466 67.8317L79.7597 68.083C79.5481 68.6787 79.299 69.2619 79.0093 69.8252C78.9987 69.8479 78.9865 69.8688 78.9726 69.8841C78.9358 69.9266 78.9036 69.9437 78.8805 69.9556C78.8344 69.9774 78.8112 69.9804 78.7908 69.9844C78.7521 69.9907 78.7302 69.9906 78.709 69.9908C78.5756 69.9826 78.5456 69.9451 78.5079 69.9252C78.4741 69.9026 78.4509 69.8828 78.4293 69.8635C78.3874 69.8258 78.3544 69.7903 78.3234 69.7557C78.2618 69.6864 78.2081 69.618 78.1566 69.5502C78.0537 69.414 77.959 69.2776 77.8662 69.14C77.4779 68.5625 77.115 67.9726 76.7622 67.3777C76.3908 66.7509 76.0189 66.1246 75.6459 65.4992C75.6454 65.4984 75.6441 65.4962 75.6435 65.4952C75.4267 65.1198 75.2055 64.7254 74.9718 64.3952C74.8253 64.1934 74.6416 64.0828 74.4166 64.0838C70.9009 64.0736 67.3852 64.0614 63.8695 64.047C63.6663 64.0462 63.4562 64.0769 63.2479 64.1249C63.089 64.1657 63.044 64.2335 63.0373 64.4204C63.0366 64.5295 63.0638 64.6338 63.1179 64.7322C63.1848 64.8538 63.2544 64.9737 63.3269 65.091L63.5518 65.4364C63.7767 65.7893 63.9896 66.1432 64.2061 66.4985L64.2034 66.4945C64.7315 67.3209 65.251 68.1518 65.7669 68.9835C66.3869 69.9684 67.0004 70.9575 67.6067 71.9475C68.2119 72.9 68.8061 73.8596 69.3837 74.8293C69.8323 75.5833 70.2779 76.3396 70.709 77.1033C70.8979 77.4578 71.1114 77.7233 71.2369 78.203C71.1087 78.7118 70.8775 79.0143 70.6758 79.4007C70.2146 80.2168 69.7276 81.0165 69.2351 81.8107C68.6112 82.8403 67.9773 83.864 67.3372 84.8833C66.9263 85.543 66.5123 86.2008 66.0953 86.8566C65.8485 87.2448 65.6006 87.6322 65.3516 88.0187C64.7931 88.893 64.2335 89.7663 63.6711 90.6378C63.3567 91.1308 63.0417 91.6236 62.7322 92.1187C62.6629 92.2382 62.5982 92.3604 62.5351 92.4839C62.4532 92.6031 62.403 92.7458 62.4027 92.8916C62.4006 92.7459 62.4488 92.6014 62.5291 92.4803C62.5901 92.3561 62.6526 92.2326 62.7204 92.1116C63.0222 91.6114 63.3295 91.114 63.6363 90.616C64.1853 89.736 64.732 88.8546 65.2777 87.9721C65.521 87.582 65.7629 87.1908 66.004 86.7993C66.4114 86.1379 66.8158 85.4746 67.2175 84.8094C67.8432 83.7816 68.4627 82.7502 69.0731 81.7127C69.5549 80.9126 70.0308 80.1083 70.479 79.2916C70.6701 78.933 70.9144 78.5127 70.9966 78.203C70.9129 77.9373 70.6751 77.552 70.4885 77.231C70.0496 76.4745 69.5963 75.7244 69.1399 74.9767C68.5531 74.0162 67.9501 73.0652 67.3349 72.119C66.7173 71.1341 66.0948 70.1525 65.4654 69.174C64.9414 68.3472 64.4146 67.5224 63.8805 66.7032C63.88 66.7024 63.8787 66.7001 63.8782 66.6992C63.5873 66.2314 63.2963 65.7565 62.993 65.3099C62.992 65.3084 62.9892 65.3043 62.9883 65.3028C62.9106 65.1796 62.8367 65.0545 62.7658 64.9282C62.6803 64.7776 62.6303 64.5971 62.6307 64.4204C62.6305 64.2846 62.6532 64.1245 62.7528 63.981C62.8517 63.8363 63.0146 63.7553 63.1535 63.7238C63.3835 63.669 63.6218 63.6303 63.8695 63.629C67.3852 63.6146 70.9009 63.6025 74.4166 63.5922C74.7957 63.578 75.1764 63.8169 75.3705 64.0988C75.6471 64.4861 75.8553 64.8602 76.0805 65.2439L76.0782 65.2396C76.4549 65.8637 76.8301 66.4887 77.2047 67.1141C77.557 67.7016 77.9186 68.2829 78.3009 68.846C78.3908 68.9782 78.4818 69.1085 78.5755 69.2313C78.6032 69.2675 78.6319 69.3031 78.66 69.3372C78.9225 68.7934 79.1483 68.2314 79.3385 67.6571C79.3388 67.6561 79.3397 67.6533 79.3401 67.6523C79.5757 66.983 79.8119 66.3139 80.0486 65.645C80.0493 65.643 80.0517 65.6372 80.0525 65.6351C80.1373 65.4223 80.2131 65.2054 80.2813 64.9859L80.2801 64.9902C80.3511 64.7478 80.4406 64.5079 80.5559 64.2762C80.5567 64.2748 80.5587 64.2702 80.5595 64.2687C80.7271 63.9198 81.1466 63.5414 81.6208 63.5622C84.9065 63.5579 88.1924 63.5553 91.4781 63.5547ZM78.5316 69.6043C78.5176 69.6371 78.5079 69.6738 78.5091 69.7047C78.5091 69.6827 78.521 69.6352 78.5316 69.6043Z" fill="#00DC82"/>
<path d="M60.1162 63.5674C60.3866 63.5662 60.7315 63.6267 60.9725 63.8902C61.209 64.1533 61.25 64.4763 61.2522 64.7441C61.2534 65.5068 61.2245 66.2694 61.1681 67.03C61.1119 67.7734 61.0699 68.5177 61.042 69.2626C60.9859 70.7619 60.9512 72.2621 60.9377 73.7625C60.9244 75.224 60.9175 76.6858 60.9172 78.1474C60.9172 78.1803 60.9172 78.2132 60.9172 78.2462C60.9172 79.4325 60.9169 80.6189 60.9164 81.8052C60.9201 83.5114 60.569 85.2394 59.8064 86.78C59.0934 88.2546 58.0652 89.578 56.8227 90.639C55.5677 91.7314 54.1065 92.5818 52.5508 93.1608C50.972 93.7444 49.2859 94.035 47.606 94.0281C45.2464 94.0224 42.8521 93.6696 40.6578 92.7376C38.7306 91.9352 37.0282 90.5481 35.9137 88.7759C34.6124 86.7205 34.2203 84.2551 34.2312 81.8913C34.2418 79.7848 34.2531 77.6783 34.2652 75.5718C34.2773 73.4666 34.2472 71.3607 34.1743 69.2559C34.1504 68.5086 34.1121 67.7616 34.0597 67.0154C34.0078 66.2595 33.9837 65.5016 33.989 64.7441C33.9913 64.4993 34.0355 64.2277 34.2186 64.0285C34.4024 63.8283 34.6795 63.7739 34.9235 63.7764C35.2848 63.779 35.6461 63.7817 36.0074 63.7843C38.3494 63.8013 40.6914 63.8192 43.0334 63.8381C40.6914 63.857 38.3494 63.8748 36.0074 63.8918C35.6461 63.8944 35.2848 63.8971 34.9235 63.8997C34.6948 63.9004 34.4602 63.9568 34.317 64.119C34.1721 64.2795 34.1307 64.5157 34.1324 64.7441C34.1377 65.4979 34.1722 66.2512 34.234 67.002C34.2965 67.7495 34.3446 68.4983 34.3782 69.2476C34.4784 71.3538 34.5341 73.4627 34.5461 75.5718C34.5582 77.6783 34.5696 79.7848 34.5801 81.8913C34.5916 84.2166 35.0051 86.6056 36.2622 88.5519C37.3488 90.2455 38.9772 91.552 40.8364 92.3124C42.9644 93.1989 45.2947 93.5308 47.606 93.5239C49.2296 93.5216 50.8492 93.234 52.3663 92.6661C53.8642 92.1011 55.2624 91.2797 56.4655 90.2261C57.6525 89.2055 58.6262 87.9455 59.305 86.5355C60.0241 85.0743 60.3558 83.4398 60.3513 81.8052C60.3508 80.6189 60.3505 79.4325 60.3505 78.2462C60.3505 78.2132 60.3505 78.1803 60.3505 78.1474C60.3508 76.684 60.3582 75.2206 60.3731 73.7573C60.3881 72.2516 60.4251 70.7459 60.4845 69.2413C60.5142 68.4892 60.5586 67.7376 60.6173 66.9878C60.6746 66.2411 60.7046 65.4926 60.7058 64.7441C60.7061 64.3055 60.5427 64.1068 60.1162 64.1087C57.456 64.1042 54.7957 64.0987 52.1355 64.0918C51.6987 64.0854 51.4973 64.2837 51.5009 64.7224C51.4931 67.5273 51.4695 70.332 51.4302 73.1366C51.3909 75.9323 51.3647 78.7285 51.3516 81.5247C51.3619 82.453 51.0557 83.5253 50.2068 84.0828C49.419 84.6299 48.449 84.8415 47.5199 84.8328C46.5992 84.824 45.6169 84.691 44.8226 84.1199C44.0169 83.489 43.8752 82.4294 43.8759 81.5247C43.8926 78.7283 43.8963 75.9316 43.8869 73.135C43.8838 72.1944 43.8825 71.2538 43.883 70.3133C43.8838 68.4496 43.8916 66.5859 43.9063 64.7224C43.9084 64.4874 43.8621 64.2349 43.6925 64.0633C43.5238 63.8908 43.2699 63.8396 43.0334 63.8381C43.2698 63.836 43.5258 63.8821 43.7008 64.055C43.8766 64.2272 43.9276 64.4845 43.9292 64.7224C43.9439 66.5859 43.9646 68.4492 43.9908 70.3125C44.0041 71.2529 44.0185 72.1935 44.0347 73.1338C44.0829 75.9305 44.1152 78.7275 44.1319 81.5247C44.1377 82.4031 44.3078 83.3733 44.9941 83.8884C45.7065 84.3912 46.6318 84.5173 47.5199 84.5147C48.4057 84.5131 49.297 84.3035 50.0093 83.7983C50.7281 83.3146 50.993 82.4006 50.9785 81.5247C50.9654 78.7272 50.9677 75.9297 50.986 73.1322C51.0043 70.329 51.0093 67.5256 51.0015 64.7224C51.0015 64.4561 51.0501 64.1285 51.2943 63.8811C51.5406 63.636 51.8687 63.5857 52.1355 63.5844C54.7957 63.5774 57.456 63.5719 60.1162 63.5674Z" fill="#00DC82"/>
<path d="M0.434657 62.6494C0.564711 62.652 0.64376 62.69 0.712442 62.7225C0.7134 62.723 0.715827 62.7244 0.716788 62.7249C2.91975 63.8768 5.08355 65.1039 7.20187 66.4033C9.33118 67.7005 11.4518 69.0123 13.5613 70.3373C14.5708 70.9597 15.5769 71.5877 16.5774 72.2194C17.5479 72.8182 18.5315 73.396 19.5264 73.9537C19.5314 71.905 19.5374 69.8563 19.5437 67.8076C19.5453 67.2994 19.5396 66.7908 19.5272 66.2824C19.5147 65.7587 19.5225 65.234 19.5544 64.7065C19.5754 64.4481 19.6385 64.1528 19.8579 63.9186C20.0789 63.6819 20.4028 63.6121 20.6663 63.6151C23.4056 63.625 26.1452 63.6361 28.8845 63.6483C29.1449 63.6485 29.4626 63.7094 29.6784 63.9482C29.8911 64.1863 29.9309 64.4873 29.9313 64.7449C29.9279 65.4837 29.8954 66.2224 29.834 66.9584C29.7732 67.6883 29.7262 68.4195 29.6938 69.1511C29.6285 70.6742 29.5703 72.1977 29.5187 73.7201C29.4813 75.2503 29.4581 76.7809 29.4488 78.3117C29.4379 80.1084 29.448 81.9055 29.4792 83.7022C29.4989 84.8355 29.5296 85.9687 29.5717 87.1016C29.5964 87.7659 29.625 88.4301 29.6574 89.0943C29.6943 89.9576 29.7384 90.8206 29.7894 91.6829C29.8554 92.5379 29.8988 93.3945 29.9206 94.2517C29.9059 94.2875 29.8914 94.3234 29.8767 94.3592C29.8908 94.3232 29.9046 94.287 29.9186 94.2513C29.8834 93.3949 29.8271 92.5396 29.7483 91.6861C29.6843 90.8241 29.6274 89.9615 29.578 89.0987C29.536 88.4349 29.4982 87.7707 29.4642 87.1064C29.4062 85.9735 29.3599 84.8398 29.3251 83.7058C29.27 81.9084 29.2368 80.1101 29.2259 78.3117C29.2166 76.7795 29.2221 75.247 29.2425 73.7134C29.2772 72.1883 29.3192 70.6634 29.369 69.1384C29.3941 68.4021 29.4338 67.6661 29.4879 66.9312C29.5414 66.2036 29.5668 65.4741 29.5634 64.7449C29.5772 64.2891 29.3326 64.0073 28.8845 64.0293C26.1452 64.0415 23.4056 64.0526 20.6663 64.0624C20.2441 64.0518 20.0325 64.3053 20.0104 64.7362C19.983 65.2464 19.9787 65.7583 19.9942 66.2697C20.0101 66.782 20.0191 67.2948 20.0207 67.8076C20.0271 69.8638 20.0327 71.92 20.0377 73.9762C20.0361 74.0718 20.0252 74.1339 20.0148 74.2006C20.0109 74.2618 19.9947 74.35 19.9148 74.4326C19.8176 74.5269 19.7123 74.5339 19.6528 74.5349C19.5701 74.5308 19.5663 74.5225 19.5406 74.5171C19.5197 74.5113 19.5021 74.5057 19.4853 74.5001C19.4782 74.4978 19.4582 74.4896 19.4517 74.4863C19.4497 74.4819 19.4258 74.4817 19.4631 74.4867C19.4316 74.4803 19.3941 74.4694 19.377 74.4598C18.3385 73.8861 17.3126 73.2895 16.298 72.669C15.2942 72.0409 14.2875 71.4174 13.2756 70.798C11.1619 69.48 9.03997 68.1747 6.90986 66.8818C4.83596 65.6144 2.72037 64.4154 0.56782 63.2868C0.573364 64.0241 0.60908 64.7614 0.673323 65.496C0.745195 66.3035 0.802921 67.1124 0.846 67.925C0.917367 69.6163 0.966188 71.3085 0.992993 72.9986C1.03454 74.6903 1.05343 76.3825 1.05068 78.0746C1.04803 79.7092 1.02325 81.3437 0.976792 82.9751C0.944601 84.61 0.890563 86.2446 0.813994 87.8761C0.782659 88.6654 0.729312 89.4537 0.655541 90.2398C0.582839 91.0141 0.543831 91.7915 0.541345 92.5688C0.532752 93.0137 0.730268 93.252 1.16804 93.2433C3.95762 93.2526 6.74719 93.2631 9.53676 93.2749C9.96571 93.2944 10.2059 93.018 10.2279 92.5755C10.2582 92.2033 10.2661 91.8288 10.2539 91.4545C10.2539 91.4531 10.2539 91.4488 10.2539 91.4474C10.2557 91.0664 10.2573 90.6853 10.2591 90.3043C10.2643 89.1691 10.2626 88.0338 10.2539 86.8985C10.2452 85.7619 10.2439 84.625 10.25 83.4884C10.2598 83.3962 10.2675 83.4033 10.2761 83.3683C10.2845 83.3415 10.2931 83.316 10.3018 83.2905C10.31 83.2663 10.3178 83.2421 10.3251 83.219C10.3315 83.2037 10.342 83.1471 10.3381 83.1866C10.3383 83.1573 10.3604 83.1025 10.3812 83.0818C10.4421 83.0228 10.5101 83.0178 10.5507 83.0174C10.6359 83.0153 10.7291 83.0558 10.789 83.1103C13.9707 84.9248 17.1062 86.8196 20.1918 88.7909C21.2962 89.4932 22.4104 90.1805 23.5339 90.8523C25.561 92.0645 27.6188 93.2266 29.704 94.3363C29.7277 94.3376 29.7488 94.3484 29.7692 94.3584C29.7895 94.3684 29.8105 94.3793 29.8333 94.3805C29.8499 94.3807 29.8651 94.3707 29.8767 94.3592C29.8653 94.3708 29.8502 94.3812 29.8333 94.3813C29.8217 94.3809 29.8108 94.3777 29.8001 94.3738L29.7368 94.3462C29.7261 94.3422 29.7148 94.3396 29.7033 94.3391C27.6003 93.2618 25.5248 92.1297 23.4794 90.9452C22.3456 90.2886 21.2211 89.6158 20.106 88.9272C16.9919 86.9949 13.8319 85.1375 10.6297 83.3573C10.623 83.3535 10.6063 83.3407 10.5993 83.3343C10.594 83.3512 10.5893 83.368 10.5839 83.3845C10.576 83.4087 10.568 83.4328 10.561 83.456C10.5572 83.4654 10.5516 83.4903 10.5491 83.4991C10.5552 84.6309 10.5683 85.7626 10.5882 86.8942C10.6083 88.0307 10.6209 89.1675 10.6262 90.3043C10.6279 90.6853 10.63 91.0664 10.6317 91.4474L10.6396 91.7315C10.6437 92.0227 10.6358 92.3143 10.6147 92.6048C10.5959 92.8594 10.5351 93.1477 10.3243 93.3753C10.1121 93.6054 9.79718 93.676 9.53676 93.6748C6.74719 93.6866 3.95762 93.6971 1.16804 93.7064C0.902564 93.708 0.570343 93.6487 0.339823 93.397C0.113064 93.1459 0.0711321 92.8324 0.0687548 92.5688C0.0662507 91.7767 0.101292 90.9847 0.170702 90.196C0.239135 89.4178 0.287267 88.638 0.314138 87.8559C0.381859 86.2267 0.428085 84.5964 0.453228 82.9637C0.492599 81.3342 0.5112 79.7044 0.508548 78.0746C0.505803 76.3871 0.482158 74.6996 0.437028 73.0104C0.406593 71.3227 0.355359 69.6351 0.282527 67.9518C0.239086 67.1491 0.181215 66.347 0.109454 65.5458C0.0374387 64.7275 7.96088e-07 63.9057 0 63.0837C0.000789037 63.0373 0.00217725 62.9831 0.0312163 62.9051C0.0549574 62.8293 0.152262 62.7149 0.258818 62.6854C0.268256 62.6823 0.286756 62.6784 0.30505 62.6755C0.340081 62.6608 0.382934 62.6503 0.434657 62.6494ZM0.567425 63.1726C0.567427 63.1732 0.567422 63.1739 0.567425 63.1746C0.579391 63.1658 0.587579 63.1586 0.591923 63.1548C0.585589 63.1611 0.576611 63.1663 0.567425 63.1726Z" fill="#00DC82"/>
<path d="M169.098 41.32C169.098 40.3123 169.27 39.3478 169.616 38.4266C169.969 37.4981 170.462 36.6704 171.095 35.9434C171.736 35.2165 172.491 34.6443 173.362 34.2268C174.24 33.8022 175.205 33.5898 176.256 33.5898C177.306 33.5898 178.271 33.8022 179.149 34.2268C180.027 34.6515 180.786 35.2309 181.427 35.965C182.075 36.692 182.575 37.5197 182.928 38.4482C183.288 39.3766 183.467 40.3447 183.467 41.3524C183.467 42.36 183.288 43.3245 182.928 44.2458C182.575 45.1598 182.075 45.9768 181.427 46.6965C180.779 47.4163 180.016 47.9849 179.138 48.4023C178.26 48.8198 177.299 49.0285 176.256 49.0285C175.19 49.0285 174.219 48.8234 173.341 48.4131C172.47 47.9957 171.718 47.4271 171.084 46.7073C170.451 45.9876 169.961 45.167 169.616 44.2458C169.27 43.3173 169.098 42.342 169.098 41.32ZM176.353 46.4266C177.274 46.4266 178.051 46.1747 178.685 45.6709C179.325 45.167 179.811 44.5229 180.142 43.7383C180.481 42.9538 180.65 42.1477 180.65 41.32C180.65 40.4707 180.477 39.6537 180.131 38.8692C179.786 38.0847 179.286 37.4405 178.631 36.9367C177.983 36.4257 177.195 36.1702 176.266 36.1702C175.359 36.1702 174.575 36.4221 173.913 36.9259C173.258 37.4297 172.754 38.0739 172.401 38.8584C172.049 39.6357 171.872 40.4455 171.872 41.2876C171.872 42.1369 172.052 42.9574 172.412 43.7491C172.779 44.5337 173.297 45.1778 173.967 45.6817C174.636 46.1783 175.431 46.4266 176.353 46.4266Z" fill="#EDFFF8"/>
<path d="M149.911 48.8668C149.616 48.8668 149.469 48.7157 149.469 48.4134C149.469 48.0319 149.476 47.654 149.49 47.2798C149.505 46.8983 149.516 46.5204 149.523 46.1462C149.537 45.3113 149.548 44.4799 149.555 43.6522C149.57 42.8173 149.577 41.986 149.577 41.1583C149.577 40.3594 149.573 39.5604 149.566 38.7615C149.559 37.9626 149.548 37.1637 149.534 36.3648C149.526 36.0049 149.516 35.6414 149.501 35.2743C149.487 34.9073 149.48 34.5438 149.48 34.1839C149.48 33.8816 149.627 33.7305 149.922 33.7305H153.971C155.18 33.7305 156.317 33.9032 157.382 34.2487C158.455 34.5942 159.387 35.1448 160.179 35.9005C160.97 36.6491 161.553 37.6351 161.928 38.8587C162.194 39.7368 162.327 40.6293 162.327 41.5362C162.327 43.0117 161.992 44.3 161.323 45.4012C160.661 46.4952 159.754 47.3482 158.602 47.9599C157.458 48.5645 156.162 48.8668 154.716 48.8668H149.911ZM152.243 46.2649H154.241C155.846 46.2649 157.127 45.8439 158.084 45.0018C159.049 44.1525 159.531 42.9037 159.531 41.2555C159.531 40.3198 159.333 39.4813 158.937 38.7399C158.541 37.9914 157.987 37.4012 157.274 36.9693C156.562 36.5375 155.727 36.3216 154.77 36.3216H152.254C152.261 37.0845 152.265 37.851 152.265 38.6212C152.272 39.3913 152.276 40.1614 152.276 40.9316C152.276 42.7022 152.265 44.4799 152.243 46.2649Z" fill="#EDFFF8"/>
<path d="M141.673 49.2988C141.63 49.2988 141.414 49.1224 141.026 48.7698C140.644 48.4099 140.151 47.942 139.547 47.3662C138.942 46.7832 138.28 46.1463 137.56 45.4553C136.84 44.7572 136.124 44.0626 135.412 43.3716C134.699 42.6735 134.04 42.0365 133.436 41.4607C132.838 40.8777 132.353 40.4099 131.978 40.0572C131.611 39.7045 131.417 39.5282 131.395 39.5282C131.359 39.5282 131.338 39.557 131.331 39.6145C131.323 39.6649 131.32 39.7009 131.32 39.7225C131.32 40.3775 131.32 41.0324 131.32 41.6874C131.327 42.3352 131.331 42.9866 131.331 43.6415C131.331 44.1885 131.331 44.7356 131.331 45.2826C131.331 45.8224 131.327 46.3694 131.32 46.9236C131.32 47.1539 131.323 47.4058 131.331 47.6793C131.345 47.9528 131.338 48.2048 131.309 48.4351C131.295 48.579 131.259 48.687 131.201 48.759C131.143 48.8309 131.032 48.8669 130.866 48.8669H128.955C128.66 48.8669 128.513 48.7158 128.513 48.4135C128.513 48.0032 128.52 47.593 128.534 47.1827C128.556 46.7725 128.57 46.3622 128.578 45.9519C128.592 45.1314 128.603 44.3109 128.61 43.4904C128.617 42.6699 128.621 41.8494 128.621 41.0288C128.621 40.1651 128.617 39.3014 128.61 38.4377C128.603 37.574 128.588 36.7103 128.567 35.8466C128.56 35.4364 128.545 35.0261 128.524 34.6159C128.509 34.2056 128.502 33.7953 128.502 33.3851C128.502 33.3419 128.524 33.3203 128.567 33.3203C128.61 33.3203 128.646 33.3347 128.675 33.3635C130.388 34.9541 132.065 36.5844 133.706 38.2542C135.347 39.9168 137.009 41.5579 138.694 43.1773C138.708 43.1917 138.73 43.2133 138.758 43.2421C138.787 43.2637 138.816 43.2745 138.845 43.2745C138.888 43.2745 138.91 43.2493 138.91 43.1989C138.917 43.1413 138.92 43.1017 138.92 43.0801C138.92 42.4108 138.917 41.745 138.91 41.0828C138.91 40.4135 138.91 39.7441 138.91 39.0747C138.91 38.4989 138.91 37.9267 138.91 37.3581C138.91 36.7823 138.913 36.2101 138.92 35.6415C138.92 35.404 138.917 35.1593 138.91 34.9074C138.902 34.6555 138.91 34.4107 138.931 34.1732C138.946 34.0221 138.982 33.9105 139.039 33.8385C139.097 33.7666 139.208 33.7306 139.374 33.7306H141.231C141.526 33.7306 141.673 33.8817 141.673 34.184C141.673 34.5583 141.666 34.9326 141.652 35.3068C141.637 35.6811 141.627 36.059 141.619 36.4404C141.605 37.225 141.594 38.0167 141.587 38.8156C141.58 39.6073 141.576 40.3991 141.576 41.1908C141.576 43.8827 141.619 46.5745 141.706 49.2664L141.673 49.2988Z" fill="#EDFFF8"/>
<path d="M108.367 48.8669C108.266 48.8669 108.158 48.8525 108.043 48.8237C107.928 48.7878 107.87 48.7014 107.87 48.5646C107.87 48.5071 107.881 48.4495 107.903 48.3919C107.924 48.3343 107.946 48.2803 107.967 48.2299C108.601 46.8624 109.227 45.4949 109.846 44.1274C110.472 42.7598 111.087 41.3851 111.692 40.0032C112.189 38.866 112.682 37.7288 113.171 36.5916C113.661 35.4472 114.164 34.3136 114.683 33.1908C114.704 33.1476 114.74 33.126 114.791 33.126C114.841 33.126 114.877 33.1476 114.898 33.1908C115.417 34.3136 115.921 35.4472 116.41 36.5916C116.899 37.7288 117.392 38.866 117.889 40.0032C118.494 41.3851 119.105 42.7598 119.724 44.1274C120.351 45.4949 120.98 46.8624 121.614 48.2299C121.635 48.2803 121.657 48.3343 121.679 48.3919C121.7 48.4495 121.711 48.5071 121.711 48.5646C121.711 48.7014 121.653 48.7878 121.538 48.8237C121.423 48.8525 121.315 48.8669 121.214 48.8669H119.033C118.854 48.8669 118.717 48.777 118.623 48.597C118.566 48.4819 118.512 48.3595 118.461 48.2299C118.411 48.1004 118.36 47.978 118.31 47.8629C118.152 47.503 117.997 47.1359 117.846 46.7617C117.702 46.3874 117.547 46.0203 117.382 45.6604C117.36 45.6029 117.32 45.5741 117.263 45.5741H111.919C111.861 45.5741 111.822 45.6029 111.8 45.6604C111.627 46.0203 111.462 46.3874 111.303 46.7617C111.152 47.1359 110.994 47.5066 110.828 47.8737C110.778 47.9888 110.724 48.1112 110.666 48.2407C110.616 48.3703 110.558 48.4927 110.494 48.6078C110.4 48.7806 110.267 48.8669 110.094 48.8669H108.367ZM112.815 43.3176H116.41C116.122 42.5979 115.831 41.8817 115.535 41.1692C115.24 40.4494 114.945 39.7297 114.65 39.0099C114.348 39.7297 114.042 40.4494 113.732 41.1692C113.43 41.8817 113.124 42.5979 112.815 43.3176Z" fill="#EDFFF8"/>
<path d="M101.057 49.2988C101.014 49.2988 100.798 49.1224 100.409 48.7698C100.028 48.4099 99.5349 47.942 98.9303 47.3662C98.3257 46.7832 97.6636 46.1463 96.9438 45.4553C96.2241 44.7572 95.5079 44.0626 94.7954 43.3716C94.0828 42.6735 93.4242 42.0365 92.8196 41.4607C92.2222 40.8777 91.7364 40.4099 91.3621 40.0572C90.9951 39.7045 90.8007 39.5282 90.7791 39.5282C90.7432 39.5282 90.7216 39.557 90.7144 39.6145C90.7072 39.6649 90.7036 39.7009 90.7036 39.7225C90.7036 40.3775 90.7036 41.0324 90.7036 41.6874C90.7108 42.3352 90.7144 42.9866 90.7144 43.6415C90.7144 44.1885 90.7144 44.7356 90.7144 45.2826C90.7144 45.8224 90.7108 46.3694 90.7036 46.9236C90.7036 47.1539 90.7072 47.4058 90.7144 47.6793C90.7288 47.9528 90.7216 48.2048 90.6928 48.4351C90.6784 48.579 90.6424 48.687 90.5848 48.759C90.5272 48.8309 90.4157 48.8669 90.2501 48.8669H88.3392C88.0441 48.8669 87.8965 48.7158 87.8965 48.4135C87.8965 48.0032 87.9037 47.593 87.9181 47.1827C87.9397 46.7725 87.9541 46.3622 87.9613 45.9519C87.9757 45.1314 87.9865 44.3109 87.9937 43.4904C88.0009 42.6699 88.0045 41.8494 88.0045 41.0288C88.0045 40.1651 88.0009 39.3014 87.9937 38.4377C87.9865 37.574 87.9721 36.7103 87.9505 35.8466C87.9433 35.4364 87.9289 35.0261 87.9073 34.6159C87.8929 34.2056 87.8857 33.7953 87.8857 33.3851C87.8857 33.3419 87.9073 33.3203 87.9505 33.3203C87.9937 33.3203 88.0297 33.3347 88.0585 33.3635C89.7715 34.9541 91.4485 36.5844 93.0895 38.2542C94.7306 39.9168 96.3932 41.5579 98.0774 43.1773C98.0918 43.1917 98.1134 43.2133 98.1422 43.2421C98.171 43.2637 98.1998 43.2745 98.2286 43.2745C98.2717 43.2745 98.2933 43.2493 98.2933 43.1989C98.3005 43.1413 98.3041 43.1017 98.3041 43.0801C98.3041 42.4108 98.3005 41.745 98.2933 41.0828C98.2933 40.4135 98.2933 39.7441 98.2933 39.0747C98.2933 38.4989 98.2933 37.9267 98.2933 37.3581C98.2933 36.7823 98.2969 36.2101 98.3041 35.6415C98.3041 35.404 98.3005 35.1593 98.2933 34.9074C98.2861 34.6555 98.2933 34.4107 98.3149 34.1732C98.3293 34.0221 98.3653 33.9105 98.4229 33.8385C98.4805 33.7666 98.592 33.7306 98.7576 33.7306H100.615C100.91 33.7306 101.057 33.8817 101.057 34.184C101.057 34.5583 101.05 34.9326 101.036 35.3068C101.021 35.6811 101.01 36.059 101.003 36.4404C100.989 37.225 100.978 38.0167 100.971 38.8156C100.964 39.6073 100.96 40.3991 100.96 41.1908C100.96 43.8827 101.003 46.5745 101.09 49.2664L101.057 49.2988Z" fill="#EDFFF8"/>
<path d="M77.4561 34.1731C77.4561 33.878 77.6036 33.7305 77.8987 33.7305H79.7665C80.0616 33.7305 80.2091 33.878 80.2091 34.1731C80.2091 35.3607 80.2055 36.5483 80.1983 37.7359C80.1911 38.9235 80.1875 40.1111 80.1875 41.2986C80.1875 42.4862 80.1911 43.6738 80.1983 44.8614C80.2055 46.049 80.2091 47.2366 80.2091 48.4242C80.2091 48.7193 80.0616 48.8668 79.7665 48.8668H77.8987C77.6036 48.8668 77.4561 48.7193 77.4561 48.4242C77.4561 47.2366 77.4597 46.049 77.4669 44.8614C77.4741 43.6738 77.4777 42.4862 77.4777 41.2986C77.4777 40.1111 77.4741 38.9235 77.4669 37.7359C77.4597 36.5483 77.4561 35.3607 77.4561 34.1731Z" fill="#EDFFF8"/>
<path d="M55.4534 48.8668C55.1583 48.8668 55.0107 48.7156 55.0107 48.4133C55.0107 48.0175 55.0179 47.6216 55.0323 47.2257C55.0539 46.8299 55.0683 46.434 55.0755 46.0382C55.0971 45.2032 55.1115 44.3719 55.1187 43.5442C55.1259 42.7093 55.1295 41.878 55.1295 41.0503C55.1295 39.9994 55.1223 38.9486 55.1079 37.8978C55.0935 36.8469 55.0719 35.7997 55.0431 34.7561V34.6481C55.0431 34.5905 55.0503 34.461 55.0647 34.2594C55.0863 34.0579 55.1547 33.9571 55.2699 33.9571C55.3706 33.9571 55.4786 34.0291 55.5937 34.1731C55.7089 34.317 55.7917 34.4214 55.8421 34.4862C56.9505 35.9904 58.0193 37.5307 59.0485 39.107C60.0778 40.676 61.1322 42.2235 62.2119 43.7493C62.2478 43.7997 62.2838 43.8249 62.3198 43.8249C62.3558 43.8249 62.3918 43.7997 62.4278 43.7493C63.5362 42.2163 64.6158 40.6616 65.6667 39.0854C66.7247 37.5091 67.8187 35.9652 68.9487 34.4538C68.9991 34.389 69.0819 34.2882 69.197 34.1515C69.3194 34.0075 69.4274 33.9355 69.5209 33.9355C69.6433 33.9355 69.7117 34.0363 69.726 34.2378C69.7404 34.4394 69.7476 34.5689 69.7476 34.6265V34.7345C69.7189 35.7853 69.6973 36.8397 69.6829 37.8978C69.6685 38.9486 69.6613 39.9994 69.6613 41.0503C69.6613 41.878 69.6649 42.7093 69.6721 43.5442C69.6793 44.3719 69.6937 45.2032 69.7153 46.0382C69.7296 46.434 69.744 46.8299 69.7584 47.2257C69.7728 47.6216 69.78 48.0175 69.78 48.4133C69.78 48.7156 69.6325 48.8668 69.3374 48.8668H67.4804C67.3221 48.8668 67.2105 48.8308 67.1457 48.7588C67.0882 48.6868 67.0522 48.5789 67.0378 48.4349C67.0306 48.3342 67.027 48.2262 67.027 48.111C67.027 47.9887 67.027 47.8735 67.027 47.7656L67.0054 46.2001C66.991 45.4156 66.9802 44.631 66.973 43.8465C66.9658 43.062 66.9622 42.2775 66.9622 41.4929C66.9622 41.4785 66.9586 41.4353 66.9514 41.3634C66.9514 41.2842 66.9334 41.2446 66.8974 41.2446C66.8686 41.2446 66.8362 41.2734 66.8003 41.331C66.7643 41.3814 66.7391 41.4138 66.7247 41.4282C66.2569 42.1479 65.7926 42.8749 65.332 43.609C64.8785 44.3359 64.4179 45.0629 63.95 45.7898C63.7629 46.0849 63.5758 46.3836 63.3886 46.6859C63.2015 46.9882 63.0072 47.2833 62.8056 47.5712C62.7625 47.6288 62.7121 47.6936 62.6545 47.7656C62.5969 47.8303 62.5249 47.8627 62.4386 47.8627C62.3594 47.8627 62.2874 47.8339 62.2226 47.7764C62.1651 47.7116 62.1147 47.6504 62.0715 47.5928C61.8916 47.3409 61.7116 47.0854 61.5317 46.8263C61.3589 46.5672 61.1862 46.3081 61.0135 46.049C60.5096 45.3148 60.0058 44.5771 59.502 43.8357C59.0054 43.0872 58.4979 42.3494 57.9797 41.6225C57.9725 41.6081 57.9509 41.5793 57.9149 41.5361C57.879 41.4857 57.8466 41.4605 57.8178 41.4605C57.7818 41.4605 57.7602 41.4965 57.753 41.5685C57.7458 41.6405 57.7422 41.6837 57.7422 41.6981C57.7422 42.461 57.7386 43.2239 57.7314 43.9869C57.7242 44.7426 57.7134 45.5019 57.699 46.2649L57.6774 47.7871C57.6774 47.8879 57.6774 47.9959 57.6774 48.111C57.6846 48.2262 57.681 48.3342 57.6666 48.4349C57.6522 48.5789 57.6162 48.6868 57.5587 48.7588C57.5011 48.8308 57.3895 48.8668 57.224 48.8668H55.4534Z" fill="#EDFFF8"/>
<path d="M33.375 41.32C33.375 40.3123 33.5477 39.3478 33.8932 38.4266C34.2459 37.4981 34.7389 36.6704 35.3723 35.9434C36.0129 35.2165 36.7686 34.6443 37.6395 34.2268C38.5176 33.8022 39.4821 33.5898 40.5329 33.5898C41.5838 33.5898 42.5482 33.8022 43.4263 34.2268C44.3044 34.6515 45.0638 35.2309 45.7043 35.965C46.3521 36.692 46.8523 37.5197 47.205 38.4482C47.5649 39.3766 47.7448 40.3447 47.7448 41.3524C47.7448 42.36 47.5649 43.3245 47.205 44.2458C46.8523 45.1598 46.3521 45.9768 45.7043 46.6965C45.0566 47.4163 44.2936 47.9849 43.4155 48.4023C42.5374 48.8198 41.5766 49.0285 40.5329 49.0285C39.4677 49.0285 38.496 48.8234 37.6179 48.4131C36.747 47.9957 35.9949 47.4271 35.3615 46.7073C34.7281 45.9876 34.2387 45.167 33.8932 44.2458C33.5477 43.3173 33.375 42.342 33.375 41.32ZM40.6301 46.4266C41.5514 46.4266 42.3287 46.1747 42.9621 45.6709C43.6027 45.167 44.0885 44.5229 44.4196 43.7383C44.7579 42.9538 44.927 42.1477 44.927 41.32C44.927 40.4707 44.7543 39.6537 44.4088 38.8692C44.0633 38.0847 43.5631 37.4405 42.9081 36.9367C42.2603 36.4257 41.4722 36.1702 40.5437 36.1702C39.6368 36.1702 38.8523 36.4221 38.1901 36.9259C37.5352 37.4297 37.0313 38.0739 36.6787 38.8584C36.326 39.6357 36.1496 40.4455 36.1496 41.2876C36.1496 42.1369 36.3296 42.9574 36.6895 43.7491C37.0565 44.5337 37.5747 45.1778 38.2441 45.6817C38.9135 46.1783 39.7088 46.4266 40.6301 46.4266Z" fill="#EDFFF8"/>
<path d="M14.1887 48.8668C13.8936 48.8668 13.7461 48.7157 13.7461 48.4134C13.7461 48.0319 13.7533 47.654 13.7677 47.2798C13.7821 46.8983 13.7929 46.5204 13.8001 46.1462C13.8145 45.3113 13.8253 44.4799 13.8325 43.6522C13.8469 42.8173 13.8541 41.986 13.8541 41.1583C13.8541 40.3594 13.8505 39.5604 13.8433 38.7615C13.8361 37.9626 13.8253 37.1637 13.8109 36.3648C13.8037 36.0049 13.7929 35.6414 13.7785 35.2743C13.7641 34.9073 13.7569 34.5438 13.7569 34.1839C13.7569 33.8816 13.9044 33.7305 14.1995 33.7305H18.2481C19.4573 33.7305 20.5945 33.9032 21.6598 34.2487C22.7322 34.5942 23.6643 35.1448 24.456 35.9005C25.2477 36.6491 25.8307 37.6351 26.205 38.8587C26.4713 39.7368 26.6044 40.6293 26.6044 41.5362C26.6044 43.0117 26.2698 44.3 25.6004 45.4012C24.9382 46.4952 24.0313 47.3482 22.8797 47.9599C21.7353 48.5645 20.4398 48.8668 18.9931 48.8668H14.1887ZM16.5207 46.2649H18.518C20.1231 46.2649 21.4042 45.8439 22.3615 45.0018C23.326 44.1525 23.8082 42.9037 23.8082 41.2555C23.8082 40.3198 23.6103 39.4813 23.2144 38.7399C22.8186 37.9914 22.2643 37.4012 21.5518 36.9693C20.8392 36.5375 20.0043 36.3216 19.0471 36.3216H16.5315C16.5387 37.0845 16.5423 37.851 16.5423 38.6212C16.5495 39.3913 16.5531 40.1614 16.5531 40.9316C16.5531 42.7022 16.5423 44.4799 16.5207 46.2649Z" fill="#EDFFF8"/>
<path d="M53.2959 10.3294C53.2959 4.62463 57.9205 0 63.6253 0H132.904C138.608 0 143.233 4.62463 143.233 10.3294V10.3294C143.233 16.0342 138.608 20.6588 132.904 20.6588H63.6253C57.9205 20.6588 53.2959 16.0342 53.2959 10.3294V10.3294Z" fill="#00DC82" fill-opacity="0.1"/>
<path d="M125.817 6.89481C125.817 6.73251 125.894 6.65137 126.049 6.65137H129.092C129.594 6.65137 130.074 6.70933 130.529 6.82525C130.989 6.94118 131.397 7.12473 131.753 7.3759C132.108 7.62321 132.388 7.94587 132.593 8.34388C132.802 8.73802 132.906 9.21718 132.906 9.78135C132.906 10.7783 132.614 11.5531 132.031 12.1056C131.451 12.6582 130.669 12.9345 129.683 12.9345H128.536C128.493 12.9345 128.472 12.9596 128.472 13.0099C128.472 13.0833 128.47 13.1586 128.466 13.2359C128.462 13.3093 128.46 13.3847 128.46 13.462C128.46 13.6049 128.462 13.7576 128.466 13.9199C128.474 14.0783 128.468 14.2309 128.449 14.3778C128.437 14.4589 128.418 14.5188 128.391 14.5575C128.364 14.5961 128.304 14.6154 128.211 14.6154H126.026C125.871 14.6154 125.794 14.5343 125.794 14.372C125.794 14.1633 125.802 13.9527 125.817 13.7402C125.833 13.5277 125.844 13.3171 125.852 13.1084C125.871 12.6717 125.885 12.2351 125.892 11.7984C125.904 11.3579 125.91 10.9174 125.91 10.4769C125.91 10.0866 125.906 9.69634 125.898 9.30605C125.894 8.91577 125.885 8.52549 125.869 8.13521C125.862 7.93041 125.85 7.72368 125.835 7.51501C125.823 7.30634 125.817 7.09961 125.817 6.89481ZM129.37 10.9348C129.757 10.9348 130.014 10.8227 130.141 10.5986C130.269 10.3706 130.332 10.0866 130.332 9.74657C130.332 9.12057 130.012 8.80758 129.37 8.80758H128.472C128.472 9.15922 128.474 9.51279 128.478 9.86829C128.481 10.2238 128.48 10.5793 128.472 10.9348H129.37Z" fill="#00DC82"/>
<path d="M116.439 10.6459C116.439 10.0818 116.546 9.5543 116.758 9.06355C116.975 8.56894 117.272 8.13422 117.651 7.7594C118.03 7.38457 118.466 7.09089 118.961 6.87836C119.459 6.66584 119.989 6.55957 120.549 6.55957C121.113 6.55957 121.646 6.66777 122.149 6.88416C122.651 7.09669 123.094 7.3923 123.476 7.77099C123.863 8.14581 124.166 8.58247 124.386 9.08094C124.606 9.57942 124.717 10.1127 124.717 10.6807C124.717 11.2526 124.608 11.7839 124.392 12.2747C124.176 12.7616 123.876 13.1866 123.494 13.5499C123.111 13.9131 122.669 14.1952 122.166 14.3961C121.668 14.5971 121.136 14.6975 120.572 14.6975C120.004 14.6975 119.469 14.5951 118.967 14.3903C118.468 14.1855 118.03 13.8996 117.651 13.5325C117.272 13.1654 116.975 12.7365 116.758 12.2457C116.546 11.755 116.439 11.2217 116.439 10.6459ZM119.112 10.5996C119.112 11.0478 119.258 11.4168 119.552 11.7066C119.85 11.9926 120.221 12.1356 120.665 12.1356C121.102 12.1356 121.44 11.9907 121.679 11.7009C121.923 11.411 122.044 11.0594 122.044 10.6459C122.044 10.2131 121.913 9.85185 121.65 9.56203C121.388 9.26836 121.034 9.12152 120.59 9.12152C120.157 9.12152 119.801 9.26063 119.523 9.53885C119.249 9.8132 119.112 10.1668 119.112 10.5996Z" fill="#00DC82"/>
<path d="M115.111 6.65137C115.266 6.65137 115.343 6.73251 115.343 6.89481C115.343 7.08802 115.335 7.28316 115.32 7.48023C115.305 7.67731 115.293 7.87245 115.285 8.06565C115.27 8.47139 115.256 8.87713 115.245 9.28287C115.237 9.68861 115.233 10.0943 115.233 10.5001C115.233 10.9367 115.239 11.3734 115.25 11.81C115.266 12.2428 115.281 12.6775 115.297 13.1142C115.305 13.3267 115.316 13.5412 115.332 13.7576C115.351 13.9701 115.361 14.1846 115.361 14.401C115.361 14.5439 115.285 14.6154 115.134 14.6154H112.938C112.853 14.6154 112.793 14.5961 112.758 14.5575C112.727 14.5188 112.708 14.4609 112.7 14.3836C112.685 14.2367 112.679 14.088 112.683 13.9373C112.687 13.7827 112.687 13.632 112.683 13.4852C112.679 13.1915 112.673 12.8997 112.665 12.6099C112.661 12.3201 112.659 12.0284 112.659 11.7347C112.659 11.7192 112.658 11.6999 112.654 11.6767C112.654 11.6497 112.64 11.6362 112.613 11.6362H110.138C110.119 11.6362 110.107 11.6497 110.103 11.6767C110.099 11.6999 110.098 11.7192 110.098 11.7347C110.098 12.0284 110.096 12.3201 110.092 12.6099C110.088 12.8997 110.082 13.1915 110.074 13.4852C110.07 13.6359 110.069 13.7866 110.069 13.9373C110.072 14.088 110.067 14.2367 110.051 14.3836C110.043 14.4609 110.024 14.5188 109.993 14.5575C109.966 14.5961 109.908 14.6154 109.819 14.6154H107.628C107.474 14.6154 107.396 14.5343 107.396 14.372C107.396 14.1633 107.406 13.9547 107.425 13.746C107.445 13.5335 107.458 13.3229 107.466 13.1142C107.485 12.6775 107.501 12.2428 107.512 11.81C107.524 11.3734 107.53 10.9367 107.53 10.5001C107.53 10.0943 107.524 9.68861 107.512 9.28287C107.505 8.87713 107.493 8.47139 107.478 8.06565C107.47 7.87245 107.458 7.67731 107.443 7.48023C107.427 7.28316 107.42 7.08802 107.42 6.89481C107.42 6.73251 107.497 6.65137 107.652 6.65137H109.825C109.98 6.65137 110.059 6.73058 110.063 6.88901C110.07 7.04358 110.074 7.20008 110.074 7.35851C110.074 7.51308 110.076 7.66764 110.08 7.82221L110.098 9.52052C110.098 9.53597 110.098 9.55723 110.098 9.58428C110.101 9.60746 110.117 9.61905 110.144 9.61905H112.613C112.636 9.61905 112.65 9.60746 112.654 9.58428C112.658 9.56109 112.659 9.54177 112.659 9.52631C112.659 9.23264 112.659 8.94089 112.659 8.65108C112.663 8.36126 112.667 8.06952 112.671 7.77584C112.675 7.629 112.675 7.48023 112.671 7.32953C112.671 7.17883 112.679 7.03006 112.694 6.88322C112.702 6.80593 112.721 6.74797 112.752 6.70933C112.783 6.67069 112.841 6.65137 112.926 6.65137H115.111Z" fill="#00DC82"/>
<path d="M104.459 6.61133C104.532 6.61133 104.658 6.61712 104.835 6.62872C105.017 6.63645 105.208 6.65577 105.409 6.68668C105.614 6.71373 105.788 6.75817 105.931 6.81999C106.078 6.87796 106.151 6.95717 106.151 7.05764C106.151 7.10787 106.136 7.21414 106.105 7.37643C106.074 7.53873 106.035 7.72035 105.989 7.92128C105.946 8.12222 105.906 8.30963 105.867 8.48352C105.828 8.65354 105.799 8.77333 105.78 8.84289C105.765 8.90472 105.745 8.95881 105.722 9.00518C105.699 9.04769 105.649 9.06894 105.571 9.06894C105.544 9.06894 105.519 9.06508 105.496 9.05735C105.473 9.04962 105.45 9.04383 105.427 9.03996C105.257 8.99746 105.088 8.9762 104.922 8.9762C104.845 8.9762 104.758 8.9878 104.661 9.01098C104.569 9.03417 104.522 9.09986 104.522 9.20805C104.522 9.32398 104.561 9.44377 104.638 9.56742C104.719 9.69107 104.814 9.807 104.922 9.9152C105.03 10.0234 105.127 10.1123 105.212 10.1818C105.486 10.3944 105.709 10.5818 105.879 10.7441C106.053 10.9064 106.18 11.0957 106.261 11.3121C106.346 11.5246 106.389 11.8164 106.389 12.1873V12.3206C106.389 12.8037 106.304 13.2017 106.134 13.5147C105.968 13.8238 105.738 14.0653 105.444 14.2392C105.15 14.4131 104.816 14.5348 104.441 14.6044C104.066 14.6739 103.672 14.7087 103.259 14.7087C103.023 14.7087 102.745 14.6971 102.424 14.6739C102.107 14.6546 101.841 14.6005 101.624 14.5116C101.574 14.4923 101.533 14.4691 101.502 14.4421C101.475 14.415 101.462 14.3706 101.462 14.3088C101.462 14.2894 101.466 14.2643 101.474 14.2334C101.512 14.0286 101.551 13.8257 101.589 13.6248C101.628 13.4239 101.665 13.2229 101.7 13.022C101.715 12.9254 101.727 12.8288 101.734 12.7322C101.746 12.6317 101.765 12.5351 101.792 12.4424C101.804 12.4037 101.823 12.3574 101.85 12.3033C101.881 12.2492 101.922 12.2221 101.972 12.2221C102.003 12.2221 102.032 12.226 102.059 12.2337C102.09 12.2376 102.119 12.2434 102.146 12.2511C102.316 12.2897 102.482 12.3187 102.644 12.338C102.807 12.3574 102.975 12.367 103.149 12.367C103.238 12.367 103.323 12.3554 103.404 12.3322C103.485 12.3091 103.525 12.2395 103.525 12.1236C103.525 12.0076 103.496 11.8995 103.438 11.799C103.388 11.7101 103.328 11.6251 103.259 11.5439C103.193 11.4589 103.124 11.3797 103.05 11.3063C102.957 11.2097 102.859 11.1208 102.754 11.0397C102.65 10.9585 102.546 10.8754 102.441 10.7904C102.113 10.5354 101.904 10.2784 101.815 10.0195C101.727 9.75677 101.678 9.42058 101.671 9.01098V8.95881C101.671 8.37146 101.792 7.90776 102.036 7.56771C102.279 7.2238 102.612 6.97842 103.033 6.83159C103.454 6.68475 103.929 6.61133 104.459 6.61133Z" fill="#00DC82"/>
<path d="M95.6997 6.65137C95.8581 6.65137 95.9373 6.73058 95.9373 6.88901C95.9373 7.2793 95.9412 7.67151 95.9489 8.06565C95.9566 8.4598 95.9605 8.85201 95.9605 9.2423C95.9605 9.25002 95.9624 9.26548 95.9663 9.28867C95.9702 9.31185 95.9798 9.32344 95.9953 9.32344C96.0223 9.32344 96.0436 9.31958 96.059 9.31185C96.4416 9.14569 96.7874 8.89452 97.0966 8.55834C97.4057 8.22215 97.6337 7.86085 97.7805 7.47444C97.8192 7.37397 97.852 7.27157 97.8791 7.16723C97.9061 7.0629 97.9351 6.95857 97.966 6.85424C97.9853 6.78855 98.0105 6.73831 98.0414 6.70353C98.0761 6.66876 98.1302 6.65137 98.2037 6.65137H100.331C100.397 6.65137 100.451 6.66489 100.493 6.69194C100.54 6.71513 100.563 6.76343 100.563 6.83685C100.563 6.8523 100.561 6.87163 100.557 6.89481C100.553 6.918 100.549 6.93732 100.545 6.95277C100.333 7.72174 100.028 8.38059 99.6295 8.9293C99.2354 9.47801 98.7311 10.0016 98.1167 10.5001L98.0935 10.5233L98.0993 10.5812C98.5051 11.1995 98.9282 11.8081 99.3687 12.4071C99.8092 13.006 100.25 13.6049 100.69 14.2039C100.713 14.2348 100.739 14.2715 100.766 14.314C100.793 14.3527 100.806 14.3932 100.806 14.4357C100.806 14.5092 100.769 14.5536 100.696 14.5691C100.626 14.5807 100.565 14.5864 100.511 14.5864H98.0298C97.9641 14.5864 97.9023 14.5555 97.8443 14.4937C97.7593 14.401 97.6781 14.3024 97.6008 14.1981C97.5274 14.0899 97.4521 13.9856 97.3748 13.8851C97.1584 13.5953 96.942 13.3055 96.7256 13.0157C96.5131 12.722 96.2986 12.4283 96.0822 12.1346C96.0706 12.1192 96.059 12.1037 96.0475 12.0883C96.0359 12.0728 96.0185 12.0651 95.9953 12.0651H95.9837C95.9566 12.0921 95.9431 12.154 95.9431 12.2506C95.9431 12.3433 95.9431 12.4071 95.9431 12.4418C95.9431 12.7626 95.945 13.0852 95.9489 13.4098C95.9528 13.7344 95.9451 14.0571 95.9257 14.3778C95.9141 14.5362 95.8349 14.6154 95.6881 14.6154H93.4623C93.3078 14.6154 93.2305 14.5343 93.2305 14.372C93.2305 14.1633 93.2401 13.9547 93.2594 13.746C93.2788 13.5335 93.2923 13.3229 93.3 13.1142C93.3193 12.6775 93.3329 12.2409 93.3406 11.8042C93.3483 11.3637 93.3522 10.9251 93.3522 10.4885C93.3522 10.0866 93.3503 9.68281 93.3464 9.27707C93.3425 8.86747 93.3309 8.46173 93.3116 8.05986C93.3039 7.86665 93.2923 7.67344 93.2768 7.48023C93.2614 7.28316 93.2537 7.08802 93.2537 6.89481C93.2537 6.73251 93.3309 6.65137 93.4855 6.65137H95.6997Z" fill="#00DC82"/>
<path d="M88.2457 6.65137C88.7442 6.65137 89.2137 6.69967 89.6542 6.79627C90.0986 6.88901 90.4908 7.04744 90.8309 7.27157C91.1748 7.49182 91.4433 7.7913 91.6365 8.16999C91.8336 8.54868 91.9321 9.02204 91.9321 9.59007V9.63644C91.9283 10.1001 91.8452 10.5407 91.6829 10.958C91.5206 11.3715 91.2501 11.725 90.8714 12.0187C90.798 12.0767 90.7227 12.1269 90.6454 12.1694C90.5681 12.2119 90.4908 12.2583 90.4135 12.3085C90.4058 12.3124 90.3942 12.322 90.3787 12.3375L90.3729 12.3549C90.3729 12.3742 90.4232 12.4438 90.5237 12.5636C90.628 12.6833 90.7574 12.8282 90.912 12.9983C91.0704 13.1644 91.2308 13.3345 91.3931 13.5083C91.5554 13.6784 91.6984 13.8291 91.822 13.9605C91.9495 14.088 92.0326 14.173 92.0713 14.2155C92.1022 14.2503 92.1369 14.2889 92.1756 14.3314C92.2142 14.3739 92.2335 14.4222 92.2335 14.4763C92.2335 14.5459 92.191 14.5864 92.106 14.598C92.021 14.6096 91.9553 14.6154 91.909 14.6154H89.4687C89.3992 14.6154 89.3354 14.5826 89.2775 14.5169C89.2388 14.4744 89.1712 14.3836 89.0746 14.2445C88.9818 14.1015 88.8736 13.9392 88.75 13.7576C88.6302 13.576 88.5123 13.3982 88.3964 13.2243C88.2805 13.0504 88.18 12.9075 88.095 12.7954C88.01 12.6795 87.9578 12.6215 87.9385 12.6215C87.8806 12.6215 87.8477 12.6447 87.84 12.6911C87.8323 12.7606 87.8284 12.834 87.8284 12.9113C87.8284 12.9847 87.8284 13.0562 87.8284 13.1258C87.8284 13.3345 87.8303 13.5451 87.8342 13.7576C87.8419 13.9662 87.8361 14.173 87.8168 14.3778C87.8091 14.4589 87.7897 14.5188 87.7588 14.5575C87.7279 14.5961 87.668 14.6154 87.5791 14.6154H85.394C85.2394 14.6154 85.1621 14.5343 85.1621 14.372C85.1621 14.1633 85.1698 13.9527 85.1853 13.7402C85.2008 13.5277 85.2123 13.3171 85.2201 13.1084C85.2394 12.6717 85.2529 12.2351 85.2606 11.7984C85.2722 11.3579 85.278 10.9174 85.278 10.4769C85.278 10.075 85.2742 9.67122 85.2664 9.26548C85.2587 8.85974 85.2471 8.45594 85.2317 8.05406C85.2278 7.86085 85.2181 7.66764 85.2027 7.47444C85.1911 7.27736 85.1853 7.08415 85.1853 6.89481C85.1853 6.73251 85.2626 6.65137 85.4171 6.65137H88.2457ZM88.5181 10.616C88.7307 10.616 88.8891 10.5677 88.9934 10.4711C89.0978 10.3706 89.1673 10.2412 89.2021 10.0828C89.2369 9.92432 89.2543 9.75816 89.2543 9.58428C89.2543 9.33697 89.1944 9.14569 89.0746 9.01045C88.9587 8.8752 88.7732 8.80758 88.5181 8.80758H87.84C87.84 9.10898 87.84 9.41039 87.84 9.71179C87.8438 10.0132 87.8458 10.3146 87.8458 10.616H88.5181Z" fill="#00DC82"/>
<path d="M75.8076 10.645C75.8076 10.0808 75.9139 9.55333 76.1264 9.06258C76.3428 8.56796 76.6403 8.13324 77.019 7.75842C77.3977 7.38359 77.8344 7.08992 78.329 6.87739C78.8275 6.66486 79.3569 6.55859 79.9172 6.55859C80.4813 6.55859 81.0146 6.66679 81.5169 6.88318C82.0193 7.09571 82.4617 7.39132 82.8443 7.77001C83.2307 8.14484 83.534 8.58149 83.7543 9.07997C83.9745 9.57845 84.0847 10.1117 84.0847 10.6797C84.0847 11.2516 83.9765 11.783 83.7601 12.2737C83.5437 12.7606 83.2442 13.1857 82.8617 13.5489C82.4791 13.9121 82.0367 14.1942 81.5343 14.3951C81.0358 14.5961 80.5045 14.6965 79.9404 14.6965C79.3723 14.6965 78.8371 14.5941 78.3348 14.3893C77.8363 14.1845 77.3977 13.8986 77.019 13.5315C76.6403 13.1644 76.3428 12.7355 76.1264 12.2447C75.9139 11.754 75.8076 11.2207 75.8076 10.645ZM78.4797 10.5986C78.4797 11.0468 78.6265 11.4159 78.9202 11.7057C79.2178 11.9916 79.5887 12.1346 80.0331 12.1346C80.4697 12.1346 80.8079 11.9897 81.0474 11.6999C81.2909 11.4101 81.4126 11.0584 81.4126 10.645C81.4126 10.2122 81.2812 9.85087 81.0185 9.56106C80.7557 9.26738 80.4021 9.12054 79.9577 9.12054C79.525 9.12054 79.1694 9.25965 78.8912 9.53787C78.6169 9.81223 78.4797 10.1658 78.4797 10.5986Z" fill="#00DC82"/>
<path d="M69.7912 10.7619C69.7835 10.7696 69.7719 10.7793 69.7564 10.7909C69.7448 10.8025 69.7352 10.8121 69.7274 10.8199C69.6849 10.8701 69.6289 10.9551 69.5593 11.0749C69.4936 11.1908 69.428 11.3106 69.3623 11.4343C69.2966 11.554 69.2444 11.6487 69.2058 11.7183C69.0241 12.0313 68.8425 12.3462 68.6609 12.6631C68.4832 12.9761 68.3015 13.2891 68.1161 13.6021C68.0195 13.7644 67.9229 13.9267 67.8263 14.0889C67.7335 14.2474 67.635 14.4058 67.5306 14.5642C67.5036 14.6067 67.4765 14.6435 67.4495 14.6744C67.4263 14.7091 67.3877 14.7362 67.3336 14.7555C67.3297 14.7555 67.3239 14.7555 67.3162 14.7555C67.3123 14.7594 67.3085 14.7613 67.3046 14.7613C67.2505 14.7613 67.208 14.7304 67.1771 14.6686C67.15 14.6106 67.1268 14.5623 67.1075 14.5237C67.0457 14.3652 66.9839 14.2049 66.922 14.0426C66.8641 13.8764 66.8042 13.7122 66.7424 13.5499C66.325 12.4409 65.8942 11.3377 65.4498 10.2402C65.0054 9.1428 64.5301 8.0589 64.0239 6.98853C63.993 6.9267 63.9775 6.87067 63.9775 6.82044C63.9775 6.74702 64.0046 6.70065 64.0587 6.68133C64.1128 6.662 64.1688 6.65234 64.2268 6.65234H66.4641C66.5569 6.65234 66.6303 6.70065 66.6844 6.79725C66.7501 6.91318 66.808 7.03876 66.8583 7.17401C66.9085 7.30539 66.9587 7.43291 67.009 7.55656C67.1365 7.86183 67.2621 8.1671 67.3857 8.47237C67.5133 8.77764 67.635 9.08484 67.7509 9.39398C67.7625 9.42489 67.7702 9.44421 67.7741 9.45194C67.778 9.4558 67.7895 9.46353 67.8089 9.47512H67.8205C67.8398 9.46353 67.8514 9.4558 67.8552 9.45194C67.863 9.44421 67.8939 9.36886 67.948 9.22588C68.0021 9.08291 68.0639 8.91868 68.1335 8.7332C68.203 8.54386 68.2629 8.3777 68.3131 8.23472C68.3672 8.08788 68.3943 8.00867 68.3943 7.99708C68.3943 7.95457 68.3653 7.88115 68.3073 7.77682C68.2532 7.66862 68.1876 7.55076 68.1103 7.42325C68.0369 7.29573 67.9712 7.17401 67.9132 7.05808C67.8591 6.94216 67.8321 6.85521 67.8321 6.79725C67.8321 6.73156 67.8649 6.69099 67.9306 6.67553C67.9963 6.66007 68.0523 6.65234 68.0987 6.65234H70.1737C70.2703 6.65234 70.3418 6.70065 70.3882 6.79725C70.4191 6.85908 70.4713 6.98273 70.5447 7.16821C70.6181 7.34983 70.7012 7.55849 70.7939 7.79421C70.8905 8.02606 70.9833 8.25404 71.0722 8.47817C71.1649 8.70229 71.2422 8.89163 71.304 9.0462C71.3697 9.20077 71.4103 9.28578 71.4257 9.30124L71.4547 9.30703C71.4702 9.2993 71.4818 9.29157 71.4895 9.28385C71.5127 9.2568 71.5533 9.16792 71.6112 9.01722C71.6692 8.86652 71.7349 8.68297 71.8083 8.46657C71.8856 8.25018 71.9648 8.02799 72.0459 7.8C72.1271 7.57202 72.2024 7.36722 72.272 7.1856C72.3415 7.00398 72.3976 6.87647 72.4401 6.80305C72.4671 6.75668 72.4961 6.71997 72.527 6.69292C72.5579 6.66587 72.6024 6.65234 72.6603 6.65234H74.747C74.805 6.65234 74.861 6.662 74.9151 6.68133C74.973 6.70065 75.002 6.74702 75.002 6.82044C75.002 6.84748 74.9962 6.87453 74.9846 6.90158C74.9769 6.92863 74.9672 6.95568 74.9557 6.98273C74.6465 7.68987 74.349 8.40281 74.063 9.12155C73.7771 9.84029 73.5066 10.5648 73.2516 11.2951C73.0699 11.8168 72.8941 12.3423 72.7241 12.8717C72.5541 13.3973 72.3783 13.9209 72.1966 14.4425C72.1812 14.4889 72.158 14.5449 72.1271 14.6106C72.1 14.6724 72.0556 14.7033 71.9938 14.7033C71.9397 14.7033 71.8933 14.6744 71.8547 14.6164C71.816 14.5623 71.7851 14.5159 71.7619 14.4773C71.6692 14.3266 71.5822 14.172 71.5011 14.0136C71.4199 13.8513 71.3369 13.6929 71.2518 13.5383C71.0161 13.0901 70.7862 12.6379 70.5621 12.182C70.3418 11.7221 70.1061 11.27 69.8549 10.8257C69.8395 10.7986 69.8182 10.7773 69.7912 10.7619Z" fill="#00DC82"/>
<defs>
<linearGradient id="paint0_linear_2032_2135" x1="107.317" y1="63.4641" x2="106.329" y2="102.664" gradientUnits="userSpaceOnUse">
<stop stop-color="white"/>
<stop offset="1" stop-color="#AEFFDE"/>
</linearGradient>
<linearGradient id="paint1_linear_2032_2135" x1="107.317" y1="63.4645" x2="106.329" y2="102.664" gradientUnits="userSpaceOnUse">
<stop stop-color="white"/>
<stop offset="1" stop-color="#AEFFDE"/>
</linearGradient>
<linearGradient id="paint2_linear_2032_2135" x1="107.317" y1="63.4645" x2="106.329" y2="102.664" gradientUnits="userSpaceOnUse">
<stop stop-color="white"/>
<stop offset="1" stop-color="#AEFFDE"/>
</linearGradient>
<linearGradient id="paint3_linear_2032_2135" x1="107.317" y1="63.4645" x2="106.329" y2="102.664" gradientUnits="userSpaceOnUse">
<stop stop-color="white"/>
<stop offset="1" stop-color="#AEFFDE"/>
</linearGradient>
<linearGradient id="paint4_linear_2032_2135" x1="107.316" y1="63.4645" x2="106.329" y2="102.664" gradientUnits="userSpaceOnUse">
<stop stop-color="white"/>
<stop offset="1" stop-color="#AEFFDE"/>
</linearGradient>
<linearGradient id="paint5_linear_2032_2135" x1="107.317" y1="63.4642" x2="106.33" y2="102.664" gradientUnits="userSpaceOnUse">
<stop stop-color="white"/>
<stop offset="1" stop-color="#AEFFDE"/>
</linearGradient>
</defs>
</svg>
