<svg width="202" height="22" viewBox="0 0 202 22" fill="none" xmlns="http://www.w3.org/2000/svg">
<path d="M123 11.0733C123 6.06224 127.062 2 132.073 2H192.927C197.938 2 202 6.06224 202 11.0733C202 16.0843 197.938 20.1465 192.927 20.1465H132.073C127.062 20.1465 123 16.0843 123 11.0733Z" fill="#00DC82" fill-opacity="0.1"/>
<path d="M186.702 8.05719C186.702 7.91463 186.77 7.84335 186.906 7.84335H189.579C190.02 7.84335 190.441 7.89427 190.841 7.99609C191.245 8.09792 191.603 8.25915 191.916 8.47978C192.228 8.69701 192.474 8.98043 192.654 9.33004C192.837 9.67625 192.929 10.0971 192.929 10.5927C192.929 11.4684 192.673 12.149 192.16 12.6344C191.651 13.1197 190.964 13.3624 190.098 13.3624H189.09C189.053 13.3624 189.034 13.3845 189.034 13.4286C189.034 13.4931 189.032 13.5593 189.029 13.6272C189.025 13.6917 189.024 13.7579 189.024 13.8257C189.024 13.9513 189.025 14.0854 189.029 14.228C189.036 14.3671 189.03 14.5012 189.014 14.6302C189.003 14.7015 188.986 14.7541 188.963 14.788C188.939 14.822 188.886 14.8389 188.805 14.8389H186.885C186.75 14.8389 186.682 14.7676 186.682 14.6251C186.682 14.4418 186.688 14.2568 186.702 14.0701C186.716 13.8834 186.726 13.6985 186.733 13.5152C186.75 13.1316 186.761 12.7481 186.768 12.3645C186.778 11.9776 186.783 11.5906 186.783 11.2037C186.783 10.8609 186.78 10.518 186.773 10.1752C186.77 9.83239 186.761 9.48957 186.748 9.14675C186.741 8.96685 186.731 8.78526 186.717 8.60197C186.707 8.41868 186.702 8.23709 186.702 8.05719ZM189.823 11.6059C190.162 11.6059 190.388 11.5075 190.5 11.3106C190.612 11.1103 190.668 10.8609 190.668 10.5622C190.668 10.0123 190.386 9.73735 189.823 9.73735H189.034C189.034 10.0462 189.036 10.3568 189.039 10.6691C189.042 10.9813 189.041 11.2936 189.034 11.6059H189.823Z" fill="#00DC82"/>
<path d="M178.464 11.3513C178.464 10.8558 178.557 10.3925 178.744 9.96138C178.934 9.52692 179.195 9.14506 179.528 8.81582C179.861 8.48658 180.244 8.22861 180.679 8.04193C181.116 7.85524 181.581 7.7619 182.074 7.7619C182.569 7.7619 183.038 7.85694 183.479 8.04702C183.92 8.2337 184.309 8.49337 184.645 8.826C184.984 9.15525 185.251 9.5388 185.444 9.97666C185.638 10.4145 185.734 10.8829 185.734 11.3819C185.734 11.8842 185.639 12.3509 185.449 12.782C185.259 13.2097 184.996 13.5831 184.66 13.9021C184.324 14.2212 183.935 14.469 183.494 14.6455C183.056 14.822 182.59 14.9102 182.094 14.9102C181.595 14.9102 181.125 14.8203 180.684 14.6404C180.246 14.4605 179.861 14.2093 179.528 13.8868C179.195 13.5644 178.934 13.1876 178.744 12.7566C178.557 12.3255 178.464 11.8571 178.464 11.3513ZM180.811 11.3106C180.811 11.7043 180.94 12.0285 181.198 12.2831C181.459 12.5342 181.785 12.6598 182.175 12.6598C182.559 12.6598 182.856 12.5325 183.066 12.278C183.28 12.0234 183.387 11.7145 183.387 11.3513C183.387 10.9712 183.272 10.6538 183.041 10.3992C182.81 10.1413 182.5 10.0123 182.109 10.0123C181.729 10.0123 181.417 10.1345 181.172 10.3789C180.931 10.6199 180.811 10.9304 180.811 11.3106Z" fill="#00DC82"/>
<path d="M177.298 7.84335C177.434 7.84335 177.502 7.91463 177.502 8.05719C177.502 8.2269 177.495 8.39831 177.481 8.57142C177.468 8.74453 177.458 8.91594 177.451 9.08565C177.437 9.44205 177.425 9.79845 177.415 10.1548C177.408 10.5112 177.405 10.8676 177.405 11.224C177.405 11.6076 177.41 11.9911 177.42 12.3747C177.434 12.7548 177.447 13.1367 177.461 13.5203C177.468 13.7069 177.478 13.8953 177.492 14.0854C177.509 14.2721 177.517 14.4605 177.517 14.6505C177.517 14.7761 177.451 14.8389 177.318 14.8389H175.389C175.314 14.8389 175.262 14.822 175.231 14.788C175.204 14.7541 175.187 14.7032 175.18 14.6353C175.167 14.5063 175.161 14.3756 175.165 14.2432C175.168 14.1075 175.168 13.9751 175.165 13.8461C175.161 13.5881 175.156 13.3319 175.15 13.0773C175.146 12.8227 175.144 12.5665 175.144 12.3085C175.144 12.2949 175.143 12.278 175.139 12.2576C175.139 12.2338 175.127 12.2219 175.104 12.2219H172.93C172.913 12.2219 172.903 12.2338 172.899 12.2576C172.896 12.278 172.894 12.2949 172.894 12.3085C172.894 12.5665 172.892 12.8227 172.889 13.0773C172.886 13.3319 172.88 13.5881 172.874 13.8461C172.87 13.9785 172.869 14.1109 172.869 14.2432C172.872 14.3756 172.867 14.5063 172.853 14.6353C172.847 14.7032 172.83 14.7541 172.802 14.788C172.779 14.822 172.728 14.8389 172.65 14.8389H170.725C170.589 14.8389 170.521 14.7676 170.521 14.6251C170.521 14.4418 170.53 14.2585 170.547 14.0752C170.564 13.8885 170.576 13.7035 170.583 13.5203C170.6 13.1367 170.613 12.7548 170.623 12.3747C170.633 11.9911 170.639 11.6076 170.639 11.224C170.639 10.8676 170.633 10.5112 170.623 10.1548C170.617 9.79845 170.606 9.44205 170.593 9.08565C170.586 8.91594 170.576 8.74453 170.562 8.57142C170.549 8.39831 170.542 8.2269 170.542 8.05719C170.542 7.91463 170.61 7.84335 170.746 7.84335H172.655C172.791 7.84335 172.86 7.91294 172.864 8.0521C172.87 8.18787 172.874 8.32534 172.874 8.4645C172.874 8.60027 172.875 8.73604 172.879 8.87181L172.894 10.3636C172.894 10.3772 172.894 10.3958 172.894 10.4196C172.897 10.44 172.911 10.4501 172.935 10.4501H175.104C175.124 10.4501 175.136 10.44 175.139 10.4196C175.143 10.3992 175.144 10.3823 175.144 10.3687C175.144 10.1107 175.144 9.85445 175.144 9.59988C175.148 9.34531 175.151 9.08905 175.155 8.83108C175.158 8.7021 175.158 8.57142 175.155 8.43905C175.155 8.30667 175.161 8.17599 175.175 8.04701C175.182 7.97912 175.199 7.92821 175.226 7.89427C175.253 7.86032 175.304 7.84335 175.379 7.84335H177.298Z" fill="#00DC82"/>
<path d="M167.941 7.80774C168.005 7.80774 168.116 7.81283 168.272 7.82301C168.431 7.8298 168.599 7.84677 168.776 7.87393C168.956 7.89769 169.108 7.93672 169.234 7.99103C169.363 8.04194 169.428 8.11153 169.428 8.19978C169.428 8.2439 169.414 8.33724 169.387 8.4798C169.36 8.62236 169.326 8.78189 169.285 8.95839C169.248 9.13489 169.212 9.29952 169.178 9.45226C169.144 9.60161 169.119 9.70683 169.102 9.76792C169.088 9.82223 169.071 9.86975 169.051 9.91048C169.03 9.94782 168.986 9.96649 168.918 9.96649C168.895 9.96649 168.873 9.96309 168.852 9.95631C168.832 9.94952 168.811 9.94443 168.791 9.94103C168.642 9.90369 168.494 9.88503 168.348 9.88503C168.28 9.88503 168.204 9.89521 168.119 9.91557C168.038 9.93594 167.997 9.99364 167.997 10.0887C167.997 10.1905 168.031 10.2957 168.099 10.4043C168.17 10.513 168.253 10.6148 168.348 10.7098C168.443 10.8049 168.528 10.8829 168.603 10.944C168.844 11.1307 169.039 11.2953 169.188 11.4379C169.341 11.5805 169.453 11.7468 169.524 11.9369C169.599 12.1235 169.636 12.3798 169.636 12.7057V12.8228C169.636 13.247 169.562 13.5966 169.412 13.8716C169.266 14.1431 169.064 14.3553 168.806 14.508C168.548 14.6608 168.255 14.7677 167.926 14.8288C167.596 14.8899 167.25 14.9204 166.887 14.9204C166.68 14.9204 166.435 14.9102 166.154 14.8899C165.875 14.8729 165.641 14.8254 165.451 14.7473C165.407 14.7303 165.371 14.71 165.344 14.6862C165.32 14.6624 165.309 14.6234 165.309 14.5691C165.309 14.5521 165.312 14.5301 165.319 14.5029C165.353 14.323 165.387 14.1448 165.421 13.9683C165.455 13.7918 165.487 13.6153 165.517 13.4388C165.531 13.354 165.541 13.2691 165.548 13.1842C165.558 13.096 165.575 13.0111 165.599 12.9297C165.609 12.8957 165.626 12.855 165.65 12.8075C165.677 12.76 165.713 12.7362 165.757 12.7362C165.784 12.7362 165.809 12.7396 165.833 12.7464C165.86 12.7498 165.886 12.7549 165.909 12.7617C166.059 12.7956 166.205 12.8211 166.347 12.838C166.49 12.855 166.637 12.8635 166.79 12.8635C166.868 12.8635 166.943 12.8533 167.014 12.8329C167.085 12.8126 167.121 12.7515 167.121 12.6497C167.121 12.5478 167.096 12.4528 167.045 12.3645C167.001 12.2865 166.948 12.2118 166.887 12.1405C166.829 12.0658 166.768 11.9963 166.704 11.9318C166.622 11.8469 166.536 11.7688 166.444 11.6976C166.352 11.6263 166.261 11.5533 166.169 11.4786C165.881 11.2546 165.697 11.0289 165.619 10.8015C165.541 10.5707 165.499 10.2754 165.492 9.91557V9.86975C165.492 9.35382 165.599 8.94651 165.813 8.64782C166.026 8.34573 166.318 8.13019 166.688 8.00121C167.058 7.87223 167.476 7.80774 167.941 7.80774Z" fill="#00DC82"/>
<path d="M160.247 7.84335C160.386 7.84335 160.456 7.91294 160.456 8.0521C160.456 8.39492 160.459 8.73944 160.466 9.08565C160.473 9.43187 160.476 9.77638 160.476 10.1192C160.476 10.126 160.478 10.1396 160.481 10.1599C160.485 10.1803 160.493 10.1905 160.507 10.1905C160.53 10.1905 160.549 10.1871 160.563 10.1803C160.899 10.0343 161.203 9.81372 161.474 9.51842C161.746 9.22312 161.946 8.90576 162.075 8.56633C162.109 8.47808 162.138 8.38813 162.161 8.29649C162.185 8.20484 162.211 8.1132 162.238 8.02155C162.255 7.96385 162.277 7.91972 162.304 7.88918C162.335 7.85863 162.382 7.84335 162.447 7.84335H164.315C164.373 7.84335 164.42 7.85523 164.458 7.87899C164.498 7.89936 164.519 7.94179 164.519 8.00628C164.519 8.01985 164.517 8.03683 164.514 8.05719C164.51 8.07756 164.507 8.09453 164.503 8.10811C164.317 8.78356 164.049 9.36228 163.699 9.84427C163.353 10.3263 162.91 10.7862 162.37 11.224L162.35 11.2444L162.355 11.2953C162.711 11.8384 163.083 12.373 163.47 12.8991C163.857 13.4252 164.244 13.9513 164.631 14.4774C164.651 14.5046 164.673 14.5368 164.697 14.5742C164.721 14.6081 164.733 14.6438 164.733 14.6811C164.733 14.7456 164.7 14.7846 164.636 14.7982C164.575 14.8084 164.52 14.8135 164.473 14.8135H162.294C162.236 14.8135 162.182 14.7863 162.131 14.732C162.056 14.6505 161.985 14.564 161.917 14.4723C161.853 14.3773 161.786 14.2857 161.718 14.1974C161.528 13.9428 161.338 13.6883 161.148 13.4337C160.962 13.1757 160.773 12.9178 160.583 12.6598C160.573 12.6462 160.563 12.6327 160.553 12.6191C160.542 12.6055 160.527 12.5987 160.507 12.5987H160.497C160.473 12.6225 160.461 12.6768 160.461 12.7616C160.461 12.8431 160.461 12.8991 160.461 12.9297C160.461 13.2114 160.463 13.4948 160.466 13.7799C160.469 14.065 160.463 14.3485 160.446 14.6302C160.435 14.7693 160.366 14.8389 160.237 14.8389H158.282C158.146 14.8389 158.078 14.7676 158.078 14.6251C158.078 14.4418 158.087 14.2585 158.104 14.0752C158.121 13.8885 158.132 13.7035 158.139 13.5203C158.156 13.1367 158.168 12.7532 158.175 12.3696C158.182 11.9827 158.185 11.5974 158.185 11.2139C158.185 10.8609 158.183 10.5062 158.18 10.1498C158.177 9.78996 158.166 9.43356 158.149 9.08056C158.143 8.91085 158.132 8.74114 158.119 8.57142C158.105 8.39831 158.098 8.2269 158.098 8.05719C158.098 7.91463 158.166 7.84335 158.302 7.84335H160.247Z" fill="#00DC82"/>
<path d="M153.7 7.84335C154.138 7.84335 154.55 7.88578 154.937 7.97064C155.327 8.0521 155.672 8.19126 155.971 8.38813C156.273 8.5816 156.509 8.84466 156.678 9.1773C156.851 9.50993 156.938 9.92573 156.938 10.4247V10.4654C156.935 10.8727 156.862 11.2597 156.719 11.6263C156.576 11.9894 156.339 12.3 156.006 12.558C155.942 12.6089 155.876 12.653 155.808 12.6904C155.74 12.7277 155.672 12.7684 155.604 12.8125C155.597 12.8159 155.587 12.8244 155.573 12.838L155.568 12.8533C155.568 12.8703 155.612 12.9313 155.701 13.0366C155.792 13.1418 155.906 13.2691 156.042 13.4184C156.181 13.5644 156.322 13.7137 156.464 13.8665C156.607 14.0158 156.733 14.1482 156.841 14.2636C156.953 14.3756 157.026 14.4503 157.06 14.4876C157.087 14.5182 157.118 14.5521 157.152 14.5894C157.186 14.6268 157.203 14.6692 157.203 14.7167C157.203 14.7778 157.165 14.8135 157.091 14.8236C157.016 14.8338 156.958 14.8389 156.918 14.8389H154.774C154.713 14.8389 154.657 14.8101 154.606 14.7524C154.572 14.715 154.513 14.6353 154.428 14.5131C154.346 14.3875 154.251 14.2449 154.143 14.0854C154.038 13.9259 153.934 13.7697 153.832 13.617C153.73 13.4642 153.642 13.3387 153.567 13.2402C153.493 13.1384 153.447 13.0875 153.43 13.0875C153.379 13.0875 153.35 13.1079 153.343 13.1486C153.337 13.2097 153.333 13.2742 153.333 13.3421C153.333 13.4065 153.333 13.4693 153.333 13.5304C153.333 13.7137 153.335 13.8987 153.338 14.0854C153.345 14.2687 153.34 14.4503 153.323 14.6302C153.316 14.7015 153.299 14.7541 153.272 14.788C153.245 14.822 153.192 14.8389 153.114 14.8389H151.195C151.059 14.8389 150.991 14.7676 150.991 14.6251C150.991 14.4418 150.998 14.2568 151.012 14.0701C151.025 13.8834 151.035 13.6985 151.042 13.5152C151.059 13.1316 151.071 12.7481 151.078 12.3645C151.088 11.9776 151.093 11.5906 151.093 11.2037C151.093 10.8507 151.09 10.496 151.083 10.1396C151.076 9.78317 151.066 9.42847 151.052 9.07547C151.049 8.90576 151.04 8.73604 151.027 8.56633C151.017 8.39322 151.012 8.22351 151.012 8.05719C151.012 7.91463 151.079 7.84335 151.215 7.84335H153.7ZM153.939 11.3259C154.126 11.3259 154.265 11.2834 154.357 11.1986C154.448 11.1103 154.509 10.9966 154.54 10.8575C154.57 10.7183 154.586 10.5723 154.586 10.4196C154.586 10.2024 154.533 10.0343 154.428 9.91555C154.326 9.79675 154.163 9.73735 153.939 9.73735H153.343C153.343 10.0021 153.343 10.2669 153.343 10.5316C153.347 10.7964 153.349 11.0611 153.349 11.3259H153.939Z" fill="#00DC82"/>
<path d="M142.773 11.3513C142.773 10.8558 142.867 10.3925 143.053 9.96138C143.244 9.52692 143.505 9.14506 143.838 8.81582C144.17 8.48658 144.554 8.22861 144.988 8.04193C145.426 7.85524 145.891 7.7619 146.383 7.7619C146.879 7.7619 147.347 7.85694 147.788 8.04702C148.23 8.2337 148.618 8.49337 148.954 8.826C149.294 9.15525 149.56 9.5388 149.754 9.97666C149.947 10.4145 150.044 10.8829 150.044 11.3819C150.044 11.8842 149.949 12.3509 149.759 12.782C149.569 13.2097 149.306 13.5831 148.97 13.9021C148.634 14.2212 148.245 14.469 147.804 14.6455C147.366 14.822 146.899 14.9102 146.404 14.9102C145.905 14.9102 145.435 14.8203 144.993 14.6404C144.555 14.4605 144.17 14.2093 143.838 13.8868C143.505 13.5644 143.244 13.1876 143.053 12.7566C142.867 12.3255 142.773 11.8571 142.773 11.3513ZM145.121 11.3106C145.121 11.7043 145.25 12.0285 145.508 12.2831C145.769 12.5342 146.095 12.6598 146.485 12.6598C146.869 12.6598 147.166 12.5325 147.376 12.278C147.59 12.0234 147.697 11.7145 147.697 11.3513C147.697 10.9712 147.581 10.6538 147.351 10.3992C147.12 10.1413 146.809 10.0123 146.419 10.0123C146.039 10.0123 145.726 10.1345 145.482 10.3789C145.241 10.6199 145.121 10.9304 145.121 11.3106Z" fill="#00DC82"/>
<path d="M137.489 11.4531C137.482 11.4599 137.472 11.4684 137.458 11.4786C137.448 11.4888 137.439 11.4973 137.432 11.5041C137.395 11.5482 137.346 11.6229 137.285 11.7281C137.227 11.8299 137.169 11.9351 137.112 12.0437C137.054 12.149 137.008 12.2321 136.974 12.2932C136.815 12.5682 136.655 12.8448 136.496 13.1231C136.34 13.3981 136.18 13.673 136.017 13.9479C135.932 14.0905 135.847 14.233 135.763 14.3756C135.681 14.5148 135.595 14.6539 135.503 14.7931C135.479 14.8304 135.455 14.8627 135.432 14.8898C135.411 14.9204 135.377 14.9441 135.33 14.9611C135.326 14.9611 135.321 14.9611 135.314 14.9611C135.311 14.9645 135.308 14.9662 135.304 14.9662C135.257 14.9662 135.219 14.9391 135.192 14.8847C135.169 14.8338 135.148 14.7914 135.131 14.7575C135.077 14.6183 135.023 14.4774 134.968 14.3349C134.917 14.1889 134.865 14.0447 134.81 13.9021C134.444 12.928 134.065 11.9589 133.675 10.9949C133.285 10.031 132.867 9.07886 132.423 8.13865C132.395 8.08435 132.382 8.03513 132.382 7.991C132.382 7.92651 132.406 7.88578 132.453 7.86881C132.501 7.85184 132.55 7.84335 132.601 7.84335H134.566C134.648 7.84335 134.712 7.88578 134.76 7.97064C134.817 8.07247 134.868 8.18278 134.912 8.30158C134.956 8.41698 135.001 8.52899 135.045 8.63761C135.157 8.90576 135.267 9.1739 135.376 9.44205C135.488 9.7102 135.595 9.98004 135.696 10.2516C135.707 10.2787 135.713 10.2957 135.717 10.3025C135.72 10.3059 135.73 10.3127 135.747 10.3229H135.757C135.774 10.3127 135.785 10.3059 135.788 10.3025C135.795 10.2957 135.822 10.2295 135.869 10.1039C135.917 9.97834 135.971 9.83409 136.032 9.67116C136.093 9.50484 136.146 9.35889 136.19 9.2333C136.238 9.10432 136.261 9.03474 136.261 9.02456C136.261 8.98722 136.236 8.92273 136.185 8.83108C136.138 8.73604 136.08 8.63252 136.012 8.52051C135.948 8.4085 135.89 8.30158 135.839 8.19975C135.791 8.09792 135.768 8.02155 135.768 7.97064C135.768 7.91294 135.796 7.8773 135.854 7.86372C135.912 7.85014 135.961 7.84335 136.002 7.84335H137.825C137.909 7.84335 137.972 7.88578 138.013 7.97064C138.04 8.02495 138.086 8.13356 138.15 8.29649C138.215 8.45602 138.288 8.63931 138.369 8.84636C138.454 9.05001 138.536 9.25027 138.614 9.44714C138.695 9.64401 138.763 9.81033 138.817 9.9461C138.875 10.0819 138.911 10.1565 138.924 10.1701L138.95 10.1752C138.963 10.1684 138.973 10.1616 138.98 10.1548C139.001 10.1311 139.036 10.053 139.087 9.92064C139.138 9.78826 139.196 9.62704 139.26 9.43696C139.328 9.24688 139.398 9.05171 139.469 8.85145C139.54 8.65119 139.607 8.47129 139.668 8.31176C139.729 8.15223 139.778 8.04022 139.815 7.97573C139.839 7.935 139.864 7.90275 139.892 7.87899C139.919 7.85523 139.958 7.84335 140.009 7.84335H141.842C141.893 7.84335 141.942 7.85184 141.989 7.86881C142.04 7.88578 142.066 7.92651 142.066 7.991C142.066 8.01476 142.061 8.03852 142.05 8.06228C142.044 8.08604 142.035 8.1098 142.025 8.13356C141.753 8.75471 141.492 9.38095 141.241 10.0123C140.99 10.6436 140.752 11.28 140.528 11.9216C140.369 12.3798 140.214 12.8414 140.065 13.3064C139.915 13.768 139.761 14.228 139.601 14.6862C139.588 14.7269 139.567 14.7761 139.54 14.8338C139.517 14.8881 139.478 14.9153 139.423 14.9153C139.376 14.9153 139.335 14.8898 139.301 14.8389C139.267 14.7914 139.24 14.7507 139.22 14.7167C139.138 14.5844 139.062 14.4486 138.99 14.3094C138.919 14.1669 138.846 14.0277 138.772 13.8919C138.564 13.4982 138.363 13.1011 138.166 12.7005C137.972 12.2966 137.765 11.8995 137.545 11.5092C137.531 11.4854 137.512 11.4667 137.489 11.4531Z" fill="#00DC82"/>
<path d="M76.8635 15.176H83.5972C83.8121 15.176 84.0178 15.1003 84.2038 14.9937C84.3899 14.887 84.5818 14.7531 84.6892 14.5683C84.7966 14.3836 84.8713 14.1739 84.8712 13.9606C84.8711 13.7473 84.7967 13.5378 84.6892 13.3531L80.1393 5.51465C80.032 5.32992 79.9007 5.19593 79.7147 5.08926C79.5286 4.98265 79.2622 4.90698 79.0474 4.90698C78.8326 4.90698 78.6268 4.98265 78.4408 5.08926C78.2547 5.19593 78.1235 5.32992 78.0161 5.51465L76.8635 7.51983L74.5582 3.63083C74.4507 3.44614 74.3197 3.25151 74.1336 3.14489C73.9475 3.03822 73.7418 3.02335 73.527 3.02335C73.3121 3.02335 73.1064 3.03822 72.9203 3.14489C72.7342 3.25151 72.5425 3.44614 72.435 3.63083L66.7932 13.3531C66.6856 13.5378 66.672 13.7473 66.6719 13.9606C66.6718 14.1739 66.6858 14.3835 66.7932 14.5683C66.9006 14.7531 67.0924 14.887 67.2785 14.9937C67.4646 15.1003 67.6703 15.176 67.8852 15.176H72.1317C73.8143 15.176 75.039 14.4199 75.8929 12.9885L77.9554 9.40346L79.0474 7.51983L82.3839 13.2315H77.9554L76.8635 15.176ZM72.071 13.2315H69.0984L73.527 5.57539L75.7715 9.40346L74.2847 11.9995C73.7177 12.9283 73.0712 13.2315 72.071 13.2315Z" fill="#00DC82"/>
<path d="M104.581 1.90329C104.731 1.90329 104.987 1.91513 105.35 1.9388C105.721 1.95458 106.111 1.99404 106.522 2.05717C106.94 2.11241 107.295 2.20316 107.587 2.32942C107.887 2.44778 108.037 2.60955 108.037 2.81473C108.037 2.91731 108.005 3.13432 107.942 3.46575C107.879 3.79718 107.8 4.16807 107.705 4.57841C107.619 4.98875 107.536 5.37148 107.457 5.72658C107.378 6.0738 107.319 6.31842 107.279 6.46047C107.248 6.58673 107.208 6.6972 107.161 6.7919C107.114 6.8787 107.011 6.9221 106.853 6.9221C106.798 6.9221 106.747 6.91421 106.699 6.89843C106.652 6.88265 106.605 6.87081 106.557 6.86292C106.21 6.77611 105.867 6.73271 105.528 6.73271C105.37 6.73271 105.192 6.75639 104.995 6.80373C104.805 6.85108 104.711 6.98523 104.711 7.20619C104.711 7.44292 104.79 7.68755 104.948 7.94007C105.113 8.19259 105.307 8.42932 105.528 8.65028C105.748 8.87123 105.946 9.05273 106.119 9.19477C106.68 9.62879 107.133 10.0115 107.481 10.3429C107.836 10.6744 108.096 11.061 108.262 11.503C108.435 11.937 108.522 12.5328 108.522 13.2903V13.5626C108.522 14.549 108.349 15.3618 108.001 16.0009C107.662 16.6322 107.193 17.1254 106.593 17.4805C105.993 17.8357 105.311 18.0842 104.545 18.2263C103.78 18.3683 102.975 18.4393 102.13 18.4393C101.649 18.4393 101.081 18.4157 100.426 18.3683C99.7788 18.3289 99.2343 18.2184 98.7924 18.0369C98.6898 17.9974 98.6069 17.9501 98.5438 17.8948C98.4886 17.8396 98.4609 17.7488 98.4609 17.6226C98.4609 17.5831 98.4688 17.5318 98.4846 17.4687C98.5635 17.0505 98.6424 16.6362 98.7214 16.2258C98.8003 15.8155 98.8752 15.4052 98.9462 14.9948C98.9778 14.7975 99.0015 14.6003 99.0173 14.403C99.0409 14.1978 99.0804 14.0005 99.1356 13.8111C99.1593 13.7322 99.1988 13.6375 99.254 13.527C99.3171 13.4166 99.4 13.3613 99.5026 13.3613C99.5657 13.3613 99.6249 13.3692 99.6801 13.385C99.7433 13.3929 99.8024 13.4047 99.8577 13.4205C100.205 13.4994 100.544 13.5586 100.876 13.5981C101.207 13.6375 101.55 13.6573 101.905 13.6573C102.087 13.6573 102.261 13.6336 102.426 13.5862C102.592 13.5389 102.675 13.3968 102.675 13.1601C102.675 12.9234 102.616 12.7024 102.497 12.4972C102.395 12.3157 102.272 12.1421 102.13 11.9764C101.996 11.8028 101.854 11.641 101.704 11.4911C101.515 11.2938 101.314 11.1123 101.101 10.9466C100.887 10.7809 100.674 10.6112 100.461 10.4376C99.7906 9.91682 99.3645 9.39205 99.183 8.86334C99.0015 8.32674 98.9028 7.6402 98.8871 6.80373V6.6972C98.8871 5.49774 99.1356 4.55079 99.6328 3.85636C100.13 3.15405 100.809 2.65296 101.669 2.35309C102.529 2.05322 103.499 1.90329 104.581 1.90329Z" fill="url(#paint0_linear_2022_920)"/>
<path d="M96.4126 9.33681C96.4126 10.0786 96.4205 10.8204 96.4363 11.5621C96.4521 12.3039 96.46 13.0457 96.46 13.7875C96.46 15.6892 96.0102 17.2833 95.1106 18.5695C94.211 19.8637 92.83 20.7672 90.9677 21.2802C90.5652 21.3906 90.1312 21.4893 89.6656 21.5761C89.208 21.6629 88.766 21.7063 88.3399 21.7063C88.1584 21.7063 88.0282 21.6708 87.9493 21.5998C87.8783 21.5366 87.8428 21.4104 87.8428 21.221C87.8428 20.7317 87.8625 20.2464 87.902 19.7651C87.9414 19.2837 87.969 18.8023 87.9848 18.321C88.0006 18.0921 88.0006 17.8514 87.9848 17.5989C87.9769 17.3464 87.9927 17.1097 88.0322 16.8887C88.0716 16.7072 88.115 16.5928 88.1624 16.5454C88.2176 16.4902 88.332 16.4428 88.5056 16.4034C88.6477 16.3718 88.7897 16.3521 88.9318 16.3442C89.0738 16.3284 89.2158 16.3048 89.3579 16.2732C90.0444 16.1075 90.5061 15.8037 90.7428 15.3618C90.9795 14.9198 91.0979 14.3714 91.0979 13.7164C91.0979 12.9431 91.1018 12.1698 91.1097 11.3964C91.1176 10.6231 91.1216 9.84974 91.1216 9.0764C91.1216 7.97163 91.1137 6.87081 91.0979 5.77393C91.0821 4.66916 91.0742 3.56833 91.0742 2.47145C91.0742 2.14791 91.232 1.98615 91.5477 1.98615H96.0339C96.3495 1.98615 96.5073 2.13213 96.5073 2.42411C96.5073 3.57622 96.4915 4.72834 96.46 5.88046C96.4284 7.03258 96.4126 8.18469 96.4126 9.33681Z" fill="url(#paint1_linear_2022_920)"/>
<path d="M51.1484 2.48329C51.1484 2.15186 51.3063 1.98615 51.6219 1.98615H62.5828C62.8985 1.98615 63.0563 2.15186 63.0563 2.48329C63.0563 2.86996 63.0444 3.26058 63.0208 3.65514C63.005 4.04181 62.9892 4.43242 62.9734 4.82698C62.9655 5.14263 62.9576 5.45828 62.9498 5.77393C62.9498 6.08169 62.9419 6.39339 62.9261 6.70904C62.9182 7.03258 62.7564 7.19435 62.4408 7.19435H59.742C59.6394 7.19435 59.5881 7.24564 59.5881 7.34823V9.19477C59.5881 10.6231 59.6039 12.0514 59.6354 13.4797C59.667 14.908 59.6828 16.3363 59.6828 17.7646C59.6828 18.0882 59.521 18.2499 59.1975 18.2499H54.7232C54.4154 18.2499 54.2615 18.0882 54.2615 17.7646C54.2615 16.4626 54.2734 15.1605 54.297 13.8585C54.3207 12.5564 54.3325 11.2544 54.3325 9.95233V7.34823C54.3325 7.24564 54.2852 7.19435 54.1905 7.19435H51.764C51.4483 7.19435 51.2865 7.03258 51.2786 6.70904C51.2629 6.39339 51.255 6.08169 51.255 5.77393C51.255 5.45828 51.2471 5.14263 51.2313 4.82698C51.2234 4.43242 51.2076 4.04181 51.1839 3.65514C51.1603 3.26058 51.1484 2.86996 51.1484 2.48329Z" fill="url(#paint2_linear_2022_920)"/>
<path d="M34.2461 17.9303C34.2461 17.8514 34.2698 17.7765 34.3171 17.7054C34.3566 17.6265 34.3921 17.5595 34.4236 17.5042C34.5104 17.3622 34.6801 17.0899 34.9326 16.6875C35.193 16.2771 35.4969 15.7958 35.8441 15.2434C36.1992 14.6831 36.5582 14.1071 36.9212 13.5152C37.2921 12.9155 37.6354 12.3513 37.951 11.8225C38.2746 11.2938 38.535 10.8519 38.7322 10.4968C38.9295 10.1417 39.0282 9.9326 39.0282 9.86947C39.0282 9.81423 38.9335 9.62484 38.7441 9.3013C38.5547 8.96987 38.3101 8.55558 38.0102 8.05843C37.7103 7.56129 37.3828 7.03652 37.0277 6.48414C36.6805 5.92386 36.3412 5.38331 36.0098 4.86249C35.6783 4.33378 35.3903 3.88004 35.1457 3.50126C34.909 3.11459 34.7472 2.85812 34.6604 2.73186C34.6209 2.66873 34.5815 2.60166 34.542 2.53064C34.5026 2.45962 34.4828 2.38465 34.4828 2.30574C34.4828 2.15581 34.5499 2.06506 34.6841 2.03349C34.8182 2.00193 34.9405 1.98615 35.051 1.98615H40.8392C41.0049 1.98615 41.143 2.06111 41.2535 2.21104C41.3245 2.30574 41.4508 2.51091 41.6323 2.82656C41.8217 3.14221 42.0268 3.48548 42.2478 3.85636C42.4687 4.22725 42.67 4.54684 42.8515 4.81515C43.033 5.08345 43.1474 5.2176 43.1947 5.2176C43.2184 5.2176 43.2302 5.21365 43.2302 5.20576C43.4038 4.86644 43.5538 4.50739 43.68 4.12861C43.8142 3.74983 43.9444 3.38289 44.0707 3.02779C44.118 2.90942 44.1614 2.7871 44.2009 2.66084C44.2403 2.52669 44.2877 2.40438 44.3429 2.2939C44.4534 2.08873 44.6033 1.98615 44.7927 1.98615H50.2021C50.3126 1.98615 50.4349 2.00193 50.5691 2.03349C50.7032 2.06506 50.7703 2.15581 50.7703 2.30574C50.7703 2.38465 50.7506 2.45962 50.7111 2.53064C50.6717 2.60166 50.6322 2.66873 50.5927 2.73186C50.5138 2.86602 50.3481 3.13432 50.0956 3.53677C49.8431 3.93133 49.5432 4.40086 49.196 4.94535C48.8567 5.48984 48.5055 6.05407 48.1425 6.63802C47.7795 7.22197 47.4402 7.77435 47.1246 8.29517C46.8168 8.8081 46.5643 9.23817 46.367 9.58538C46.1697 9.92471 46.0711 10.122 46.0711 10.1772C46.0711 10.2325 46.1697 10.4297 46.367 10.7691C46.5643 11.1084 46.8168 11.5345 47.1246 12.0474C47.4402 12.5525 47.7795 13.093 48.1425 13.6691C48.5134 14.2373 48.8685 14.7896 49.2078 15.3262C49.555 15.8628 49.8549 16.3284 50.1074 16.723C50.36 17.1097 50.5296 17.3701 50.6164 17.5042C50.6559 17.5673 50.6953 17.6344 50.7348 17.7054C50.7742 17.7765 50.794 17.8554 50.794 17.9422C50.794 18.0842 50.7269 18.171 50.5927 18.2026C50.4665 18.2342 50.3481 18.2499 50.2376 18.2499H44.3429C44.1851 18.2499 44.047 18.175 43.9286 18.025C43.8576 17.9303 43.7274 17.7252 43.538 17.4095C43.3565 17.086 43.1513 16.7348 42.9225 16.356C42.7015 15.9773 42.5003 15.6498 42.3188 15.3736C42.1373 15.0974 42.0229 14.9593 41.9755 14.9593C41.944 14.9593 41.9124 15.0027 41.8808 15.0895C41.6836 15.5472 41.5139 16.0207 41.3719 16.5099C41.2298 16.9992 41.0562 17.4727 40.851 17.9303C40.7642 18.1434 40.6104 18.2499 40.3894 18.2499H34.8024C34.6919 18.2499 34.5736 18.2342 34.4473 18.2026C34.3132 18.171 34.2461 18.0803 34.2461 17.9303Z" fill="url(#paint3_linear_2022_920)"/>
<path d="M23.6165 1.98615C23.94 1.98615 24.1018 2.14791 24.1018 2.47145C24.1018 4.01024 24.1097 5.54903 24.1255 7.08782C24.1413 8.61871 24.1492 10.1536 24.1492 11.6923C24.1492 12.3473 24.3149 12.8011 24.6463 13.0536C24.9856 13.2982 25.463 13.4205 26.0786 13.4205C26.6388 13.4205 27.1123 13.2864 27.499 13.0181C27.8856 12.7498 28.079 12.3079 28.079 11.6923C28.079 10.1536 28.0869 8.61871 28.1027 7.08782C28.1184 5.54903 28.1263 4.01024 28.1263 2.47145C28.1263 2.14791 28.2881 1.98615 28.6116 1.98615H32.9913C33.3069 1.98615 33.4647 2.15186 33.4647 2.48329C33.4647 2.89363 33.449 3.30792 33.4174 3.72616C33.3858 4.1365 33.3622 4.54684 33.3464 4.95719C33.3148 5.77787 33.2951 6.60251 33.2872 7.43108C33.2793 8.25177 33.2753 9.07246 33.2753 9.89314V11.8462C33.2753 12.8168 33.0781 13.7046 32.6835 14.5095C32.2968 15.3065 31.7642 15.997 31.0855 16.5809C30.4148 17.1649 29.6493 17.6186 28.7892 17.9422C27.9369 18.2578 27.0492 18.4157 26.1259 18.4157C24.7055 18.4157 23.4508 18.1868 22.3618 17.7291C21.2728 17.2714 20.4206 16.5652 19.805 15.6103C19.1895 14.6476 18.8818 13.4087 18.8818 11.8936C18.8818 10.7414 18.8818 9.58538 18.8818 8.42538C18.8818 7.26537 18.8581 6.1093 18.8108 4.95719C18.795 4.54684 18.7713 4.1365 18.7397 3.72616C18.7082 3.30792 18.6924 2.89363 18.6924 2.48329C18.6924 2.15186 18.8502 1.98615 19.1659 1.98615H23.6165Z" fill="url(#paint4_linear_2022_920)"/>
<path d="M16.3954 18.7353C16.3875 18.7432 16.3796 18.7471 16.3717 18.7471C16.3638 18.7471 16.352 18.7432 16.3362 18.7353C16.3204 18.7274 16.3086 18.7234 16.3007 18.7234C14.5173 17.7923 12.7694 16.7901 11.057 15.7169C9.35248 14.6437 7.62431 13.6139 5.87246 12.6275C5.84878 12.6038 5.82117 12.592 5.7896 12.592C5.77382 12.592 5.76198 12.5959 5.75409 12.6038C5.75409 12.6117 5.7462 12.6393 5.73042 12.6866C5.71463 12.734 5.70674 12.7616 5.70674 12.7695C5.70674 13.3929 5.71069 14.0163 5.71858 14.6397C5.72647 15.2631 5.73042 15.8865 5.73042 16.5099C5.73042 16.7151 5.73042 16.9242 5.73042 17.1373C5.73831 17.3504 5.73436 17.5595 5.71858 17.7646C5.69491 18.0882 5.53314 18.25 5.23327 18.25H0.640583C0.324935 18.25 0.16711 18.0842 0.16711 17.7528C0.16711 17.3267 0.186838 16.8966 0.226294 16.4626C0.26575 16.0286 0.29337 15.5985 0.309152 15.1724C0.348608 14.2807 0.376227 13.385 0.39201 12.4854C0.415684 11.5858 0.42752 10.6902 0.42752 9.79846C0.42752 8.8673 0.415684 7.94008 0.39201 7.01681C0.376227 6.08565 0.348608 5.15843 0.309152 4.23516C0.285478 3.79325 0.253914 3.35134 0.214457 2.90943C0.175001 2.45963 0.155273 2.01378 0.155273 1.57187C0.155273 1.53242 0.16711 1.50874 0.190784 1.50085C0.198675 1.50085 0.206566 1.50085 0.214457 1.50085C0.222349 1.49296 0.23024 1.48901 0.238131 1.48901C0.261805 1.48901 0.289424 1.4969 0.320989 1.51269C1.52834 2.14398 2.71203 2.81474 3.87204 3.52495C5.03994 4.23516 6.20389 4.95326 7.3639 5.67925C7.91628 6.01857 8.46867 6.36184 9.02105 6.70905C9.57344 7.04837 10.1337 7.37586 10.7019 7.69151C10.7098 7.69151 10.7216 7.69545 10.7374 7.70335C10.7611 7.71124 10.7768 7.71518 10.7847 7.71518C10.8242 7.71518 10.8439 7.69545 10.8439 7.656C10.8518 7.60865 10.8558 7.57314 10.8558 7.54947V4.16414C10.8558 3.88794 10.8518 3.6078 10.8439 3.32372C10.836 3.03175 10.84 2.74766 10.8558 2.47147C10.8794 2.14793 11.0412 1.98616 11.3411 1.98616H15.8509C16.1665 1.98616 16.3244 2.15188 16.3244 2.48331C16.3244 2.88576 16.3086 3.28821 16.277 3.69066C16.2455 4.09311 16.2218 4.49557 16.206 4.89802C16.1744 5.73449 16.1468 6.57096 16.1231 7.40742C16.1074 8.24389 16.0995 9.08431 16.0995 9.92867C16.0995 10.9151 16.1113 11.9015 16.135 12.8879C16.1587 13.8743 16.1981 14.8607 16.2534 15.8471C16.277 16.3206 16.3046 16.794 16.3362 17.2675C16.3757 17.7331 16.4033 18.2026 16.4191 18.6761L16.3954 18.7353Z" fill="url(#paint5_linear_2022_920)"/>
<path d="M104.58 1.90332C103.649 1.91372 102.715 2.03467 101.833 2.329C101.781 2.34626 101.73 2.36415 101.679 2.38256C100.875 2.66574 100.157 3.18797 99.6777 3.88856C99.1121 4.69732 98.9609 5.71908 98.9671 6.69717C98.9673 6.73266 98.9677 6.76817 98.9679 6.80213C98.9884 7.49169 99.0549 8.18809 99.2739 8.83204C99.4968 9.45199 99.9989 9.94165 100.528 10.3511C100.529 10.3514 100.53 10.3522 100.53 10.3526C100.742 10.5228 100.955 10.6909 101.17 10.8563C101.39 11.025 101.597 11.2101 101.79 11.4088L101.904 11.5253C102.016 11.644 102.122 11.7682 102.223 11.8967L102.276 11.9598C102.399 12.1084 102.51 12.2672 102.606 12.4345C102.734 12.6515 102.804 12.9076 102.803 13.1601C102.803 13.2601 102.794 13.3679 102.742 13.4773C102.693 13.5877 102.577 13.6831 102.462 13.7124C102.281 13.7651 102.092 13.7901 101.905 13.7907C101.556 13.7921 101.207 13.7748 100.859 13.7347C100.511 13.6947 100.167 13.6345 99.826 13.5582C99.8244 13.5579 99.8202 13.5569 99.8186 13.5565C99.7686 13.5424 99.716 13.5324 99.6623 13.5259C99.6579 13.5254 99.6451 13.5228 99.6408 13.5216C99.5975 13.5094 99.5509 13.5036 99.5022 13.5038C99.4541 13.5046 99.4206 13.5273 99.3801 13.5951C99.3375 13.6815 99.2984 13.7697 99.2739 13.8516C99.2205 14.0368 99.1839 14.2272 99.1622 14.4198L99.1494 14.5661C99.1347 14.7174 99.1154 14.8686 99.0915 15.02C99.0213 15.4321 98.947 15.8436 98.8688 16.2543C98.79 16.6684 98.7119 17.0827 98.6344 17.4971C98.6341 17.4988 98.6329 17.504 98.6325 17.5057C98.6214 17.5497 98.6134 17.5958 98.6136 17.6226C98.6122 17.6966 98.6309 17.7623 98.6481 17.7822C98.7002 17.8267 98.7704 17.8641 98.8471 17.8935C98.8478 17.8937 98.8497 17.8945 98.8504 17.8948C99.3444 18.0954 99.8897 18.1795 100.437 18.2135C100.882 18.2454 101.327 18.2698 101.772 18.2797C101.891 18.2823 102.011 18.2838 102.13 18.2838C102.931 18.2839 103.731 18.2198 104.517 18.075C105.22 17.9458 105.904 17.7123 106.516 17.3509C107.089 17.0164 107.558 16.5193 107.873 15.9314C108.26 15.2223 108.38 14.3849 108.385 13.5626C108.385 13.4719 108.385 13.3811 108.386 13.2904C108.385 12.696 108.348 12.0885 108.142 11.5507C108.142 11.5501 108.141 11.5486 108.141 11.5481C107.986 11.1244 107.728 10.7421 107.396 10.4309C106.973 10.0246 106.516 9.64859 106.051 9.28308C106.05 9.2827 106.049 9.2815 106.048 9.28113C105.837 9.10592 105.642 8.91794 105.452 8.72578C105.232 8.50317 105.033 8.25858 104.863 7.99544C104.863 7.99507 104.862 7.99387 104.862 7.99349C104.719 7.76275 104.613 7.49214 104.615 7.20612C104.616 7.10617 104.632 6.9954 104.697 6.89732C104.761 6.79821 104.871 6.73796 104.973 6.71452C105.153 6.67299 105.337 6.64374 105.527 6.6447C105.882 6.6471 106.235 6.69693 106.576 6.78521L106.57 6.78391C106.623 6.79303 106.674 6.80657 106.724 6.8236C106.764 6.83745 106.808 6.84403 106.853 6.84441C106.958 6.84624 107.06 6.82157 107.094 6.75724C107.144 6.65933 107.181 6.55248 107.21 6.44108C107.277 6.20203 107.334 5.95622 107.392 5.71225C107.48 5.33105 107.566 4.94922 107.651 4.566C107.739 4.1977 107.823 3.82825 107.897 3.45725C107.939 3.24316 107.986 3.02479 107.998 2.81473C108.005 2.59133 107.783 2.4418 107.574 2.35892C107.497 2.32476 107.419 2.2942 107.339 2.26676C107.074 2.17593 106.797 2.11787 106.518 2.07789C106.131 2.01428 105.741 1.96834 105.349 1.94734C105.093 1.9285 104.837 1.90834 104.58 1.90332C104.837 1.90263 105.094 1.91714 105.35 1.93043C105.743 1.94295 106.135 1.98077 106.524 2.03647C106.806 2.07088 107.086 2.12356 107.357 2.2106C107.439 2.23691 107.52 2.26646 107.599 2.2995C107.812 2.38004 108.075 2.53593 108.076 2.81473C108.067 3.04375 108.024 3.25638 107.986 3.47417C107.919 3.84807 107.841 4.22004 107.76 4.58985C107.682 4.97384 107.603 5.35759 107.521 5.74109C107.467 5.98743 107.413 6.23296 107.349 6.47794C107.32 6.59583 107.283 6.71306 107.228 6.82533C107.227 6.82578 107.227 6.82717 107.227 6.82772C107.142 6.97864 106.973 6.998 106.853 6.99989C106.794 7.00034 106.733 6.99265 106.674 6.97344C106.631 6.95958 106.588 6.94893 106.544 6.94199C106.543 6.9418 106.539 6.94101 106.538 6.94069C106.206 6.86051 105.866 6.8181 105.527 6.82078C105.357 6.82232 105.185 6.85119 105.017 6.89277C104.868 6.92709 104.803 7.04409 104.806 7.20612C104.807 7.44404 104.9 7.67792 105.033 7.88658L105.032 7.88463C105.197 8.13358 105.39 8.3646 105.603 8.57486C105.792 8.76148 105.986 8.94323 106.19 9.1083L106.187 9.10657C106.66 9.46942 107.126 9.8432 107.563 10.2541C107.922 10.5836 108.209 10.9989 108.382 11.4578L108.381 11.4552C108.614 12.0517 108.652 12.6783 108.658 13.2904C108.659 13.3811 108.659 13.4719 108.659 13.5626C108.661 14.4117 108.545 15.2936 108.129 16.07C107.797 16.7006 107.287 17.2472 106.669 17.6102C106.024 17.9949 105.305 18.2416 104.573 18.3777C103.767 18.5282 102.947 18.5949 102.13 18.595C102.008 18.595 101.886 18.5935 101.765 18.5908C101.313 18.5809 100.863 18.5556 100.416 18.5232C99.8496 18.487 99.2758 18.4002 98.7337 18.179L98.7368 18.1803C98.6367 18.1414 98.535 18.0908 98.4425 18.0103C98.441 18.009 98.4367 18.0049 98.4351 18.0034C98.3143 17.8741 98.3105 17.7339 98.3076 17.6226C98.3088 17.5452 98.3223 17.4885 98.336 17.4316C98.4143 17.0201 98.4933 16.6087 98.5733 16.1975C98.6527 15.7889 98.7284 15.3795 98.8001 14.9714C98.8314 14.7791 98.8551 14.5855 98.8712 14.3914C98.8713 14.3903 98.8715 14.3872 98.8716 14.3862C98.8961 14.1786 98.9372 13.9722 98.997 13.7697C99.0316 13.6573 99.0773 13.5589 99.1253 13.4628C99.1261 13.4614 99.1282 13.4573 99.129 13.4559C99.1861 13.3443 99.3354 13.2112 99.5022 13.2189C99.5694 13.219 99.6386 13.2272 99.7067 13.2455C99.7677 13.2537 99.829 13.2656 99.89 13.2828C100.221 13.3592 100.555 13.4199 100.892 13.4613C101.227 13.5026 101.566 13.5223 101.905 13.5238C102.07 13.5246 102.233 13.5041 102.39 13.46C102.5 13.4341 102.545 13.3216 102.546 13.1601C102.547 12.9495 102.493 12.7431 102.388 12.559C102.288 12.3808 102.17 12.2127 102.037 12.0561C102.036 12.0552 102.034 12.0524 102.033 12.0514C101.905 11.8841 101.768 11.7246 101.62 11.5752C101.619 11.5748 101.618 11.5738 101.618 11.5734C101.435 11.3808 101.239 11.2012 101.03 11.0369C100.923 10.9525 100.816 10.8674 100.709 10.7817L100.394 10.5243C99.8539 10.0947 99.3293 9.58041 99.0913 8.89427C98.871 8.21406 98.816 7.50463 98.8055 6.80365C98.8058 6.76817 98.8061 6.73265 98.8064 6.69717C98.8156 5.70163 98.9861 4.65274 99.5872 3.82438C100.092 3.11359 100.839 2.59363 101.658 2.32357C101.71 2.30603 101.762 2.2892 101.815 2.27283C102.71 1.99397 103.649 1.89306 104.58 1.90332Z" fill="#00DC82"/>
<path d="M91.5477 1.87426C93.0431 1.8838 94.5385 1.89475 96.0339 1.90743C96.1646 1.90924 96.313 1.92998 96.4307 2.03169C96.5495 2.13474 96.5816 2.29302 96.5797 2.42418C96.5695 3.57708 96.5426 4.72977 96.499 5.8816C96.4879 6.17415 96.4778 6.46676 96.4687 6.7594C96.4418 7.61822 96.4231 8.47746 96.4127 9.33685C96.4023 8.47749 96.4012 7.61789 96.4095 6.75832C96.4123 6.46539 96.4162 6.17235 96.4212 5.87943C96.4407 4.72765 96.4454 3.57576 96.4353 2.42418C96.4477 2.18511 96.2703 2.05098 96.0339 2.06486C94.5385 2.07755 93.0431 2.08849 91.5477 2.09804C91.3053 2.09225 91.183 2.22933 91.1912 2.47145C91.1979 3.57175 91.2116 4.67206 91.2322 5.77209C91.253 6.87339 91.2648 7.97489 91.268 9.07642C91.2703 9.85026 91.2682 10.6241 91.2617 11.398C91.2553 12.1708 91.2525 12.9437 91.253 13.7165C91.2528 14.2694 91.1741 14.8415 90.9197 15.3583C90.907 15.3841 90.8937 15.4099 90.8801 15.4353C90.5748 16.0096 89.9587 16.2894 89.3944 16.4236C89.3939 16.4238 89.3922 16.4242 89.3916 16.4243C89.2457 16.4566 89.0979 16.4812 88.949 16.4976C88.9473 16.4978 88.9421 16.4984 88.9404 16.4985C88.8056 16.5058 88.6714 16.5245 88.5398 16.5535C88.4311 16.5766 88.3009 16.622 88.2709 16.6539C88.269 16.6523 88.2394 16.7087 88.225 16.7569C88.2085 16.8072 88.1944 16.8623 88.182 16.9185C88.1425 17.1392 88.1298 17.3664 88.1365 17.5942L88.1447 17.7744C88.1505 17.9595 88.148 18.1454 88.1348 18.3313L88.12 18.6891C88.1028 19.0521 88.0786 19.4148 88.0478 19.777C88.007 20.257 87.9862 20.7389 87.9845 21.221C87.9812 21.339 88.0093 21.4726 88.043 21.4957C88.0928 21.5442 88.2178 21.5686 88.3401 21.5679C88.775 21.5697 89.2109 21.5252 89.6414 21.4456C90.0764 21.3666 90.5085 21.2731 90.9343 21.1587C92.5363 20.7356 94.0782 19.8895 95.034 18.516C96.0079 17.1601 96.4002 15.457 96.411 13.7874C96.4172 13.1635 96.4182 12.5395 96.4138 11.9154C96.413 11.7979 96.412 11.6801 96.4108 11.5626C96.4032 10.8206 96.4038 10.0786 96.4127 9.33685C96.4217 10.0786 96.4382 10.8202 96.4622 11.5615C96.466 11.679 96.4696 11.7967 96.473 11.9143C96.491 12.5385 96.503 13.1629 96.5092 13.7874C96.5318 15.4693 96.1677 17.2127 95.1875 18.6229C94.2231 20.0566 92.6342 20.9532 91.0013 21.4018C90.5685 21.523 90.1303 21.6223 89.6904 21.7065C89.247 21.7927 88.7947 21.8428 88.3401 21.8446C88.1911 21.8411 88.019 21.8392 87.8563 21.7043C87.6914 21.5322 87.71 21.3657 87.7013 21.221C87.6995 20.7314 87.7175 20.2415 87.7562 19.7531C87.7939 19.2748 87.8202 18.7956 87.8349 18.3161C87.8349 18.315 87.8352 18.3118 87.8353 18.3107C87.8508 18.0779 87.8487 17.8429 87.8336 17.6083C87.8335 17.6073 87.8334 17.6047 87.8334 17.6037C87.8252 17.3575 87.8383 17.1084 87.8819 16.8619C87.8821 16.8608 87.8828 16.8574 87.883 16.8563C87.9197 16.7249 87.9149 16.6134 88.0541 16.4369C88.2135 16.3006 88.3401 16.2898 88.4724 16.2532C88.5834 16.2284 88.6961 16.21 88.8096 16.1988L88.9148 16.1908C89.0523 16.1753 89.1891 16.1522 89.3244 16.122C89.8511 15.9961 90.3671 15.7431 90.6057 15.2882C90.6177 15.2659 90.6294 15.2432 90.6407 15.2204C90.8654 14.765 90.9426 14.2392 90.9432 13.7165C90.9437 12.9427 90.9486 12.1687 90.9579 11.395C90.9672 10.6222 90.973 9.84927 90.9753 9.07642C90.9785 7.97625 90.9749 6.87596 90.964 5.77578C90.9532 4.67435 90.9508 3.57286 90.9575 2.47145C90.9588 2.32958 90.9841 2.16031 91.1075 2.03082C91.2324 1.90165 91.4059 1.8734 91.5477 1.87426Z" fill="#00DC82"/>
<path d="M62.583 1.88163C62.7258 1.88036 62.901 1.91189 63.0217 2.04318C63.1408 2.17412 63.1644 2.34102 63.1659 2.48338C63.1683 2.87646 63.1584 3.26967 63.1371 3.66216L63.1373 3.65978C63.1236 4.05044 63.1099 4.44127 63.0963 4.83011C63.0901 5.14576 63.0838 5.46142 63.0775 5.77708L63.077 6.00954C63.0751 6.24501 63.0687 6.48042 63.0579 6.7156V6.71234C63.0544 6.857 63.0256 7.03038 62.8968 7.16404C62.7667 7.29757 62.587 7.32915 62.441 7.32949C61.5414 7.33318 60.6417 7.33635 59.7421 7.33903C59.7392 7.33898 59.7366 7.33953 59.7343 7.33968C59.7342 7.34213 59.7336 7.34492 59.7337 7.34814C59.7354 7.96366 59.7369 8.5793 59.7382 9.19482C59.7413 10.6221 59.7589 12.0494 59.7909 13.4763C59.7976 13.7735 59.8035 14.0708 59.8087 14.3681C59.8285 15.5002 59.8378 16.6325 59.8362 17.7646C59.8356 17.9127 59.8081 18.0969 59.6695 18.2365C59.5295 18.3748 59.3455 18.4018 59.1976 18.402C57.7062 18.3994 56.2148 18.3953 54.7234 18.39C54.5792 18.3901 54.3963 18.3568 54.27 18.2172C54.1459 18.0779 54.125 17.907 54.1245 17.7646C54.1295 16.4617 54.1474 15.1589 54.1782 13.8564C54.209 12.5553 54.2289 11.2538 54.2381 9.95226C54.2442 9.08425 54.251 8.21615 54.258 7.34814C54.2532 7.27888 54.2524 7.27263 54.1906 7.26704C53.3818 7.26037 52.5729 7.25327 51.7641 7.24579C51.6285 7.24493 51.4747 7.2138 51.3694 7.10397C51.2644 6.99457 51.2369 6.84445 51.2348 6.71126C51.2221 6.39896 51.2171 6.08627 51.2202 5.77383C51.222 5.59394 51.2211 5.41401 51.2178 5.23409C51.2154 5.09882 51.2115 4.96349 51.2061 4.8275C51.2024 4.43688 51.1909 4.0462 51.1712 3.65588C51.152 3.26526 51.1442 2.87419 51.1487 2.48338C51.1531 2.87421 51.1694 3.26476 51.197 3.65436C51.2251 4.04451 51.245 4.43539 51.2569 4.82577C51.265 4.9612 51.2718 5.09675 51.277 5.23236C51.284 5.41274 51.2883 5.59326 51.2901 5.77383C51.2932 6.08506 51.3045 6.39629 51.323 6.70801C51.327 6.8319 51.3568 6.95701 51.4377 7.03696C51.5176 7.1179 51.6414 7.14438 51.7641 7.14279C52.5729 7.13531 53.3818 7.12821 54.1906 7.12153C54.2396 7.12082 54.3085 7.1332 54.3552 7.18724C54.4005 7.24076 54.4065 7.30026 54.4075 7.34814C54.4145 8.21615 54.421 9.08425 54.4272 9.95226C54.4364 11.255 54.4329 12.558 54.4163 13.8607C54.3998 15.162 54.394 16.4634 54.399 17.7646C54.3989 18.0017 54.4943 18.1137 54.7234 18.1099C56.2148 18.1046 57.7062 18.1005 59.1976 18.0979C59.4348 18.0973 59.5301 18.0013 59.5298 17.7646C59.5283 16.6342 59.5175 15.5038 59.4977 14.3736C59.4925 14.0768 59.4866 13.78 59.4802 13.4832C59.4491 12.054 59.4353 10.6243 59.4383 9.19482C59.4396 8.5793 59.4411 7.96366 59.4429 7.34814C59.4435 7.2896 59.4526 7.2032 59.5242 7.13021C59.5974 7.05881 59.6837 7.05013 59.7421 7.04976C60.6417 7.05245 61.5414 7.05561 62.441 7.0593C62.6773 7.06466 62.7907 6.94658 62.7945 6.70584C62.7945 6.70516 62.7946 6.70304 62.7947 6.70237C62.8115 6.39313 62.8209 6.08342 62.8224 5.77383C62.8224 5.77313 62.8224 5.77144 62.8224 5.77079C62.8319 5.45518 62.8413 5.13953 62.8509 4.82208C62.8685 4.43153 62.8865 4.04098 62.9046 3.65045C62.9046 3.65001 62.9048 3.64851 62.9048 3.64807C62.9303 3.26036 62.9445 2.87191 62.9469 2.48338C62.9566 2.2359 62.8299 2.08258 62.583 2.09067C59.5841 2.07124 56.5852 2.04615 53.5863 2.01564C52.9315 2.00898 52.2768 2.00201 51.622 1.99482C51.4935 1.99293 51.3552 2.0214 51.2655 2.11843C51.1755 2.21473 51.1502 2.35347 51.1487 2.48338C51.1474 2.35352 51.169 2.21361 51.259 2.11257C51.3489 2.0107 51.4912 1.97833 51.622 1.97747C52.2768 1.97029 52.9315 1.96332 53.5863 1.95666C56.5852 1.92615 59.5841 1.90106 62.583 1.88163Z" fill="#00DC82"/>
<path d="M50.2019 1.83069C50.3421 1.83089 50.4758 1.85202 50.6044 1.88208C50.6868 1.90035 50.788 1.94987 50.8499 2.03995C50.912 2.1291 50.9253 2.22613 50.9255 2.3058C50.926 2.39981 50.9027 2.49679 50.8609 2.57968C50.8565 2.58866 50.8517 2.59744 50.8468 2.60614C50.8079 2.67622 50.7672 2.74573 50.7243 2.81431L50.6029 3.01554C50.4786 3.21891 50.3527 3.41851 50.2262 3.62055C49.9259 4.0896 49.6261 4.55904 49.3272 5.02724C48.9754 5.59096 48.6238 6.15485 48.2724 6.71887C47.9299 7.26873 47.5897 7.82003 47.2537 8.37277C46.997 8.79953 46.7421 9.22759 46.4951 9.65997C46.4398 9.75487 46.3854 9.84991 46.334 9.94491C46.3085 9.99223 46.2834 10.0399 46.2609 10.0863C46.2498 10.1094 46.239 10.1327 46.2304 10.1537C46.2272 10.1598 46.2243 10.1695 46.2219 10.1774C46.2242 10.1852 46.2268 10.1948 46.2299 10.2008C46.2385 10.2219 46.2492 10.2453 46.2603 10.2684C46.2826 10.315 46.3075 10.3628 46.3329 10.4103C46.384 10.5054 46.438 10.6006 46.493 10.6956C46.7405 11.123 46.9931 11.5489 47.2467 11.974L48.2579 13.5936C48.6157 14.1449 48.9698 14.6987 49.3187 15.2542C49.6182 15.7203 49.9171 16.1868 50.2136 16.6535C50.3828 16.9146 50.5517 17.1753 50.7211 17.4387C50.7633 17.5069 50.8036 17.576 50.8421 17.6458C50.8928 17.7367 50.9166 17.8428 50.9158 17.9423C50.9156 18.0173 50.9002 18.1084 50.8412 18.1858C50.7824 18.2636 50.6945 18.3032 50.6217 18.3196C50.4982 18.3499 50.3696 18.3696 50.2375 18.3692C48.2726 18.3616 46.3076 18.3529 44.3427 18.343C44.144 18.3468 43.9629 18.2221 43.8574 18.081C43.8571 18.0807 43.8564 18.0797 43.8561 18.0793C43.709 17.8717 43.5894 17.6642 43.4634 17.4541C43.4631 17.4537 43.4623 17.4524 43.4621 17.452C43.2656 17.0973 43.0618 16.7462 42.8532 16.3963C42.6617 16.0641 42.4652 15.7349 42.2573 15.414C42.2082 15.3385 42.1583 15.2638 42.1061 15.1922C42.0802 15.1567 42.0533 15.1215 42.0259 15.0894C42.0123 15.0735 41.9981 15.0579 41.9847 15.0454C41.9834 15.0436 41.9813 15.0423 41.9793 15.0406C41.9779 15.0427 41.9763 15.0447 41.9754 15.0471C41.9647 15.0657 41.9546 15.0891 41.9457 15.1133C41.9454 15.1141 41.9445 15.1162 41.9442 15.1169C41.7433 15.5752 41.572 16.0466 41.4294 16.5267C41.2849 17.0131 41.1072 17.4897 40.8974 17.9494C40.8276 18.1516 40.6063 18.3114 40.3891 18.2964C39.5815 18.291 38.7739 18.2853 37.9663 18.2794C36.9116 18.2719 35.8569 18.2641 34.8023 18.2558C34.6819 18.2548 34.5624 18.2354 34.4464 18.2055C34.3187 18.1842 34.2365 18.054 34.2458 17.9303C34.2387 18.0545 34.3219 18.1806 34.4477 18.1996C34.5639 18.2277 34.6831 18.245 34.8023 18.2441C35.8569 18.2358 36.9116 18.2281 37.9663 18.2205C38.7739 18.2147 39.5815 18.209 40.3891 18.2036C40.5796 18.2095 40.7401 18.0899 40.8048 17.9097C41.0073 17.45 41.1771 16.9762 41.314 16.4933C41.4347 16.0676 41.5779 15.648 41.7442 15.2375L41.8156 15.0658C41.8259 15.0371 41.8373 15.0086 41.8542 14.9782C41.8745 14.9518 41.8827 14.9013 41.9754 14.889C42.0524 14.9 42.0564 14.9246 42.0808 14.9415C42.1005 14.9597 42.1172 14.978 42.1332 14.9962C42.1651 15.0326 42.1939 15.0697 42.2217 15.1068C42.2773 15.1813 42.3291 15.257 42.38 15.3334C42.5939 15.6551 42.7951 15.984 42.9907 16.3146C43.2032 16.6622 43.412 17.0125 43.6134 17.3672L43.8028 17.6747C43.8667 17.7763 43.9319 17.8757 43.9994 17.9689L44.0348 18.0103C44.1203 18.1022 44.2264 18.1595 44.3427 18.1569C46.3076 18.147 48.2726 18.1383 50.2375 18.1307C50.3449 18.1302 50.4547 18.1131 50.5649 18.0852C50.6505 18.0603 50.668 18.0354 50.6718 17.9423C50.6716 17.8774 50.657 17.8179 50.6272 17.7651C50.59 17.6988 50.5514 17.6336 50.5122 17.5714C50.3427 17.3119 50.1717 17.0521 50.0003 16.7914C49.7003 16.3263 49.3985 15.8623 49.0956 15.3971C48.7433 14.8438 48.3867 14.2931 48.0254 13.7428C47.6836 13.2036 47.3428 12.6637 47.0032 12.1231C47.0029 12.1227 47.0022 12.1215 47.0019 12.121C46.746 11.6964 46.4911 11.271 46.2406 10.8424C46.1842 10.7458 46.1286 10.6489 46.0747 10.5493C46.0478 10.4994 46.0212 10.4489 45.9955 10.396C45.9827 10.3694 45.9698 10.342 45.9576 10.3123C45.9459 10.2769 45.9308 10.2667 45.9235 10.1772C45.9307 10.0876 45.9457 10.0775 45.9574 10.0421C45.9695 10.0123 45.9821 9.98495 45.9949 9.95835C46.0204 9.90529 46.0469 9.85454 46.0736 9.80461C46.1272 9.70474 46.1824 9.60766 46.2377 9.51208C46.4846 9.07647 46.7388 8.64634 46.9954 8.21707C47.331 7.66165 47.6702 7.10847 48.0122 6.5571C48.3625 5.99229 48.7134 5.42782 49.0654 4.86222C49.3648 4.39222 49.6643 3.92248 49.9638 3.45423C50.1307 3.18739 50.2998 2.91913 50.4585 2.65297C50.4589 2.65223 50.4602 2.65024 50.4606 2.64951C50.5002 2.58611 50.5383 2.52117 50.5749 2.45521C50.5775 2.45055 50.5799 2.44579 50.5823 2.44111C50.6039 2.39759 50.6146 2.35328 50.6146 2.3058C50.6149 2.26244 50.6052 2.23171 50.5955 2.21885C50.5865 2.2061 50.5708 2.19389 50.5333 2.1848C50.4214 2.15849 50.3091 2.14172 50.2019 2.14165C48.3988 2.1413 46.5956 2.13988 44.7924 2.13753C44.6582 2.13509 44.5547 2.2184 44.4763 2.36348C44.4227 2.4707 44.3796 2.58521 44.3447 2.70328C44.3445 2.70381 44.3439 2.7052 44.3438 2.70567C44.3038 2.83297 44.259 2.959 44.2091 3.0832L44.2113 3.07778C44.0803 3.44436 43.9494 3.81111 43.8188 4.17785L43.7711 4.31576C43.655 4.64266 43.5183 4.96272 43.3593 5.27184C43.3535 5.28431 43.3468 5.29578 43.3391 5.30415C43.319 5.32748 43.3013 5.33686 43.2886 5.3434C43.2633 5.35537 43.2505 5.35699 43.2394 5.35923C43.2181 5.36269 43.2061 5.36258 43.1945 5.3627C43.1213 5.35822 43.1048 5.33762 43.0841 5.32671C43.0656 5.31434 43.0528 5.30343 43.041 5.29288C43.018 5.27216 42.9999 5.25272 42.9829 5.23368C42.9491 5.19565 42.9196 5.15813 42.8913 5.12092C42.8348 5.04617 42.7829 4.97132 42.732 4.89583C42.5189 4.57887 42.3197 4.25515 42.1261 3.92869C41.9223 3.58473 41.7182 3.24104 41.5135 2.8978C41.5132 2.89738 41.5125 2.89615 41.5122 2.89563C41.3932 2.68959 41.2718 2.47314 41.1436 2.29192C41.0631 2.1812 40.9624 2.12049 40.8389 2.12105C38.9095 2.11543 36.9801 2.10878 35.0508 2.10088C34.9393 2.10044 34.824 2.11728 34.7097 2.1436C34.6225 2.16601 34.5978 2.20323 34.5941 2.3058C34.5937 2.36567 34.6087 2.42287 34.6383 2.47689C34.675 2.54363 34.7132 2.60944 34.753 2.67379L34.8764 2.86332C34.9999 3.05703 35.1167 3.25121 35.2355 3.4462L35.234 3.44403C35.5239 3.89752 35.809 4.35352 36.0921 4.80996C36.4323 5.35042 36.769 5.89322 37.1017 6.43653C37.4338 6.95923 37.7599 7.48584 38.0769 8.018C38.3231 8.43178 38.5677 8.84684 38.8042 9.26596C38.9079 9.46051 39.025 9.60619 39.0939 9.86945C39.0235 10.1487 38.8967 10.3147 38.786 10.5267C38.5329 10.9746 38.2656 11.4134 37.9954 11.8493C37.653 12.4143 37.3051 12.9761 36.9538 13.5355C36.7283 13.8975 36.5011 14.2585 36.2723 14.6184C36.1368 14.8314 36.0008 15.044 35.8642 15.2562C35.5576 15.7359 35.2506 16.2152 34.9419 16.6934C34.7694 16.964 34.5965 17.2345 34.4267 17.5062C34.3886 17.5717 34.3531 17.6388 34.3185 17.7065C34.2736 17.772 34.246 17.8503 34.2458 17.9303C34.2447 17.8503 34.2711 17.771 34.3152 17.7046C34.3487 17.6364 34.383 17.5687 34.4202 17.5023C34.5858 17.2277 34.7545 16.9548 34.9228 16.6815C35.2241 16.1986 35.5241 15.7148 35.8236 15.2306C35.9571 15.0165 36.0899 14.8018 36.2222 14.587C36.4457 14.224 36.6677 13.86 36.8881 13.4949C37.2315 12.9309 37.5715 12.3649 37.9064 11.7955C38.1708 11.3564 38.432 10.915 38.678 10.4669C38.7829 10.27 38.9169 10.0394 38.9621 9.86945C38.9161 9.72361 38.7856 9.5122 38.6832 9.336C38.4423 8.92085 38.1936 8.50925 37.9431 8.09889C37.6211 7.57182 37.2902 7.04992 36.9525 6.53064C36.6136 5.99017 36.272 5.45145 35.9266 4.91448C35.639 4.46074 35.35 4.00809 35.0569 3.55853C35.0566 3.55811 35.0558 3.55682 35.0556 3.55636C34.8959 3.2996 34.7362 3.03902 34.5698 2.79393C34.5692 2.7931 34.5677 2.79085 34.5672 2.79002C34.5246 2.72241 34.484 2.65376 34.4451 2.58445C34.3982 2.50182 34.3707 2.40277 34.371 2.3058C34.3709 2.23127 34.3833 2.14338 34.438 2.06467C34.4923 1.98521 34.5816 1.94078 34.6579 1.9235C34.7841 1.89343 34.9149 1.87216 35.0508 1.87146C36.9801 1.86355 38.9095 1.8569 40.8389 1.85129C41.0469 1.84347 41.2559 1.97458 41.3623 2.12929C41.5141 2.34184 41.6284 2.54713 41.752 2.75771L41.7507 2.75533C41.9575 3.09782 42.1634 3.44085 42.369 3.78405C42.5623 4.10647 42.7607 4.42545 42.9705 4.7345C43.0198 4.807 43.0698 4.87855 43.1212 4.94592C43.1364 4.96579 43.1522 4.98533 43.1676 5.00404C43.3116 4.70562 43.4355 4.39721 43.5399 4.082C43.5401 4.08148 43.5406 4.07992 43.5408 4.0794C43.6701 3.7121 43.7997 3.34491 43.9296 2.97781C43.93 2.97673 43.9313 2.97351 43.9318 2.97239C43.9783 2.85558 44.0199 2.73657 44.0573 2.61611L44.0567 2.6185C44.0956 2.48547 44.1447 2.35378 44.208 2.22665C44.2084 2.22585 44.2095 2.22338 44.21 2.22253C44.302 2.03105 44.5322 1.82341 44.7924 1.83481C46.5956 1.83245 48.3988 1.83104 50.2019 1.83069ZM43.0971 5.15063C43.0894 5.16863 43.0841 5.18877 43.0848 5.20571C43.0848 5.19363 43.0913 5.16759 43.0971 5.15063Z" fill="#00DC82"/>
<path d="M32.9909 1.83763C33.1393 1.83696 33.3286 1.87015 33.4608 2.01479C33.5906 2.15914 33.6131 2.33644 33.6144 2.4834C33.615 2.90194 33.5991 3.32045 33.5682 3.73786C33.5373 4.14578 33.5143 4.55428 33.499 4.96305C33.4682 5.78585 33.4492 6.60914 33.4417 7.43251C33.4344 8.23458 33.4306 9.03677 33.4305 9.83887C33.4305 9.85693 33.4305 9.87502 33.4305 9.89308C33.4305 10.5441 33.4303 11.1952 33.43 11.8462C33.4321 12.7826 33.2394 13.7309 32.8209 14.5763C32.4296 15.3856 31.8653 16.1118 31.1835 16.6941C30.4948 17.2936 29.6929 17.7602 28.8392 18.078C27.9727 18.3983 27.0474 18.5577 26.1255 18.554C24.8306 18.5508 23.5167 18.3572 22.3125 17.8458C21.2549 17.4054 20.3206 16.6442 19.709 15.6716C18.9948 14.5436 18.7797 13.1907 18.7857 11.8935C18.7914 10.7375 18.7977 9.58147 18.8043 8.42546C18.8109 7.27012 18.7944 6.11446 18.7544 4.95936C18.7413 4.54925 18.7203 4.13933 18.6916 3.72984C18.663 3.31499 18.6498 2.89908 18.6527 2.4834C18.654 2.34901 18.6782 2.19997 18.7787 2.09069C18.8796 1.98083 19.0317 1.95094 19.1656 1.95234C19.3639 1.95375 19.5621 1.95524 19.7604 1.95667C21.0456 1.96601 22.3309 1.9758 23.6162 1.98617C22.3309 1.99654 21.0456 2.00632 19.7604 2.01566C19.5621 2.0171 19.3639 2.01858 19.1656 2.01999C19.0401 2.02035 18.9113 2.05132 18.8327 2.14034C18.7532 2.22841 18.7305 2.35804 18.7315 2.4834C18.7343 2.89703 18.7533 3.31043 18.7872 3.72247C18.8215 4.13267 18.8479 4.54363 18.8663 4.95481C18.9213 6.11069 18.9519 7.26802 18.9585 8.42546C18.9651 9.58147 18.9714 10.7375 18.9771 11.8935C18.9835 13.1696 19.2104 14.4806 19.9003 15.5487C20.4966 16.4781 21.3902 17.1951 22.4105 17.6124C23.5783 18.0989 24.8571 18.281 26.1255 18.2773C27.0165 18.276 27.9054 18.1182 28.7379 17.8065C29.5599 17.4965 30.3272 17.0457 30.9875 16.4675C31.6389 15.9074 32.1732 15.2159 32.5457 14.4421C32.9404 13.6402 33.1224 12.7432 33.1199 11.8462C33.1197 11.1952 33.1195 10.5441 33.1195 9.89308C33.1195 9.87501 33.1195 9.85694 33.1195 9.83887C33.1197 9.03581 33.1237 8.2327 33.1319 7.42969C33.1402 6.60337 33.1604 5.77708 33.193 4.95134C33.2093 4.53865 33.2337 4.12616 33.2659 3.71466C33.2973 3.30492 33.3138 2.89414 33.3145 2.4834C33.3147 2.2427 33.2249 2.13365 32.9909 2.13471C31.531 2.13222 30.0711 2.12921 28.6112 2.12538C28.3715 2.12188 28.261 2.23073 28.263 2.47147C28.2587 4.01073 28.2457 5.54995 28.2242 7.08903C28.2026 8.6233 28.1883 10.1578 28.181 11.6923C28.1867 12.2018 28.0187 12.7902 27.5528 13.0961C27.1205 13.3964 26.5881 13.5125 26.0782 13.5077C25.573 13.5029 25.0339 13.4299 24.598 13.1165C24.1559 12.7703 24.0781 12.1888 24.0785 11.6923C24.0876 10.1577 24.0897 8.62289 24.0846 7.08816C24.0828 6.572 24.0822 6.0558 24.0824 5.53965C24.0828 4.51689 24.0871 3.49415 24.0952 2.47147C24.0963 2.34249 24.071 2.20393 23.9779 2.10977C23.8853 2.01508 23.746 1.98702 23.6162 1.98617C23.7459 1.98501 23.8864 2.01031 23.9824 2.10522C24.0789 2.19971 24.1069 2.34093 24.1078 2.47147C24.1158 3.49411 24.1272 4.5167 24.1416 5.53922C24.1488 6.05528 24.1568 6.57148 24.1657 7.08751C24.1921 8.62226 24.2098 10.1572 24.219 11.6923C24.2222 12.1744 24.3155 12.7068 24.6922 12.9895C25.0831 13.2654 25.5909 13.3346 26.0782 13.3332C26.5644 13.3323 27.0535 13.2173 27.4444 12.94C27.8389 12.6745 27.9842 12.173 27.9763 11.6923C27.9691 10.1571 27.9704 8.62185 27.9804 7.08664C27.9904 5.54827 27.9932 4.00982 27.9889 2.47147C27.9889 2.32535 28.0156 2.14552 28.1496 2.0098C28.2848 1.87527 28.4648 1.84764 28.6112 1.84695C30.0711 1.84312 31.531 1.84011 32.9909 1.83763Z" fill="#00DC82"/>
<path d="M0.238532 1.33344C0.309904 1.33488 0.353285 1.3557 0.390976 1.37355C0.391502 1.37382 0.392834 1.37458 0.393362 1.37485C1.60231 2.00701 2.78977 2.68043 3.95227 3.39349C5.1208 4.1054 6.28458 4.82529 7.44221 5.55242C7.99623 5.89399 8.54836 6.2386 9.09741 6.58527C9.62999 6.91391 10.1698 7.23098 10.7157 7.53701C10.7185 6.41273 10.7218 5.28845 10.7253 4.16416C10.7262 3.88526 10.723 3.60619 10.7162 3.32713C10.7093 3.03973 10.7136 2.7518 10.7311 2.46234C10.7427 2.32051 10.7773 2.15848 10.8977 2.02995C11.019 1.90004 11.1967 1.86175 11.3413 1.86341C12.8446 1.8688 14.3481 1.87492 15.8513 1.88163C15.9942 1.88172 16.1686 1.91512 16.287 2.04621C16.4038 2.17683 16.4256 2.34203 16.4258 2.48338C16.4239 2.88886 16.4061 3.29425 16.3724 3.69816C16.3391 4.09869 16.3132 4.49998 16.2955 4.90145C16.2596 5.73731 16.2277 6.57338 16.1994 7.40886C16.1789 8.24858 16.1661 9.08855 16.161 9.92863C16.155 10.9146 16.1606 11.9008 16.1777 12.8869C16.1885 13.5088 16.2053 14.1307 16.2284 14.7524C16.242 15.1169 16.2577 15.4814 16.2755 15.846C16.2958 16.3197 16.32 16.7933 16.3479 17.2665C16.3841 17.7357 16.4079 18.2058 16.4199 18.6763C16.4119 18.6959 16.4039 18.7156 16.3959 18.7352C16.4036 18.7155 16.4111 18.6956 16.4188 18.676C16.3995 18.2061 16.3686 17.7367 16.3254 17.2683C16.2903 16.7952 16.259 16.3218 16.2319 15.8483C16.2089 15.4841 16.1881 15.1196 16.1695 14.755C16.1376 14.1333 16.1122 13.5111 16.0931 12.8888C16.0629 11.9024 16.0447 10.9156 16.0387 9.92863C16.0336 9.08779 16.0366 8.24676 16.0478 7.40517C16.0668 6.56824 16.0899 5.73138 16.1172 4.89451C16.131 4.4904 16.1528 4.08652 16.1825 3.6832C16.2118 3.28391 16.2258 2.88357 16.2239 2.48338C16.2315 2.23328 16.0973 2.07862 15.8513 2.09067C14.3481 2.09738 12.8446 2.1035 11.3413 2.10888C11.1097 2.10306 10.9935 2.24218 10.9814 2.47861C10.9664 2.7586 10.964 3.03953 10.9725 3.32019C10.9812 3.60136 10.9862 3.88274 10.987 4.16416C10.9905 5.29257 10.9936 6.42097 10.9963 7.54937C10.9955 7.60187 10.9895 7.63593 10.9838 7.67254C10.9817 7.70612 10.9728 7.75455 10.9289 7.79983C10.8755 7.8516 10.8178 7.85546 10.7851 7.856C10.7397 7.85374 10.7377 7.84916 10.7235 7.84624C10.7121 7.84306 10.7024 7.83997 10.6932 7.83691C10.6893 7.83561 10.6784 7.83113 10.6748 7.82932C10.6737 7.82692 10.6606 7.82678 10.681 7.82954C10.6638 7.82603 10.6431 7.82002 10.6338 7.81479C10.0639 7.49996 9.50087 7.17254 8.9441 6.83204C8.39322 6.48731 7.84074 6.14515 7.28543 5.80527C6.12547 5.08192 4.96099 4.36564 3.79201 3.65609C2.65389 2.96056 1.49289 2.30256 0.31161 1.68321C0.314652 2.08785 0.334253 2.49246 0.369508 2.89561C0.408951 3.33874 0.44063 3.78262 0.464271 4.22857C0.503436 5.15673 0.530228 6.0854 0.544938 7.01289C0.567739 7.94125 0.578105 8.86995 0.576598 9.79852C0.575142 10.6956 0.56154 11.5925 0.536047 12.4879C0.518381 13.385 0.488726 14.2821 0.446706 15.1774C0.42951 15.6106 0.400235 16.0432 0.35975 16.4746C0.319852 16.8995 0.298445 17.3261 0.297081 17.7527C0.292365 17.9969 0.400759 18.1276 0.641002 18.1229C2.17187 18.128 3.70275 18.1337 5.23362 18.1402C5.46902 18.1509 5.60081 17.9992 5.61288 17.7564C5.62952 17.5521 5.63386 17.3466 5.6272 17.1412C5.62717 17.1404 5.62719 17.1381 5.6272 17.1373C5.62814 16.9282 5.62905 16.7191 5.63002 16.51C5.6329 15.887 5.63197 15.2639 5.6272 14.6409C5.62241 14.0172 5.62169 13.3933 5.62503 12.7695C5.6304 12.7189 5.63465 12.7228 5.63934 12.7036C5.64395 12.6889 5.64869 12.6749 5.65344 12.6609C5.65793 12.6476 5.66223 12.6344 5.66623 12.6217C5.66973 12.6133 5.67552 12.5822 5.67339 12.6039C5.67347 12.5878 5.68561 12.5577 5.69702 12.5464C5.73047 12.514 5.76775 12.5113 5.79005 12.5111C5.83681 12.5099 5.88793 12.5321 5.92081 12.562C7.66686 13.5578 9.38761 14.5976 11.0809 15.6794C11.687 16.0649 12.2984 16.442 12.915 16.8107C14.0275 17.4759 15.1567 18.1137 16.3011 18.7227C16.3141 18.7234 16.3256 18.7293 16.3369 18.7348C16.348 18.7403 16.3595 18.7462 16.372 18.747C16.3811 18.7471 16.3895 18.7415 16.3959 18.7352C16.3896 18.7416 16.3813 18.7473 16.372 18.7474C16.3657 18.7471 16.3597 18.7454 16.3538 18.7433L16.3191 18.7281C16.3132 18.7259 16.307 18.7245 16.3007 18.7242C15.1466 18.133 14.0076 17.5117 12.8851 16.8617C12.2629 16.5014 11.6458 16.1322 11.0339 15.7542C9.32485 14.6939 7.59074 13.6745 5.83342 12.6976C5.82972 12.6955 5.82054 12.6885 5.81672 12.685C5.81382 12.6942 5.81123 12.7035 5.80826 12.7125C5.80392 12.7258 5.79953 12.739 5.79569 12.7518C5.79364 12.7569 5.79057 12.7706 5.78918 12.7754C5.79253 13.3965 5.79969 14.0176 5.81065 14.6386C5.82166 15.2623 5.82858 15.8861 5.83147 16.51C5.83243 16.7191 5.83356 16.9282 5.8345 17.1373L5.83884 17.2932C5.84109 17.453 5.83676 17.613 5.82518 17.7724C5.81486 17.9122 5.78149 18.0704 5.6658 18.1953C5.54934 18.3216 5.37653 18.3603 5.23362 18.3597C3.70275 18.3661 2.17187 18.3719 0.641002 18.377C0.495312 18.3779 0.312995 18.3454 0.186489 18.2072C0.0620477 18.0694 0.0390361 17.8974 0.0377315 17.7527C0.0363573 17.318 0.0555873 16.8834 0.0936782 16.4505C0.131233 16.0235 0.157647 15.5956 0.172394 15.1664C0.209558 14.2723 0.234926 13.3776 0.248724 12.4816C0.27033 11.5874 0.280538 10.6929 0.279083 9.79852C0.277577 8.87246 0.2646 7.94638 0.239834 7.0194C0.223132 6.09319 0.195015 5.16709 0.155046 4.24331C0.131206 3.80277 0.0994479 3.3626 0.0600668 2.92293C0.0205457 2.47388 4.3688e-07 2.02284 0 1.57175C0.00043301 1.54632 0.00119484 1.51657 0.017131 1.47374C0.0301597 1.43213 0.0835588 1.3694 0.142035 1.35317C0.147215 1.35146 0.157367 1.34934 0.167406 1.34775C0.186631 1.33967 0.210148 1.33394 0.238532 1.33344ZM0.311393 1.62054C0.311394 1.6209 0.311392 1.62126 0.311393 1.62163C0.31796 1.61683 0.322454 1.61289 0.324838 1.61078C0.321362 1.61426 0.316435 1.61707 0.311393 1.62054Z" fill="#00DC82"/>
<defs>
<linearGradient id="paint0_linear_2022_920" x1="58.8942" y1="1.7807" x2="58.3521" y2="23.2928" gradientUnits="userSpaceOnUse">
<stop stop-color="white"/>
<stop offset="1" stop-color="#AEFFDE"/>
</linearGradient>
<linearGradient id="paint1_linear_2022_920" x1="58.8937" y1="1.7807" x2="58.3516" y2="23.2928" gradientUnits="userSpaceOnUse">
<stop stop-color="white"/>
<stop offset="1" stop-color="#AEFFDE"/>
</linearGradient>
<linearGradient id="paint2_linear_2022_920" x1="58.8935" y1="1.7807" x2="58.3514" y2="23.2928" gradientUnits="userSpaceOnUse">
<stop stop-color="white"/>
<stop offset="1" stop-color="#AEFFDE"/>
</linearGradient>
<linearGradient id="paint3_linear_2022_920" x1="58.8941" y1="1.7807" x2="58.352" y2="23.2928" gradientUnits="userSpaceOnUse">
<stop stop-color="white"/>
<stop offset="1" stop-color="#AEFFDE"/>
</linearGradient>
<linearGradient id="paint4_linear_2022_920" x1="58.894" y1="1.7807" x2="58.3519" y2="23.2928" gradientUnits="userSpaceOnUse">
<stop stop-color="white"/>
<stop offset="1" stop-color="#AEFFDE"/>
</linearGradient>
<linearGradient id="paint5_linear_2022_920" x1="58.8934" y1="1.78071" x2="58.3512" y2="23.2928" gradientUnits="userSpaceOnUse">
<stop stop-color="white"/>
<stop offset="1" stop-color="#AEFFDE"/>
</linearGradient>
</defs>
</svg>
