<svg width="132" height="28" viewBox="0 0 132 28" fill="none" xmlns="http://www.w3.org/2000/svg">
<path d="M131.16 16.9539L131.575 18.9135C131.327 19.0852 130.97 19.2425 130.502 19.3856C130.035 19.5286 129.573 19.6001 129.115 19.6001C128.266 19.6001 127.551 19.3379 126.969 18.8134C126.397 18.2794 126.111 17.4641 126.111 16.3674V13.8356H124.767V11.547H126.111V9.93062L128.543 9.40137V11.547H131.189V13.8356H128.543V16.2244C128.543 16.9682 128.877 17.3401 129.544 17.3401C129.811 17.3401 130.35 17.2114 131.16 16.9539Z" fill="white"/>
<path d="M121.336 8.40039H123.768V19.4145H121.336V18.5705C120.764 19.2571 120.02 19.6004 119.105 19.6004C118.094 19.6004 117.25 19.2142 116.573 18.4418C115.896 17.6694 115.558 16.6824 115.558 15.4809C115.558 14.2793 115.896 13.2924 116.573 12.5199C117.26 11.7475 118.099 11.3613 119.091 11.3613C120.035 11.3613 120.783 11.7189 121.336 12.4341V8.40039ZM118.49 16.7968C118.805 17.1211 119.2 17.2832 119.677 17.2832C120.154 17.2832 120.55 17.1211 120.864 16.7968C121.179 16.4631 121.336 16.0244 121.336 15.4809C121.336 14.9469 121.179 14.513 120.864 14.1792C120.55 13.8455 120.154 13.6786 119.677 13.6786C119.2 13.6786 118.805 13.8455 118.49 14.1792C118.175 14.513 118.018 14.9469 118.018 15.4809C118.018 16.0244 118.175 16.4631 118.49 16.7968Z" fill="white"/>
<path d="M110.441 19.6004C109.249 19.6004 108.262 19.2095 107.48 18.4275C106.707 17.636 106.321 16.6538 106.321 15.4809C106.321 14.308 106.707 13.3305 107.48 12.5486C108.262 11.7571 109.254 11.3613 110.455 11.3613C111.475 11.3613 112.362 11.6569 113.116 12.2482C113.869 12.8299 114.303 13.6309 114.417 14.6513H111.914C111.742 13.9551 111.256 13.6071 110.455 13.6071C109.931 13.6071 109.521 13.7787 109.225 14.122C108.929 14.4653 108.782 14.9183 108.782 15.4809C108.782 16.0435 108.929 16.4965 109.225 16.8398C109.53 17.1831 109.935 17.3547 110.441 17.3547C110.794 17.3547 111.104 17.2689 111.371 17.0972C111.647 16.9161 111.828 16.649 111.914 16.2962H114.417C114.293 17.3356 113.85 18.1462 113.087 18.7279C112.334 19.3096 111.452 19.6004 110.441 19.6004Z" fill="white"/>
<path d="M101.222 11.3613C102.51 11.3613 103.54 11.8095 104.312 12.7059C105.084 13.5928 105.409 14.6894 105.285 15.9958H99.5488C99.606 16.568 99.792 17.0019 100.107 17.2975C100.431 17.5836 100.822 17.7266 101.28 17.7266C101.613 17.7266 101.904 17.6503 102.152 17.4977C102.4 17.3356 102.572 17.1163 102.667 16.8398H105.17C104.913 17.7648 104.426 18.4561 103.711 18.9138C103.006 19.3716 102.195 19.6004 101.28 19.6004C100.04 19.6004 99.0291 19.2095 98.2471 18.4275C97.4652 17.6456 97.0742 16.6633 97.0742 15.4809C97.0742 14.308 97.4604 13.3305 98.2328 12.5486C99.0148 11.7571 100.011 11.3613 101.222 11.3613ZM101.208 13.2352C100.378 13.2352 99.8492 13.6643 99.6203 14.5225H102.753C102.667 14.1315 102.491 13.8216 102.224 13.5928C101.966 13.3544 101.628 13.2352 101.208 13.2352Z" fill="white"/>
<path d="M92.084 17.0969H96.1463V19.4142H89.6523V9.40137H92.084V17.0969Z" fill="white"/>
<path d="M85.1228 17.1974C85.4089 16.9304 85.7617 16.7969 86.1813 16.7969C86.6009 16.7969 86.949 16.9304 87.2255 17.1974C87.5116 17.4549 87.6546 17.7886 87.6546 18.1987C87.6546 18.6087 87.5116 18.9472 87.2255 19.2143C86.949 19.4717 86.6009 19.6005 86.1813 19.6005C85.7617 19.6005 85.4089 19.4717 85.1228 19.2143C84.8463 18.9472 84.708 18.6087 84.708 18.1987C84.708 17.7886 84.8463 17.4549 85.1228 17.1974Z" fill="white"/>
<path d="M80.3033 11.3613C81.152 11.3613 81.8243 11.6474 82.3202 12.2196C82.816 12.7822 83.064 13.5403 83.064 14.4939V19.4145H80.6323V15.0375C80.6323 14.5797 80.5465 14.2412 80.3748 14.0219C80.2032 13.793 79.898 13.6786 79.4594 13.6786C78.5439 13.6786 78.0862 14.1983 78.0862 15.2377V19.4145H75.6545V15.0375C75.6545 14.5797 75.5687 14.2412 75.3971 14.0219C75.2254 13.793 74.9203 13.6786 74.4816 13.6786C73.5662 13.6786 73.1084 14.1983 73.1084 15.2377V19.4145H70.6768V11.5473H73.1084V12.4341C73.6901 11.7189 74.4339 11.3613 75.3398 11.3613C76.4365 11.3613 77.2232 11.8191 77.7 12.7345C78.3294 11.8191 79.1971 11.3613 80.3033 11.3613Z" fill="white"/>
<path d="M66.814 11.5473H69.2456L69.2313 19.4145H66.7996V18.5706C66.237 19.2571 65.498 19.6004 64.5825 19.6004C63.5717 19.6004 62.7278 19.2142 62.0507 18.4418C61.3737 17.6694 61.0352 16.6824 61.0352 15.4809C61.0352 14.2793 61.3737 13.2924 62.0507 12.52C62.7373 11.7475 63.5765 11.3613 64.5682 11.3613C65.5123 11.3613 66.2609 11.7189 66.814 12.4341V11.5473ZM63.9675 16.7969C64.2822 17.1211 64.6779 17.2832 65.1547 17.2832C65.6315 17.2832 66.0272 17.1211 66.3419 16.7969C66.6566 16.4631 66.814 16.0244 66.814 15.4809C66.814 14.9469 66.6566 14.513 66.3419 14.1792C66.0272 13.8455 65.6315 13.6786 65.1547 13.6786C64.6779 13.6786 64.2822 13.8455 63.9675 14.1792C63.6528 14.513 63.4954 14.9469 63.4954 15.4809C63.4954 16.0244 63.6528 16.4631 63.9675 16.7969Z" fill="white"/>
<path d="M55.9353 11.3613C57.2226 11.3613 58.2525 11.8095 59.0249 12.7059C59.7973 13.5928 60.1215 14.6894 59.9976 15.9958H54.2617C54.3189 16.568 54.5049 17.0019 54.8195 17.2975C55.1438 17.5836 55.5347 17.7266 55.9925 17.7266C56.3262 17.7266 56.6171 17.6503 56.865 17.4977C57.1129 17.3356 57.2846 17.1163 57.38 16.8398H59.8831C59.6257 17.7648 59.1393 18.4561 58.4241 18.9138C57.7185 19.3716 56.9079 19.6004 55.9925 19.6004C54.7528 19.6004 53.742 19.2095 52.96 18.4275C52.1781 17.6456 51.7871 16.6633 51.7871 15.4809C51.7871 14.308 52.1733 13.3305 52.9457 12.5486C53.7277 11.7571 54.7242 11.3613 55.9353 11.3613ZM55.9209 13.2352C55.0913 13.2352 54.5621 13.6643 54.3332 14.5225H57.4658C57.38 14.1315 57.2035 13.8216 56.9365 13.5928C56.6791 13.3544 56.3405 13.2352 55.9209 13.2352Z" fill="white"/>
<path d="M52.0094 9.40137V11.7186H49.2773V19.4142H46.8457V11.7186H44.1279V9.40137H52.0094Z" fill="white"/>
<path d="M19.205 0L0 7.02735L8.59593 24.2415L36.288 28.0001L19.205 0ZM22.7016 15.1116L10.4701 8.40269L17.1232 5.96836L22.7018 15.1118L22.7016 15.1116ZM8.35127 12.8162L23.9941 21.3965L11.81 19.7428L8.35127 12.8165V12.8162Z" fill="url(#paint0_linear_2032_2084)"/>
<defs>
<linearGradient id="paint0_linear_2032_2084" x1="3.31061e-07" y1="8.00004" x2="36.3031" y2="27.9731" gradientUnits="userSpaceOnUse">
<stop stop-color="#00007D"/>
<stop offset="0.668326" stop-color="#0000FF"/>
<stop offset="1" stop-color="#00C8FF"/>
</linearGradient>
</defs>
</svg>
