<svg width="327" height="24" viewBox="0 0 327 24" fill="none" xmlns="http://www.w3.org/2000/svg">
<path d="M128.482 4.01465H119.291V19.027H128.482V4.01465Z" fill="#014B2D"/>
<path d="M120.239 11.523C120.238 10.0775 120.566 8.6506 121.197 7.35039C121.829 6.05017 122.748 4.91069 123.885 4.01818C122.477 2.91133 120.786 2.22305 119.005 2.032C117.223 1.84095 115.425 2.15483 113.813 2.93778C112.202 3.72072 110.844 4.94114 109.894 6.45955C108.943 7.97796 108.439 9.7331 108.439 11.5244C108.439 13.3156 108.943 15.0708 109.894 16.5892C110.844 18.1076 112.202 19.328 113.813 20.111C115.425 20.8939 117.223 21.2078 119.005 21.0167C120.786 20.8257 122.477 20.1374 123.885 19.0306C122.748 18.1378 121.828 16.9979 121.197 15.6972C120.565 14.3965 120.237 12.9691 120.239 11.523Z" fill="#00DC82"/>
<path d="M138.42 17.4386V17.131H138.553V17.0674H138.237V17.131H138.362V17.4386H138.42ZM139.033 17.4386V17.0674H138.937L138.826 17.3326L138.715 17.0674H138.619V17.4386H138.688V17.1575L138.792 17.3989H138.863L138.967 17.1575V17.4386H139.033Z" fill="#00DC82"/>
<path d="M139.332 11.5229C139.332 13.3143 138.828 15.0696 137.877 16.588C136.927 18.1065 135.568 19.3269 133.957 20.1097C132.346 20.8925 130.547 21.2062 128.766 21.0149C126.984 20.8236 125.293 20.1349 123.885 19.0278C125.021 18.1345 125.94 16.9947 126.572 15.6944C127.204 14.3941 127.533 12.9673 127.533 11.5216C127.533 10.0759 127.204 8.64905 126.572 7.34877C125.94 6.04848 125.021 4.90868 123.885 4.01538C125.293 2.90819 126.984 2.21957 128.766 2.02824C130.547 1.83692 132.346 2.1506 133.957 2.93343C135.568 3.71626 136.927 4.93666 137.877 6.45512C138.828 7.97358 139.332 9.72883 139.332 11.5202V11.5229Z" fill="#007B49"/>
<path d="M69.474 17.6664L71.4365 6.15046H74.5755L72.6116 17.6664H69.474ZM83.9519 6.39871C83.3301 6.16541 82.3555 5.91504 81.1386 5.91504C78.037 5.91504 75.8522 7.47689 75.8337 9.71542C75.8161 11.3702 77.3934 12.2933 78.5839 12.8442C79.8058 13.4086 80.2165 13.7686 80.2107 14.2727C80.203 15.0445 79.235 15.3972 78.3328 15.3972C77.0765 15.3972 76.409 15.2227 75.3782 14.7927L74.9737 14.6097L74.5331 17.1877C75.2663 17.5091 76.6221 17.7876 78.0297 17.802C81.3292 17.802 83.4711 16.2581 83.4956 13.8676C83.5073 12.5576 82.6711 11.5606 80.8601 10.7387C79.763 10.206 79.0911 9.85048 79.0982 9.3111C79.0982 8.83243 79.6669 8.32052 80.8958 8.32052C81.9222 8.30464 82.6658 8.52847 83.2452 8.76172L83.5264 8.89467L83.9519 6.39871ZM92.0293 6.15029H89.6038C88.8524 6.15029 88.2901 6.35542 87.9601 7.10528L83.2985 17.6588H86.5946C86.5946 17.6588 87.1334 16.2397 87.2553 15.9282C87.6156 15.9282 90.8176 15.9332 91.2754 15.9332C91.3693 16.3363 91.6572 17.6588 91.6572 17.6588H94.57L92.0293 6.14993V6.15029ZM88.181 13.5866C88.4406 12.9231 89.4317 10.3674 89.4317 10.3674C89.4131 10.3981 89.6893 9.70065 89.8478 9.26828L90.0599 10.2612C90.0599 10.2612 90.661 13.0101 90.7866 13.5866H88.181ZM66.8093 6.15029L63.7362 14.0036L63.4087 12.4077C62.8366 10.568 61.0542 8.57483 59.0615 7.57695L61.8714 17.6481L65.1926 17.6443L70.1342 6.15017H66.8093" fill="#00DC82"/>
<path d="M60.8691 6.14965H55.8076L55.7676 6.38925C59.7053 7.34248 62.3109 9.64607 63.3927 12.4137L62.292 7.12164C62.102 6.39249 61.551 6.17489 60.8693 6.14941" fill="#00DC82"/>
<path d="M18.2836 20.7363L0 20.7429V20.6989C0 20.6747 0.0291613 20.5178 0.0647675 20.3502C0.100438 20.1826 0.155825 19.916 0.187986 19.7578C0.220019 19.5996 0.274895 19.3308 0.3098 19.1603C0.395688 18.7438 0.480556 18.3271 0.56434 17.9101C0.59733 17.7458 0.65227 17.4769 0.6866 17.3127C0.730374 17.1025 0.773638 16.8923 0.816582 16.682C0.85372 16.4995 0.910192 16.2206 0.942097 16.0623C0.974002 15.9041 1.02467 15.6601 1.05472 15.5202C1.08471 15.3803 1.12306 15.1911 1.13978 15.0997C1.15656 15.0085 1.21087 14.7395 1.26045 14.5023C1.30218 14.3034 1.34276 14.1042 1.38201 13.9048C1.3993 13.8136 1.45424 13.5446 1.50414 13.3074C1.55398 13.0701 1.60873 12.8012 1.62583 12.7099C1.64293 12.6187 1.698 12.3498 1.74815 12.1124C1.79843 11.8751 1.85267 11.6113 1.86862 11.5261C1.88471 11.4409 1.92861 11.2218 1.96625 11.0393C2.00384 10.8567 2.07505 10.5132 2.12444 10.2759C2.17389 10.0385 2.25838 9.62524 2.31217 9.35736C2.36609 9.08968 2.43048 8.77107 2.4553 8.64932C2.52823 8.29147 2.60181 7.93369 2.67615 7.57616C2.71277 7.39953 2.77231 7.11079 2.80849 6.93429C2.84473 6.75779 2.9005 6.48398 2.93247 6.32579C2.96444 6.16761 3.019 5.90375 3.05371 5.73938C3.08843 5.57513 3.14815 5.28626 3.18644 5.09763C3.22472 4.90895 3.28885 4.6202 3.32893 4.45589C3.369 4.29158 3.42566 4.09243 3.45489 4.01337C3.48405 3.93418 3.56464 3.76278 3.63394 3.63223L3.75997 3.39504L3.87451 3.24496C3.93742 3.16252 4.04992 3.03215 4.12439 2.95533C4.19885 2.8785 4.32443 2.76287 4.40362 2.69842C4.48268 2.63391 4.59722 2.54687 4.65803 2.50501C4.71891 2.46316 4.83843 2.38984 4.92361 2.34211C5.0088 2.29438 5.12838 2.23191 5.18919 2.20325C5.25007 2.1746 5.37456 2.12222 5.46581 2.08693C5.55706 2.05171 5.73133 1.99255 5.85301 1.95561C5.9747 1.9186 6.2032 1.86283 6.36075 1.83175C6.5183 1.80061 6.76716 1.75901 6.91399 1.73929L7.18078 1.70343L25.4759 1.69654L43.771 1.68945V1.73348C43.771 1.75767 43.7416 1.91458 43.7058 2.08214C43.6606 2.29418 43.6162 2.50635 43.5726 2.71878C43.535 2.90134 43.4806 3.16526 43.4513 3.3052C43.4098 3.50429 43.3686 3.70344 43.3279 3.90265C43.2894 4.09134 43.2302 4.38015 43.1963 4.5444C43.1624 4.70871 43.1075 4.97761 43.0743 5.14185C43.0411 5.30623 42.9858 5.57506 42.9516 5.73931C42.9116 5.931 42.8722 6.12281 42.8333 6.31475C42.8026 6.46688 42.7469 6.74069 42.7097 6.92325C42.6725 7.10575 42.6127 7.39462 42.5768 7.56499C42.5409 7.73536 42.4863 7.99929 42.4554 8.15141C42.4245 8.30353 42.3689 8.57734 42.3318 8.75984C42.2946 8.9424 42.235 9.23127 42.1991 9.40171C42.1632 9.57209 42.1099 9.83096 42.0804 9.97703C41.9985 10.3828 41.916 10.7886 41.8332 11.1941C41.8032 11.3401 41.7498 11.5991 41.7145 11.7695C41.6692 11.9869 41.6244 12.2045 41.58 12.4222C41.5414 12.6109 41.4861 12.8797 41.4573 13.0198C41.4283 13.1596 41.3742 13.4235 41.337 13.6061C41.2933 13.8201 41.2495 14.0339 41.2053 14.2478C41.1702 14.4182 41.115 14.6871 41.0827 14.8454C41.0506 15.0036 40.9945 15.2774 40.9583 15.4538C40.9221 15.6303 40.8628 15.9191 40.8267 16.0956C40.7906 16.2721 40.7365 16.536 40.7065 16.682C40.6655 16.8811 40.6249 17.0802 40.5845 17.2794C40.5409 17.4927 40.4962 17.7059 40.4503 17.9187L40.3837 18.2261L40.3043 18.4387C40.2607 18.5557 40.195 18.7111 40.1584 18.7842C40.122 18.8572 40.0475 18.986 39.993 19.0705C39.9385 19.1549 39.8626 19.2631 39.8243 19.3109C39.7859 19.3587 39.6707 19.4821 39.5679 19.5852L39.3814 19.7725L39.2018 19.9001C39.103 19.9704 38.9965 20.0418 38.9654 20.0588C38.9341 20.0759 38.8151 20.1367 38.7008 20.1937C38.5867 20.2509 38.4254 20.3237 38.3424 20.3554C38.2595 20.3873 38.0951 20.4413 37.9773 20.4756C37.8594 20.51 37.7331 20.5438 37.6967 20.5508C37.6601 20.5578 37.5334 20.584 37.415 20.6091C37.2966 20.6342 37.0576 20.6716 36.884 20.6923L36.5681 20.7299L18.2845 20.7363H18.2836ZM11.7788 16.007H12.2545L12.2679 15.972C12.2754 15.9527 12.2814 15.9074 12.2814 15.8714C12.2814 15.8353 12.2971 15.7043 12.3163 15.5801C12.3355 15.4558 12.3804 15.17 12.4162 14.9449C12.452 14.7197 12.5056 14.3811 12.5354 14.1925C12.5636 14.0138 12.5905 13.8349 12.6161 13.6558C12.6307 13.5493 12.6485 13.4622 12.6557 13.4622C12.6629 13.4622 12.6936 13.5093 12.7241 13.5668L12.7793 13.6714L12.902 13.7951L13.0247 13.9187L13.1756 13.9792L13.3267 14.0396L13.5066 14.0629L13.6866 14.0862L13.915 14.0722L14.1435 14.0581L14.3908 13.9941L14.6382 13.93L14.7709 13.8695C14.844 13.8362 14.9734 13.7635 15.0586 13.708L15.2135 13.6071L15.3579 13.4627C15.4373 13.3835 15.5494 13.2561 15.6068 13.1798C15.6644 13.1037 15.7114 13.0357 15.7114 13.029C15.7114 13.0222 15.7397 12.975 15.7742 12.924C15.8087 12.8732 15.8793 12.7318 15.9311 12.6102C15.983 12.4885 16.0639 12.2695 16.1111 12.1234L16.1969 11.8578L16.2412 11.6279C16.2656 11.5014 16.297 11.2922 16.311 11.1631L16.3363 10.9284L16.3216 10.7293L16.307 10.5301L16.2607 10.331L16.2146 10.1318L16.1398 9.98277L16.0651 9.83358L15.9207 9.68056L15.7764 9.52755L15.6055 9.43923L15.4347 9.35098L15.2466 9.30587L15.0585 9.26088L14.8704 9.2471L14.6823 9.23325L14.4728 9.25731L14.2632 9.28143L14.0923 9.32514L13.9213 9.36879L13.7727 9.43757C13.691 9.47535 13.572 9.53961 13.5085 9.58025C13.4449 9.62103 13.3792 9.66774 13.3626 9.68426C13.3461 9.70079 13.3063 9.73148 13.2744 9.75229L13.2163 9.79038L13.2569 9.59595C13.2793 9.48907 13.2979 9.3892 13.2984 9.37389L13.2993 9.34626H12.4879L12.4168 9.79434C12.3776 10.0408 12.3159 10.4217 12.2795 10.6408C12.1993 11.1241 12.1181 11.6073 12.036 12.0902C11.9998 12.3032 11.94 12.6418 11.9031 12.8426C11.8661 13.0434 11.8121 13.3372 11.7829 13.4955C11.7537 13.6537 11.6987 13.9524 11.6608 14.1592C11.6161 14.4027 11.5709 14.6462 11.5252 14.8895C11.482 15.1183 11.4379 15.3469 11.3929 15.5754C11.3567 15.7579 11.3217 15.9298 11.315 15.9571L11.3029 16.0069H11.7788V16.007ZM13.8271 13.4485L13.6424 13.4597L13.5216 13.4382L13.4008 13.4169L13.2782 13.361L13.1555 13.3049L13.0698 13.2231L12.9841 13.1414L12.9347 13.0307C12.9074 12.9699 12.8725 12.8665 12.857 12.8009L12.8288 12.6819L12.8401 12.4912L12.8515 12.3006L12.9085 12.0017C12.9515 11.7734 12.9932 11.5447 13.0335 11.3158C13.071 11.1028 13.1278 10.7907 13.1596 10.6222L13.2175 10.3159L13.3444 10.2104C13.4142 10.1524 13.5247 10.0745 13.59 10.0375L13.7087 9.97013L13.8636 9.92221L14.0185 9.87423L14.2177 9.86249L14.4168 9.85081L14.579 9.8854L14.7412 9.91992L14.8556 9.97262L14.9701 10.0253L15.066 10.1218L15.1621 10.2183L15.2137 10.3205C15.2423 10.3767 15.2823 10.4867 15.3026 10.5649L15.3397 10.7071L15.3284 11.1277L15.317 11.5482L15.2602 11.7967C15.2289 11.9334 15.1695 12.1425 15.128 12.2613L15.0526 12.4776L14.9602 12.6525C14.9094 12.7488 14.8311 12.8789 14.7862 12.9415C14.7413 13.0042 14.6696 13.0856 14.627 13.1221C14.5754 13.166 14.5226 13.2084 14.4685 13.2492L14.3874 13.3097L14.1996 13.3736L14.0118 13.4375L13.8271 13.4485ZM18.4221 14.0569L18.6656 14.0597L18.9089 14.0375C19.0429 14.0253 19.2619 13.9998 19.3957 13.9809C19.5297 13.9621 19.7609 13.9198 19.9097 13.8871L20.1802 13.8276L20.1938 13.7278C20.2011 13.6731 20.2315 13.5098 20.2613 13.365L20.3153 13.1018L20.3033 13.09L20.2914 13.078L20.2087 13.1179C20.1632 13.1399 20.0215 13.1923 19.8939 13.2344L19.6617 13.3107L19.4181 13.358L19.1745 13.4052L18.7873 13.406L18.4 13.4067L18.2672 13.3643C18.1942 13.341 18.0868 13.2984 18.0286 13.2695L17.9227 13.2171L17.8353 13.1382L17.7479 13.0592L17.6797 12.9401L17.6115 12.8208L17.5687 12.6714L17.526 12.5218L17.5257 12.2451L17.5254 11.9684L17.5633 11.7217L17.6014 11.4748L17.9344 11.4592L18.2673 11.4436L19.4983 11.4516L20.7292 11.4595L20.7663 11.3019C20.7868 11.2151 20.8181 11.0359 20.8358 10.9036L20.8681 10.6629L20.8688 10.4605L20.8696 10.258L20.8346 10.1069L20.7994 9.95571L20.7415 9.85572C20.7097 9.80072 20.6534 9.72095 20.6167 9.67846C20.5799 9.63602 20.5143 9.5761 20.4708 9.54548C20.4273 9.51485 20.3419 9.46316 20.2811 9.43081L20.1705 9.37198L19.9772 9.32539L19.7839 9.27888L19.5458 9.2561L19.3075 9.23338L19.0863 9.2478L18.865 9.26216L18.5994 9.31321L18.3339 9.36425L18.1679 9.43055C18.0765 9.46693 17.9372 9.53361 17.8581 9.57847C17.779 9.62332 17.6695 9.69632 17.6148 9.74061C17.5599 9.78502 17.465 9.87136 17.404 9.93242C17.3428 9.99349 17.2524 10.1032 17.2031 10.1762C17.1537 10.2493 17.078 10.3787 17.0348 10.4638C16.9916 10.5491 16.9354 10.6686 16.9098 10.7294C16.8844 10.7902 16.8378 10.9147 16.8066 11.006C16.7754 11.0973 16.7262 11.2715 16.6976 11.3933C16.6638 11.5408 16.6345 11.6892 16.61 11.8385L16.5746 12.0625L16.575 12.3917L16.5754 12.721L16.609 12.8648C16.6274 12.944 16.6629 13.0635 16.6875 13.1304C16.7121 13.1973 16.758 13.2969 16.7892 13.3517C16.8204 13.4065 16.8869 13.4946 16.9371 13.5477C16.9872 13.6006 17.0781 13.6812 17.139 13.7264C17.1997 13.7716 17.3081 13.8355 17.3796 13.868L17.5097 13.9272L17.6911 13.9711C17.7909 13.9952 17.9415 14.0238 18.0257 14.0347C18.1098 14.0452 18.2883 14.0554 18.4221 14.0569ZM18.8389 10.9395C18.2263 10.9395 17.7251 10.9352 17.7251 10.9298C17.7251 10.9245 17.7512 10.8473 17.7832 10.7583C17.8151 10.6693 17.8713 10.537 17.9078 10.4642L17.9745 10.3316L18.1208 10.1861L18.2672 10.0404L18.4111 9.97167C18.4902 9.93383 18.5947 9.89267 18.6434 9.8801C18.6922 9.86759 18.8315 9.851 18.9532 9.84328L19.1745 9.82905L19.3445 9.85094L19.5144 9.87276L19.6379 9.9293L19.7615 9.9859L19.8292 10.059C19.8664 10.0991 19.9108 10.1583 19.9279 10.1903L19.9587 10.2488L19.9791 10.3785L19.9996 10.5081L19.9762 10.7239L19.9528 10.9397H18.8389V10.9395ZM25.4592 14.057L25.7028 14.0597L25.9792 14.0269C26.1313 14.0089 26.3337 13.979 26.4291 13.9605C26.5443 13.9373 26.6587 13.9101 26.772 13.8791C26.8653 13.8527 26.9498 13.8242 26.9596 13.8157C26.9695 13.8072 26.9958 13.7069 27.0182 13.5926C27.0406 13.4783 27.0687 13.3251 27.0808 13.252C27.0928 13.179 27.099 13.1154 27.0946 13.1106C27.0901 13.1058 27.0739 13.112 27.0584 13.1242C27.0429 13.1366 26.9343 13.1823 26.8171 13.2258L26.604 13.3049L26.3006 13.3637L25.9971 13.4225L25.7391 13.4137L25.4812 13.4049L25.3346 13.354L25.188 13.3031L25.0748 13.2042L24.9617 13.1051L24.8865 12.9682L24.8114 12.8315L24.7755 12.6484L24.7398 12.4654L24.7401 12.228L24.7403 11.9906L24.7837 11.7029L24.8272 11.4151L24.8732 11.2602C24.8985 11.175 24.9272 11.0755 24.9369 11.039C24.9466 11.0024 24.9871 10.8979 25.027 10.8065C25.0669 10.7153 25.1381 10.5742 25.1852 10.4931L25.2708 10.3455L25.3761 10.2365L25.4812 10.1274L25.5926 10.0584L25.7041 9.98928L25.8471 9.94518C25.9258 9.921 26.0649 9.88948 26.1562 9.87538L26.3222 9.84947L26.5655 9.86166L26.8089 9.87385L27.0966 9.9314L27.3843 9.98889L27.5013 10.0326C27.5656 10.0565 27.621 10.0763 27.6246 10.0763C27.628 10.0763 27.6434 9.99413 27.6588 9.89369C27.6743 9.79338 27.7017 9.62811 27.7198 9.52665C27.738 9.42507 27.7485 9.33765 27.7431 9.33235C27.7378 9.32699 27.6513 9.31327 27.551 9.30178C27.4506 9.29043 27.1778 9.27013 26.9449 9.25667L26.5213 9.23236L26.2224 9.2552L25.9238 9.27817L25.7024 9.32463L25.4811 9.37115L25.3386 9.42813C25.2602 9.45946 25.1455 9.51606 25.0835 9.5539C25.0241 9.59002 24.9657 9.62766 24.9083 9.66684C24.8739 9.69122 24.7695 9.78617 24.6762 9.87799L24.5068 10.0447L24.4121 10.1833C24.3601 10.2596 24.2701 10.4185 24.2121 10.5366L24.1067 10.7512L24.0258 10.9835C23.9814 11.1113 23.9193 11.3204 23.888 11.4482L23.8309 11.6806L23.8102 11.8909L23.7895 12.1011L23.7897 12.3777L23.7899 12.6543L23.8108 12.8152L23.8317 12.9761L23.898 13.1416L23.9642 13.3072L24.0408 13.4268L24.1173 13.5465L24.239 13.6663L24.3608 13.7861L24.4895 13.8542L24.6184 13.9222L24.7875 13.9692C24.8805 13.995 25.0149 14.0246 25.0862 14.0351C25.1576 14.0455 25.3254 14.0552 25.4594 14.0567H25.4592V14.057ZM29.0992 14.0488L29.3979 14.0402L29.586 13.9921L29.7741 13.9439L29.8959 13.8864C29.9628 13.8548 30.0723 13.7923 30.1392 13.7476C30.2062 13.7029 30.3099 13.6179 30.3695 13.5588C30.4292 13.4996 30.5177 13.3986 30.5662 13.3343C30.6146 13.2701 30.6573 13.2205 30.6608 13.2241C30.6645 13.2277 30.6533 13.3299 30.636 13.4514C30.6188 13.5729 30.6045 13.7346 30.6043 13.8107L30.6039 13.9489H31.4161L31.4285 13.6337L31.4409 13.3183L31.4988 12.9089C31.5307 12.6837 31.5822 12.3501 31.6133 12.1676C31.6442 11.9851 31.6982 11.6765 31.7332 11.4817C31.7681 11.2869 31.8234 10.9832 31.856 10.8067L31.9155 10.4859L31.9175 10.2087L31.9194 9.93153L31.8568 9.80346L31.7942 9.67533L31.7093 9.59378L31.6242 9.51217L31.4848 9.44159L31.3452 9.37089L31.1372 9.32456L30.9292 9.27824L30.643 9.25654L30.3567 9.23472L29.988 9.25756C29.785 9.27007 29.4997 9.29483 29.3536 9.31257L29.088 9.34479L28.9071 9.34549L28.7261 9.3462L28.6998 9.4735C28.6853 9.54343 28.645 9.70966 28.6104 9.84296C28.5756 9.9762 28.5505 10.0884 28.5544 10.0923C28.5583 10.0962 28.6551 10.0743 28.7694 10.0435C28.8838 10.0127 29.1268 9.96216 29.3094 9.93096L29.6413 9.87442L29.94 9.86217L30.2388 9.84985L30.4313 9.88361L30.6238 9.9173L30.7522 9.98066L30.8806 10.0441L30.9525 10.1513L31.0245 10.2585L31.0235 10.4274L31.0224 10.5964L30.9842 10.7818L30.9461 10.9673L30.1498 10.9702L29.3536 10.973L29.093 11.0444C28.9497 11.0838 28.791 11.136 28.7403 11.1603C28.6897 11.1849 28.639 11.2049 28.6277 11.2049C28.6165 11.2049 28.5312 11.2521 28.4383 11.31L28.2693 11.4149L28.1363 11.5478C28.063 11.6209 27.9695 11.7304 27.9284 11.7913C27.8873 11.8521 27.8205 11.9792 27.7801 12.0738L27.7064 12.2456L27.6727 12.4388L27.6389 12.6321V13.0376L27.6711 13.2064L27.7034 13.3753L27.7633 13.4853C27.7963 13.5458 27.8568 13.6346 27.8977 13.6824L27.9722 13.7695L28.1045 13.8499L28.2368 13.9303L28.3884 13.9731C28.4717 13.9966 28.5985 14.0252 28.6702 14.0366L28.8005 14.0571L29.0993 14.0486H29.0992V14.0488ZM29.3758 13.4299L29.1988 13.4393L29.0815 13.4093C29.0171 13.3929 28.9192 13.3564 28.8641 13.328L28.764 13.2765L28.7093 13.2115C28.6792 13.1756 28.6333 13.1055 28.6072 13.0554L28.5598 12.9642L28.5505 12.7516L28.5411 12.5388L28.5787 12.4098C28.5993 12.3389 28.6477 12.2156 28.6863 12.1361L28.7564 11.9915L28.8906 11.8583L29.0247 11.725L29.1672 11.6565L29.3095 11.588L29.4865 11.5459L29.6636 11.5038H30.77L30.8051 11.5183L30.84 11.5327L30.8106 11.7065C30.7944 11.8019 30.7558 11.9747 30.7247 12.0903C30.6937 12.206 30.6389 12.3759 30.603 12.468C30.5671 12.5601 30.5377 12.6416 30.5377 12.649C30.5377 12.6564 30.5013 12.7235 30.4568 12.7981L30.376 12.9339L30.2433 13.0654C30.1704 13.1376 30.1026 13.1968 30.0928 13.1968C30.083 13.1968 30.0383 13.2218 29.9934 13.2522L29.9119 13.3074L29.7324 13.3643L29.553 13.421L29.3758 13.4299ZM36.5788 14.0567L36.7889 14.0594L36.9882 14.027C37.0977 14.0093 37.2371 13.9806 37.298 13.9634C37.3588 13.9461 37.4684 13.9015 37.5413 13.8641L37.6741 13.7961L37.7883 13.6955L37.9025 13.595L38.0228 13.4346C38.089 13.3463 38.1489 13.2592 38.156 13.2409L38.1688 13.2077L38.1576 13.3183C38.1497 13.3924 38.1395 13.4662 38.1271 13.5397C38.1163 13.6005 38.1011 13.7175 38.093 13.7997L38.0784 13.949H38.9466V13.6503L39.0127 13.0859C39.049 12.7756 39.1028 12.3624 39.1322 12.1676C39.1615 11.9728 39.2069 11.6941 39.233 11.548C39.2589 11.402 39.3051 11.138 39.3354 10.9616C39.3657 10.7852 39.4205 10.4764 39.4571 10.2757C39.4937 10.0748 39.5523 9.75611 39.5874 9.56755C39.6223 9.37887 39.6768 9.08502 39.7083 8.91471C39.7398 8.7444 39.7961 8.44551 39.8336 8.25089C39.8728 8.04772 39.9134 7.84486 39.9552 7.64233C39.9847 7.50246 40.0088 7.38039 40.0087 7.37126V7.35461H39.0615L39.0475 7.49295C39.0399 7.56901 39.0035 7.82042 38.967 8.05174C38.9235 8.32478 38.8793 8.5977 38.8343 8.87043C38.808 9.02778 38.7821 9.18514 38.7564 9.34256L38.7445 9.41626L38.7072 9.40044C38.6867 9.39169 38.5752 9.36075 38.4596 9.33171L38.2494 9.27894L37.9618 9.25648L37.674 9.23408L37.4306 9.25667L37.1872 9.27939L36.966 9.33535L36.7447 9.39125L36.5345 9.49379L36.3241 9.59633L36.1692 9.71087L36.0144 9.82554L35.8805 9.96911C35.807 10.0479 35.7007 10.1785 35.6443 10.259L35.542 10.4056L35.4216 10.6558C35.3555 10.7935 35.275 10.9759 35.2428 11.061C35.2105 11.1463 35.1537 11.3351 35.1163 11.4807L35.0486 11.7455L35.0153 12.0893L34.982 12.4331L35.007 12.7096L35.0322 12.9863L35.0617 13.0859C35.0781 13.1406 35.1124 13.2383 35.138 13.3026L35.1848 13.42L35.2699 13.5353L35.3552 13.6507L35.4524 13.7303L35.5496 13.81L35.6824 13.876C35.7555 13.9121 35.8779 13.9591 35.9547 13.98C36.0313 14.001 36.1558 14.0263 36.2313 14.0361C36.3068 14.046 36.4631 14.0553 36.5788 14.0567ZM36.9561 13.429L36.7889 13.4377L36.6763 13.4175C36.6142 13.4063 36.515 13.3763 36.4557 13.3509L36.3479 13.3048L36.2572 13.2304L36.1665 13.1561L36.0991 13.027L36.0316 12.898L36.0009 12.7542L35.9703 12.6103L35.9729 12.3226L35.9754 12.035L36.0112 11.7804L36.0468 11.526L36.1023 11.3491C36.1329 11.2517 36.1579 11.1598 36.158 11.1448C36.1583 11.13 36.1883 11.0504 36.225 10.9679C36.2679 10.8725 36.3132 10.7782 36.3609 10.6852C36.3991 10.6121 36.4705 10.4984 36.5194 10.4322C36.5684 10.3661 36.6558 10.2665 36.7135 10.2108C36.7711 10.1554 36.8628 10.0823 36.9174 10.0488L37.0164 9.98787L37.1904 9.9277L37.3644 9.86746L37.7296 9.86727H38.0947L38.3049 9.92566C38.4206 9.95769 38.5434 9.99489 38.5777 10.0083L38.6403 10.0327L38.6282 10.0934C38.6215 10.1268 38.5951 10.2736 38.5697 10.4196C38.5443 10.5657 38.4942 10.8445 38.4584 11.0393C38.4226 11.234 38.3676 11.5278 38.3361 11.6921C38.3047 11.8563 38.2592 12.0655 38.235 12.1567C38.2101 12.2505 38.1848 12.3441 38.1591 12.4376C38.1415 12.5009 38.0997 12.6105 38.0663 12.6811C38.0328 12.7516 37.9742 12.8543 37.936 12.909C37.8978 12.9637 37.8334 13.0397 37.7927 13.0776C37.7519 13.1157 37.6638 13.1831 37.5969 13.2275L37.4752 13.3085L37.2993 13.3643L37.1234 13.4202L36.9561 13.429ZM4.3885 13.949H4.9261L4.96471 13.7111C4.98589 13.5803 5.02737 13.3288 5.05679 13.1524L5.17847 12.4221C5.21599 12.1969 5.27227 11.8633 5.30348 11.6808C5.33468 11.4983 5.38432 11.2151 5.41368 11.0516C5.44309 10.8879 5.47276 10.7485 5.47953 10.7417L5.49197 10.7294H8.38341L8.39949 10.7454L8.41557 10.7615L8.39043 10.8893C8.37671 10.9596 8.33594 11.1763 8.29989 11.3711C8.26383 11.5658 8.20321 11.8944 8.16512 12.1014C8.12511 12.3191 8.0844 12.5367 8.04299 12.7541C8.01376 12.9062 7.95467 13.2249 7.91166 13.4622C7.86872 13.6995 7.83362 13.9062 7.83375 13.9214L7.83401 13.949H8.91374L8.93761 13.8108C8.95082 13.7348 8.97187 13.5978 8.98464 13.5065C8.99727 13.4152 9.02796 13.2209 9.05266 13.075C9.07735 12.929 9.12668 12.6401 9.16235 12.4332C9.19795 12.2263 9.25768 11.8728 9.29495 11.6476C9.33221 11.4224 9.38747 11.0938 9.41785 10.9174C9.45626 10.6959 9.49627 10.4746 9.53781 10.2536C9.57348 10.0649 9.63295 9.74629 9.66996 9.54535C9.70697 9.3446 9.76229 9.04093 9.79305 8.87043C9.82381 8.70005 9.87983 8.39134 9.91761 8.18446C9.95538 7.97759 10.0031 7.73619 10.0235 7.64782L10.0608 7.4874H8.96753L8.95267 7.59256C8.94456 7.65024 8.91815 7.81213 8.89403 7.95213C8.86984 8.09207 8.82607 8.34099 8.79659 8.5053C8.76711 8.66968 8.71325 8.98331 8.67688 9.20243C8.64121 9.41703 8.60688 9.63181 8.57389 9.84692L8.53701 10.093L7.73459 10.1092L6.93211 10.1254L6.26006 10.1095C5.8904 10.1008 5.5859 10.0918 5.58335 10.0897C5.58086 10.0875 5.59343 10.0016 5.6113 9.8986C5.63484 9.76581 5.65992 9.63334 5.68653 9.50113C5.72048 9.33165 5.75347 9.16198 5.78544 8.99205C5.81638 8.8278 5.85135 8.62373 5.86329 8.53848C5.87515 8.45336 5.9001 8.31138 5.91867 8.22313C5.93724 8.13495 5.97247 7.94907 5.99697 7.81015C6.02141 7.67117 6.04751 7.5417 6.05497 7.52249L6.06837 7.48733H4.98391L4.94926 7.681C4.93012 7.7875 4.90466 7.9393 4.89266 8.01843C4.8806 8.09749 4.84021 8.35146 4.80288 8.5827C4.76555 8.81395 4.71042 9.15751 4.68037 9.34613L4.55894 10.1096C4.51625 10.3755 4.4712 10.641 4.42391 10.9062C4.38454 11.1239 4.34441 11.3415 4.3035 11.559C4.27472 11.7111 4.21991 11.9999 4.18162 12.2008C4.14149 12.4112 4.10008 12.6215 4.05751 12.8315C4.02752 12.9775 3.99441 13.1467 3.98394 13.2076C3.97335 13.2684 3.93915 13.444 3.90775 13.5977C3.87642 13.7513 3.85077 13.8932 3.85077 13.913V13.9488H4.3885V13.949ZM10.3406 13.949H10.8166L10.83 13.914C10.8374 13.8947 10.8434 13.8442 10.8434 13.8018C10.8434 13.7593 10.8734 13.5385 10.9099 13.3112C10.9935 12.7932 11.079 12.2756 11.1667 11.7582C11.2043 11.5403 11.2438 11.3227 11.2853 11.1055C11.3205 10.923 11.3747 10.6391 11.4055 10.4749C11.4364 10.3106 11.4971 9.99796 11.5404 9.78011C11.5838 9.56239 11.6246 9.37549 11.6312 9.36483L11.6432 9.34537L11.1619 9.3513L10.6806 9.35724L10.6404 9.64502C10.6184 9.80321 10.5702 10.117 10.5333 10.342C10.4965 10.5671 10.4407 10.9108 10.4094 11.1055C10.3715 11.3382 10.331 11.5706 10.2882 11.8026C10.2527 11.9912 10.1985 12.2799 10.1676 12.4443C10.1367 12.6086 10.0812 12.8974 10.0443 13.0861C10.0075 13.2747 9.958 13.5237 9.93439 13.6393C9.91072 13.755 9.88538 13.872 9.87798 13.8993L9.86465 13.949H10.3406V13.949ZM21.473 13.949H21.9454L21.9596 13.7491C21.9674 13.6392 21.9941 13.4176 22.019 13.2567C22.0439 13.0958 22.0949 12.7751 22.1322 12.5439C22.1794 12.258 22.2309 11.9728 22.2865 11.6884C22.3341 11.4493 22.3878 11.2115 22.4059 11.1601C22.424 11.1088 22.4389 11.0531 22.4389 11.0365C22.4389 11.0197 22.4744 10.9288 22.5178 10.8345C22.5612 10.7401 22.642 10.5957 22.6976 10.5134L22.7984 10.3638L22.9334 10.2388L23.0684 10.1138L23.2348 10.0343L23.4013 9.95476L23.6559 9.9561L23.9102 9.95744L24.0353 9.99477C24.1041 10.0153 24.1664 10.0322 24.1736 10.0322C24.1809 10.0322 24.1868 10.0087 24.1868 9.9799C24.1868 9.95125 24.2118 9.8055 24.2422 9.65606C24.2726 9.50668 24.2975 9.37817 24.2975 9.37044C24.2975 9.36272 24.2253 9.33446 24.1371 9.30766C24.0488 9.28085 23.9268 9.25278 23.866 9.24518L23.7553 9.23153L23.6115 9.25693C23.5324 9.27096 23.4148 9.30178 23.3502 9.32559C23.2854 9.34939 23.1786 9.40324 23.1128 9.44536C23.0471 9.48747 22.9446 9.56953 22.8854 9.62766C22.8259 9.68586 22.7261 9.80321 22.6635 9.88839C22.6147 9.95457 22.5662 10.021 22.518 10.0875L22.4863 10.1318L22.5056 10.0433C22.5161 9.99451 22.5456 9.83518 22.571 9.68918C22.5964 9.54311 22.6226 9.40611 22.629 9.38493L22.6408 9.34613H21.7969V9.39954C21.7969 9.42883 21.7719 9.60559 21.7416 9.79223C21.7111 9.97907 21.6609 10.291 21.6301 10.4858C21.5992 10.6805 21.5443 11.0191 21.5082 11.2382C21.4697 11.4708 21.4291 11.7032 21.3863 11.9352C21.303 12.3781 21.2178 12.8207 21.1307 13.2629C21.0934 13.4516 21.0488 13.6743 21.0317 13.7581C21.0144 13.8417 21.0003 13.9189 21.0003 13.9295V13.949H21.473ZM32.6883 13.949H33.1713V13.6533L33.2269 13.2866C33.2576 13.085 33.3081 12.7656 33.3393 12.577C33.3704 12.3884 33.4092 12.1495 33.4254 12.0459C33.4418 11.9425 33.485 11.7185 33.5213 11.5481C33.5579 11.3776 33.6034 11.1934 33.6226 11.1387C33.6419 11.0839 33.6576 11.0264 33.6578 11.0109C33.6581 10.9955 33.6992 10.8961 33.7494 10.79L33.8406 10.5972L33.961 10.4373L34.0813 10.2775L34.2129 10.1785C34.2852 10.124 34.4017 10.0519 34.4717 10.018L34.5987 9.95641L34.8753 9.95827L35.1519 9.96024L35.2608 9.99515L35.3697 10.0302L35.3881 10.0188L35.4064 10.0074L35.4075 9.93683C35.4079 9.89803 35.4316 9.7535 35.46 9.61567L35.5118 9.36515L35.4536 9.34243C35.3978 9.32182 35.3415 9.30261 35.2847 9.28487L35.1742 9.24997L34.975 9.25054L34.7759 9.25105L34.6135 9.30823L34.4512 9.36528L34.3293 9.43879L34.2075 9.5123L34.0491 9.67827L33.8906 9.84424L33.8055 9.97301C33.7587 10.0438 33.7175 10.0986 33.7139 10.0947C33.7103 10.0908 33.7358 9.94327 33.7705 9.76684C33.8051 9.59027 33.8339 9.42347 33.8345 9.3961L33.8354 9.34626H33.0167V9.36043C33.0167 9.36815 32.9963 9.51013 32.9713 9.67571C32.9463 9.84149 32.8962 10.1612 32.86 10.3864C32.8165 10.6557 32.7724 10.9249 32.7278 11.1941C32.689 11.4267 32.6482 11.6591 32.6056 11.8911C32.5749 12.0554 32.5203 12.3443 32.4844 12.5329C32.4484 12.7216 32.3893 13.0253 32.353 13.2079L32.2463 13.7444L32.2054 13.949H32.6883V13.949ZM11.2767 8.54914L11.411 8.54965L11.5178 8.51328L11.6247 8.47691L11.7192 8.381L11.8137 8.28516L11.8634 8.15734L11.9133 8.0296L11.915 7.84148L11.9168 7.6535L11.8726 7.58005L11.8283 7.5066L11.7513 7.459L11.6742 7.41127H11.3415L11.2282 7.462L11.1149 7.5126L11.0492 7.58305L10.9835 7.6535L10.9318 7.77525L10.8802 7.89687L10.8704 8.08645L10.8607 8.27603L10.9087 8.37034L10.9568 8.46453L11.0496 8.50664L11.1423 8.54869L11.2767 8.54914Z" fill="#00DC82"/>
<path d="M171.178 17.7203V9.02027C171.177 9.00969 171.179 8.99916 171.183 8.98931C171.187 8.97947 171.193 8.97053 171.2 8.96305C171.208 8.95556 171.217 8.9497 171.227 8.94582C171.236 8.94193 171.247 8.94012 171.258 8.94047H172.928C172.949 8.94047 172.97 8.94888 172.985 8.96384C172.999 8.97881 173.008 8.9991 173.008 9.02027V12.1554H173.034C173.258 11.8875 173.542 11.6751 173.862 11.5344C174.182 11.3938 174.53 11.3289 174.879 11.3446C176.194 11.3446 176.617 12.2043 176.617 13.3445V17.7203C176.617 17.7414 176.608 17.7617 176.593 17.7767C176.578 17.7917 176.558 17.8001 176.537 17.8001H174.866C174.845 17.8001 174.825 17.7917 174.81 17.7767C174.795 17.7617 174.786 17.7414 174.786 17.7203V13.5067C174.786 13.0125 174.272 12.8606 173.942 12.8606C173.613 12.8606 173.008 13.0768 173.008 13.6946V17.7203C173.008 17.7414 172.999 17.7617 172.985 17.7767C172.97 17.7917 172.949 17.8001 172.928 17.8001H171.258C171.236 17.8001 171.216 17.7917 171.201 17.7767C171.186 17.7617 171.178 17.7414 171.178 17.7203Z" fill="#00DC82"/>
<path d="M184.516 16.0027V13.0041H183.744C183.723 13.0041 183.702 12.9957 183.687 12.9807C183.672 12.9657 183.664 12.9454 183.664 12.9243V11.8484C183.664 11.8318 183.67 11.8158 183.679 11.8024C183.689 11.7891 183.702 11.779 183.718 11.7737L184.748 11.4726L185.296 9.75572C185.301 9.74452 185.309 9.73473 185.319 9.72713C185.329 9.71954 185.34 9.71434 185.353 9.71196H186.253C186.264 9.7116 186.275 9.71342 186.284 9.7173C186.294 9.72118 186.303 9.72705 186.311 9.73453C186.318 9.74201 186.324 9.75095 186.328 9.7608C186.332 9.77064 186.334 9.78118 186.333 9.79175V11.4854H187.685C187.695 11.4854 187.705 11.4875 187.715 11.4915C187.725 11.4955 187.734 11.5014 187.741 11.5088C187.748 11.5162 187.754 11.525 187.758 11.5347C187.762 11.5444 187.764 11.5547 187.764 11.5652V12.9397C187.764 12.9501 187.762 12.9603 187.758 12.9699C187.754 12.9794 187.748 12.988 187.741 12.9953C187.733 13.0025 187.725 13.0081 187.715 13.0118C187.705 13.0155 187.695 13.0173 187.685 13.0169H186.333V15.8123C186.333 16.1031 186.498 16.2807 186.902 16.2807H187.674C187.695 16.2807 187.716 16.2891 187.731 16.3041C187.746 16.3191 187.754 16.3394 187.754 16.3605C187.754 16.3811 187.754 17.3283 187.754 17.5677C187.754 17.5838 187.749 17.5995 187.74 17.6128C187.73 17.626 187.718 17.6363 187.703 17.6424C187.299 17.8282 186.86 17.9248 186.416 17.9255C185.069 17.9255 184.516 17.1276 184.516 16.0027Z" fill="#00DC82"/>
<path d="M210.675 16.0023V13.0036H209.903C209.882 13.0036 209.862 12.9952 209.847 12.9802C209.832 12.9653 209.823 12.945 209.823 12.9238V11.8479C209.823 11.8314 209.829 11.8154 209.838 11.802C209.848 11.7886 209.862 11.7786 209.877 11.7733L210.907 11.4721L211.455 9.75527C211.46 9.73964 211.47 9.72606 211.484 9.71638C211.497 9.7067 211.513 9.7014 211.53 9.70122H212.431C212.441 9.70086 212.452 9.70267 212.462 9.70656C212.471 9.71044 212.48 9.71631 212.488 9.72379C212.495 9.73127 212.501 9.74021 212.505 9.75005C212.509 9.75989 212.511 9.77043 212.51 9.78101V11.4747H213.862C213.872 11.4747 213.883 11.4767 213.892 11.4808C213.902 11.4848 213.911 11.4906 213.918 11.4981C213.926 11.5055 213.932 11.5143 213.936 11.5239C213.94 11.5336 213.942 11.544 213.942 11.5545V12.929C213.942 12.9393 213.94 12.9496 213.935 12.9591C213.931 12.9687 213.926 12.9773 213.918 12.9845C213.911 12.9917 213.902 12.9973 213.892 13.0011C213.882 13.0048 213.872 13.0065 213.862 13.0062H212.51V15.8118C212.51 16.1027 212.675 16.2803 213.079 16.2803H213.852C213.873 16.2803 213.893 16.2887 213.908 16.3037C213.923 16.3186 213.931 16.3389 213.931 16.3601C213.931 16.3807 213.931 17.3279 213.931 17.5673C213.931 17.5834 213.926 17.599 213.917 17.6123C213.908 17.6256 213.895 17.6359 213.88 17.6419C213.476 17.8278 213.037 17.9243 212.593 17.9251C211.229 17.9251 210.675 17.1271 210.675 16.0023Z" fill="#00DC82"/>
<path d="M188.874 17.7198V11.5423C188.874 11.5211 188.882 11.5008 188.897 11.4858C188.912 11.4709 188.933 11.4625 188.954 11.4625H190.462C190.479 11.4626 190.495 11.4679 190.508 11.4776C190.521 11.4873 190.531 11.5009 190.537 11.5165L190.712 12.1446H190.738C190.96 11.8769 191.242 11.6645 191.56 11.5238C191.878 11.3831 192.225 11.3181 192.573 11.3338C193.471 11.3338 193.904 11.7379 194.146 12.3634H194.197C194.407 12.0314 194.701 11.7612 195.05 11.5803C195.399 11.3994 195.789 11.3144 196.182 11.3338C197.497 11.3338 197.919 12.1935 197.919 13.3337V17.7095C197.919 17.7307 197.911 17.7509 197.896 17.7659C197.881 17.7809 197.86 17.7893 197.839 17.7893H196.164C196.142 17.7893 196.122 17.7809 196.107 17.7659C196.092 17.7509 196.084 17.7307 196.084 17.7095V13.5345C196.084 13.0403 195.618 12.8498 195.288 12.8498C194.907 12.8498 194.341 13.0918 194.315 13.6478V17.7198C194.316 17.7304 194.314 17.7409 194.31 17.7507C194.306 17.7606 194.3 17.7695 194.293 17.777C194.285 17.7845 194.276 17.7904 194.267 17.7942C194.257 17.7981 194.246 17.7999 194.236 17.7996H192.555C192.534 17.7989 192.514 17.7902 192.5 17.7753C192.486 17.7604 192.478 17.7405 192.478 17.7198V13.5345C192.478 13.0403 191.983 12.8498 191.623 12.8498C191.387 12.8483 191.159 12.9389 190.989 13.1022C190.818 13.2656 190.718 13.489 190.709 13.725V17.7198C190.709 17.7405 190.701 17.7604 190.687 17.7753C190.672 17.7902 190.653 17.7989 190.632 17.7996H188.956C188.946 17.7999 188.935 17.7981 188.925 17.7943C188.915 17.7904 188.906 17.7846 188.898 17.7771C188.891 17.7697 188.885 17.7608 188.88 17.7509C188.876 17.7411 188.874 17.7305 188.874 17.7198Z" fill="#00DC82"/>
<path d="M199.023 12.8627V11.7148C199.023 11.6966 199.03 11.6792 199.042 11.6652C199.053 11.6512 199.069 11.6415 199.087 11.6375C199.891 11.4629 200.71 11.3655 201.532 11.3467C203.151 11.3467 204.106 11.7379 204.106 13.4856V17.7224C204.106 17.7436 204.098 17.7639 204.083 17.7788C204.068 17.7938 204.048 17.8022 204.027 17.8022H202.428C202.411 17.8021 202.394 17.7962 202.381 17.7855C202.367 17.7747 202.357 17.7598 202.353 17.743L202.181 17.1175H202.253C201.797 17.7507 201.193 17.9283 200.451 17.9283C199.262 17.9283 198.629 17.0043 198.629 15.9155C198.629 14.2707 199.831 13.9412 200.729 13.9412H202.274V13.5243C202.274 13.0095 201.888 12.8936 200.42 12.8936C199.8 12.8936 199.133 12.9425 199.105 12.9425C199.084 12.9426 199.063 12.9342 199.048 12.9193C199.032 12.9044 199.023 12.8841 199.023 12.8627ZM202.271 15.0661H201.267C200.734 15.0661 200.39 15.2694 200.39 15.8383C200.39 16.4509 200.83 16.5899 201.252 16.5899C201.389 16.5973 201.526 16.5757 201.654 16.5266C201.783 16.4775 201.899 16.4019 201.996 16.3048C202.093 16.2077 202.169 16.0912 202.218 15.9629C202.267 15.8346 202.289 15.6974 202.281 15.5603V15.0455L202.271 15.0661Z" fill="#00DC82"/>
<path d="M205.173 17.7199V11.5423C205.173 11.5216 205.181 11.5017 205.195 11.4868C205.21 11.4719 205.229 11.4632 205.25 11.4625H206.743C206.761 11.4623 206.779 11.4686 206.793 11.4804C206.808 11.4922 206.817 11.5087 206.82 11.5269L206.998 12.487H207.024C207.21 12.1328 207.492 11.8375 207.837 11.6343C208.182 11.4311 208.577 11.328 208.977 11.3364C208.998 11.3364 209.019 11.3448 209.034 11.3598C209.049 11.3748 209.057 11.395 209.057 11.4162V13.1356C209.057 13.1568 209.049 13.1771 209.034 13.192C209.019 13.207 208.998 13.2154 208.977 13.2154H208.55C207.399 13.2154 207.006 13.6762 207.006 14.245V17.7096C207.006 17.7303 206.997 17.7502 206.983 17.7651C206.969 17.78 206.949 17.7887 206.928 17.7894H205.258C205.237 17.7908 205.217 17.7845 205.201 17.7715C205.186 17.7586 205.175 17.7401 205.173 17.7199Z" fill="#00DC82"/>
<path d="M177.394 14.6362C177.394 12.6234 178.179 11.3467 180.405 11.3467C182.632 11.3467 183.43 12.6337 183.43 14.6362C183.43 16.6388 182.644 17.9257 180.405 17.9257C178.166 17.9257 177.394 16.6619 177.394 14.6362ZM179.37 14.6362C179.37 15.725 179.53 16.3917 180.4 16.3917C181.27 16.3917 181.448 15.725 181.448 14.6362C181.448 13.5474 181.285 12.8911 180.4 12.8911C179.515 12.8911 179.37 13.5474 179.37 14.6362Z" fill="#00DC82"/>
<path d="M167.742 14.0077C167.83 12.2857 167.227 9.46976 165.796 7.16606C165.758 7.10686 165.693 7.13002 165.706 7.1918C165.801 7.54186 165.824 8.17763 165.268 8.13902C164.28 8.07209 165.302 5.95629 163.132 4.48913C163.124 4.4815 163.113 4.47702 163.102 4.47651C163.091 4.47601 163.08 4.4795 163.072 4.48637C163.063 4.49323 163.057 4.503 163.055 4.5139C163.053 4.5248 163.055 4.53611 163.06 4.54576C163.209 4.82889 163.297 5.71176 162.954 6.01292C162.679 6.25487 162.182 6.19052 161.686 5.39517C161.355 4.84653 161.185 4.21649 161.193 3.57612C161.202 2.93575 161.389 2.31053 161.734 1.77102C161.776 1.70409 161.719 1.67835 161.673 1.6938C158.687 2.67963 158.09 6.20082 157.454 7.48265C157.348 7.69887 157.256 7.80955 157.073 7.79926C156.53 7.76322 156.921 6.60236 157.109 6.19824C157.113 6.18844 157.114 6.17752 157.111 6.16732C157.108 6.15712 157.101 6.14826 157.093 6.14222C157.084 6.13619 157.073 6.13334 157.063 6.13417C157.052 6.135 157.042 6.13945 157.034 6.14677C155.292 8.06196 154.177 10.4647 153.84 13.0321C153.84 12.9729 153.814 13.2432 153.799 13.4414C153.799 13.5186 153.794 13.5967 153.783 13.6756C153.783 13.7683 153.783 13.861 153.783 13.9562C153.768 15.8093 154.489 17.5926 155.789 18.9137C157.088 20.2349 158.859 20.9858 160.713 21.0011C162.566 21.0165 164.349 20.2951 165.67 18.9956C166.991 17.6962 167.742 15.9251 167.758 14.072C167.745 14.0489 167.742 14.0283 167.742 14.0077ZM160.731 17.2534C160.089 17.2499 159.463 17.056 158.932 16.6965C158.401 16.337 157.989 15.828 157.747 15.2339C157.505 14.6398 157.445 13.9873 157.575 13.3592C157.704 12.731 158.017 12.1553 158.474 11.7051C158.93 11.2548 159.511 10.9502 160.141 10.8298C160.771 10.7095 161.422 10.7787 162.013 11.0289C162.603 11.279 163.106 11.6988 163.458 12.235C163.81 12.7712 163.995 13.3998 163.989 14.0411C163.982 14.8988 163.635 15.7185 163.024 16.3207C162.413 16.9228 161.588 17.2582 160.731 17.2534Z" fill="#00DC82"/>
<path d="M241.025 16.8166C240.253 16.8166 239.518 16.519 238.969 15.9704L236.003 13.0037C235.798 12.7991 235.435 12.7991 235.222 13.0037L232.246 15.9797C231.697 16.5283 230.972 16.8259 230.19 16.8259H229.604L233.362 20.5831C234.533 21.7549 236.44 21.7549 237.612 20.5831L241.378 16.8166H241.025Z" fill="#00DC82"/>
<path d="M230.195 6.32692C230.967 6.32692 231.702 6.62451 232.251 7.1732L235.226 10.1491C235.44 10.363 235.794 10.363 236.008 10.1491L238.974 7.1825C239.523 6.63381 240.248 6.33622 241.03 6.33622H241.383L237.617 2.56978C236.445 1.398 234.538 1.398 233.367 2.56978L229.609 6.32692H230.195Z" fill="#00DC82"/>
<path d="M244.497 9.45291L242.219 7.17445C242.172 7.19305 242.116 7.21165 242.061 7.21165H241.028C240.489 7.21165 239.968 7.42555 239.587 7.80684L236.62 10.7735C236.341 11.0525 235.978 11.192 235.616 11.192C235.253 11.192 234.89 11.0525 234.611 10.7735L231.635 7.79754C231.254 7.41625 230.733 7.20235 230.194 7.20235H228.92C228.864 7.20235 228.818 7.19305 228.771 7.17445L226.483 9.46221C225.312 10.634 225.312 12.5405 226.483 13.7122L228.771 16C228.818 15.9814 228.873 15.9721 228.92 15.9721H230.194C230.733 15.9721 231.254 15.7582 231.635 15.3769L234.611 12.401C235.151 11.8616 236.09 11.8616 236.62 12.401L239.587 15.3676C239.968 15.7489 240.489 15.9628 241.028 15.9628H242.061C242.116 15.9628 242.172 15.9721 242.219 15.9907L244.497 13.7122C245.669 12.5312 245.669 10.634 244.497 9.45291Z" fill="#00DC82"/>
<path fill-rule="evenodd" clip-rule="evenodd" d="M263.758 7.33105H268.493C271.035 7.33105 271.992 8.61801 271.844 10.5087C271.6 13.6302 269.713 15.3571 267.21 15.3571H265.946C265.603 15.3571 265.372 15.5845 265.279 16.2004L264.742 19.7814C264.707 20.0137 264.585 20.1481 264.401 20.1664H261.427C261.147 20.1664 261.048 19.9526 261.121 19.4893L262.935 8.00937C263.006 7.54983 263.257 7.33105 263.758 7.33105Z" fill="#006B3F"/>
<path fill-rule="evenodd" clip-rule="evenodd" d="M284.315 7.11816C285.912 7.11816 287.386 7.98469 287.185 10.1443C286.94 12.7109 285.565 14.1311 283.396 14.1372H281.5C281.228 14.1372 281.096 14.3596 281.025 14.8155L280.658 17.1462C280.603 17.4982 280.422 17.6717 280.156 17.6717H278.392C278.111 17.6717 278.013 17.4921 278.076 17.09L279.531 7.74881C279.603 7.28927 279.776 7.11816 280.09 7.11816H284.311H284.315ZM281.443 12.1193H282.879C283.777 12.0851 284.374 11.463 284.433 10.3411C284.47 9.64808 284.002 9.15188 283.258 9.15554L281.906 9.16166L281.443 12.1193ZM291.979 16.9567C292.141 16.8101 292.304 16.7343 292.281 16.9152L292.224 17.3478C292.194 17.5739 292.284 17.6937 292.494 17.6937H294.061C294.325 17.6937 294.453 17.5874 294.518 17.1792L295.483 11.1196C295.532 10.8153 295.458 10.6662 295.227 10.6662H293.503C293.348 10.6662 293.272 10.7529 293.232 10.99L293.168 11.3628C293.135 11.5571 293.046 11.5914 292.963 11.3958C292.671 10.7041 291.925 10.3936 290.885 10.4181C288.469 10.4682 286.84 12.3027 286.665 14.6542C286.531 16.4728 287.834 17.9015 289.552 17.9015C290.799 17.9015 291.356 17.5348 291.984 16.9604L291.979 16.9567ZM290.667 16.0242C289.627 16.0242 288.902 15.1944 289.052 14.1775C289.202 13.1606 290.175 12.3308 291.215 12.3308C292.255 12.3308 292.98 13.1606 292.83 14.1775C292.68 15.1944 291.708 16.0242 290.667 16.0242ZM298.55 10.6466H296.961C296.633 10.6466 296.5 10.891 296.604 11.1917L298.577 16.9677L296.642 19.7164C296.479 19.9462 296.605 20.1552 296.834 20.1552H298.619C298.723 20.1672 298.829 20.1491 298.923 20.1029C299.017 20.0568 299.096 19.9846 299.15 19.8949L305.217 11.1929C305.404 10.9253 305.316 10.6442 305.009 10.6442H303.319C303.029 10.6442 302.913 10.7591 302.747 10.9998L300.217 14.6664L299.086 10.9913C299.02 10.7688 298.855 10.6466 298.551 10.6466H298.55Z" fill="#00DC82"/>
<path fill-rule="evenodd" clip-rule="evenodd" d="M311.529 7.11866C313.126 7.11866 314.6 7.98519 314.398 10.1448C314.154 12.7114 312.779 14.1316 310.609 14.1377H308.715C308.443 14.1377 308.311 14.3601 308.24 14.816L307.873 17.1467C307.818 17.4987 307.637 17.6722 307.371 17.6722H305.607C305.326 17.6722 305.228 17.4926 305.29 17.0905L306.749 7.74686C306.821 7.28732 306.993 7.11621 307.307 7.11621H311.529V7.11866ZM308.656 12.1198H310.092C310.991 12.0856 311.587 11.4635 311.647 10.3416C311.684 9.64858 311.216 9.15237 310.471 9.15604L309.12 9.16215L308.656 12.1198ZM319.193 16.9572C319.354 16.8106 319.518 16.7348 319.495 16.9157L319.437 17.3483C319.408 17.5744 319.497 17.6942 319.707 17.6942H321.274C321.538 17.6942 321.667 17.5879 321.731 17.1797L322.697 11.1201C322.746 10.8158 322.671 10.6667 322.44 10.6667H320.719C320.564 10.6667 320.488 10.7534 320.448 10.9905L320.384 11.3633C320.351 11.5576 320.262 11.5919 320.179 11.3963C319.887 10.7045 319.142 10.3941 318.101 10.4186C315.685 10.4687 314.056 12.3032 313.881 14.6546C313.747 16.4733 315.05 17.902 316.768 17.902C318.015 17.902 318.572 17.5353 319.2 16.9609L319.193 16.9572ZM317.881 16.0247C316.841 16.0247 316.117 15.1949 316.267 14.178C316.417 13.1611 317.39 12.3313 318.43 12.3313C319.47 12.3313 320.195 13.1611 320.045 14.178C319.894 15.1949 318.922 16.0247 317.881 16.0247ZM325.108 17.704H323.299C323.268 17.7054 323.237 17.6998 323.207 17.6877C323.178 17.6756 323.152 17.6572 323.131 17.6338C323.11 17.6105 323.094 17.5828 323.085 17.5526C323.076 17.5225 323.074 17.4907 323.078 17.4596L324.667 7.39365C324.682 7.32495 324.72 7.26341 324.775 7.21903C324.829 7.17465 324.897 7.15004 324.968 7.14921H326.776C326.808 7.1478 326.839 7.15336 326.868 7.16549C326.897 7.17762 326.923 7.19601 326.945 7.21936C326.966 7.24271 326.981 7.27044 326.991 7.30057C327 7.3307 327.002 7.36248 326.998 7.39365L325.409 17.4596C325.394 17.5287 325.356 17.5908 325.302 17.6357C325.247 17.6805 325.179 17.7055 325.108 17.7064V17.704Z" fill="#00DC82"/>
<path fill-rule="evenodd" clip-rule="evenodd" d="M260.797 3.37988H265.537C266.872 3.37988 268.456 3.42266 269.514 4.35763C270.222 4.98217 270.593 5.9758 270.508 7.04644C270.217 10.6653 268.052 12.6929 265.148 12.6929H262.812C262.413 12.6929 262.15 12.9569 262.038 13.6707L261.385 17.8261C261.343 18.095 261.226 18.2539 261.019 18.2734H258.094C257.77 18.2734 257.655 18.029 257.74 17.4888L259.842 4.16941C259.926 3.6341 260.221 3.37988 260.797 3.37988Z" fill="#00DC82"/>
<path fill-rule="evenodd" clip-rule="evenodd" d="M262.107 13.2491L262.935 8.00962C263.007 7.55007 263.259 7.33008 263.76 7.33008H268.495C269.278 7.33008 269.912 7.4523 270.408 7.6784C269.933 10.9001 267.849 12.6894 265.121 12.6894H262.788C262.475 12.6906 262.246 12.847 262.107 13.2491Z" fill="#00DC82"/>
</svg>
