<svg width="34" height="34" viewBox="0 0 34 34" fill="none" xmlns="http://www.w3.org/2000/svg">
<path fill-rule="evenodd" clip-rule="evenodd" d="M17 -1.22717e-06C26.3889 -1.22717e-06 34 7.61119 34 17C34 26.3889 26.3889 34 17 34C7.61119 34 0 26.3889 0 17C0 7.61119 7.61119 -1.22717e-06 17 -1.22717e-06Z" fill="#CC499C"/>
<path d="M13.6218 22.6628C13.8691 23.5777 13.842 24.4308 13.5865 25.2035C13.5582 25.2893 13.5269 25.3742 13.4929 25.4581C13.459 25.5419 13.4223 25.6247 13.3829 25.7065C13.1859 26.1153 12.9215 26.4979 12.5977 26.8511C11.6099 27.9286 10.2299 28.3361 9.63815 27.9928C8.99915 27.6224 9.31923 26.1031 10.4644 24.8926C11.6964 23.5902 13.469 22.7528 13.469 22.7528L13.4663 22.7475C13.5174 22.7201 13.5692 22.6918 13.6218 22.6628ZM27.6638 7.27623C26.894 4.25697 21.8877 3.26446 17.1495 4.94778C14.3298 5.94948 11.2772 7.52175 9.08231 9.5748C6.47261 12.0158 6.05643 14.1403 6.22798 15.0281C6.83303 18.1606 11.1251 20.2081 12.8895 21.7272V21.7364C12.3693 21.9925 8.56131 23.9196 7.67017 25.8898C6.72988 27.9682 7.81984 29.4597 8.54145 29.6605C10.7773 30.2825 13.0717 29.1636 14.3046 27.3245C15.4945 25.5496 15.3955 23.2578 14.8784 22.1177C15.5917 21.9295 16.4232 21.8452 17.4801 21.9687C20.4622 22.317 21.0473 24.179 20.9354 24.9581C20.8236 25.7375 20.1981 26.166 19.989 26.2953C19.7798 26.4247 19.716 26.4695 19.7336 26.5657C19.7589 26.7055 19.8558 26.7003 20.0341 26.6701C20.2795 26.6287 21.6 26.0362 21.6564 24.5978C21.7283 22.7714 19.9781 20.7285 16.8792 20.7819C15.6029 20.8039 14.8004 20.9253 14.2207 21.141C14.1779 21.0922 14.1343 21.0436 14.0892 20.9955C12.1733 18.9515 8.63165 17.5056 8.78184 14.7577C8.83646 13.7587 9.18368 11.1281 15.5872 7.93724C20.8328 5.32347 25.0321 6.04274 25.7578 7.63686C26.7944 9.91425 23.5135 14.1471 18.0659 14.7577C15.9905 14.9904 14.8976 14.1859 14.6258 13.8864C14.3396 13.571 14.297 13.5568 14.1901 13.6159C14.016 13.7124 14.1263 13.9908 14.1901 14.1568C14.3527 14.5801 15.0202 15.3307 16.1581 15.7041C17.1591 16.0326 19.5959 16.2131 22.5429 15.0732C25.8435 13.7964 28.4208 10.2449 27.6638 7.27623Z" fill="white"/>
</svg>
