<svg width="34" height="34" viewBox="0 0 34 34" fill="none" xmlns="http://www.w3.org/2000/svg">
<path d="M9.3435 33L1 0L34 9.21681" fill="white"/>
<path d="M15 27.8994L14.6962 28L13 19.1006L13.3038 19L15 27.8994Z" fill="black"/>
<path d="M21 21.5888L20.8994 22L13 19.4112L13.1007 19L21 21.5888Z" fill="black"/>
<path d="M21 21.3098L15.2507 28L15 27.6902L20.7493 21L21 21.3098Z" fill="black"/>
<path d="M15 27.5888L14.8993 28L7 25.4112L7.10069 25L15 27.5888Z" fill="black"/>
<path d="M9.2226 33.2348L14.7491 27.312L15 27.5969L9.02544 34L7 25.0967L7.3492 25L9.2226 33.2348Z" fill="black"/>
<path d="M13 19.2655L7.2507 25L7 24.7345L12.7493 19L13 19.2655Z" fill="black"/>
<path d="M19 13.2653L13.2505 19L13 18.7347L18.7495 13L19 13.2653Z" fill="black"/>
<path d="M25 7.30975L19.2507 14L19 13.6902L24.7493 7L25 7.30975Z" fill="black"/>
<path d="M19 12.9106L18.6962 13L17 5.08938L17.3038 5L19 12.9106Z" fill="black"/>
<path d="M19 13.5879L18.8997 14L11 11.4121L11.1003 11L19 13.5879Z" fill="black"/>
<path d="M13 18.9106L12.6962 19L11 11.0894L11.3038 11L13 18.9106Z" fill="black"/>
<path d="M13 19.5888L12.8993 20L5 17.4112L5.10069 17L13 19.5888Z" fill="black"/>
<path d="M7 24.9106L6.69617 25L5 17.0894L5.30383 17L7 24.9106Z" fill="black"/>
<path d="M5 16.8994L4.69617 17L3 8.10056L3.30383 8L5 16.8994Z" fill="black"/>
<path d="M11 10.5888L10.8994 11L3 8.41118L3.10069 8L11 10.5888Z" fill="black"/>
<path d="M11 11.2655L5.2507 17L5 16.7345L10.7493 11L11 11.2655Z" fill="black"/>
<path d="M17 5.2656L11.2504 11L11 10.7344L16.7497 5L17 5.2656Z" fill="black"/>
<path d="M17 4.58877L16.8995 5L9 2.41129L9.10052 2L17 4.58877Z" fill="black"/>
<path d="M11 10.9106L10.6962 11L9 3.08938L9.30383 3L11 10.9106Z" fill="black"/>
<path d="M9 2.52721L8.88963 2.91364L0.56333 0.575579L2.67141 8.90229L2.27847 9L0 0L9 2.52721Z" fill="black"/>
<path d="M9 3.26517L3.25079 9L3 8.73488L8.74921 3L9 3.26517Z" fill="black"/>
<path d="M34 9.52887L27.3603 16L27.0817 15.7116L33.2235 9.72564L25 7.38659L25.1091 7L34 9.52887Z" fill="black"/>
<path d="M28 15.8994L27.5443 16L25 7.10056L25.4557 7L28 15.8994Z" fill="black"/>
<path d="M27 15.5888L26.8994 16L19 13.4112L19.1007 13L27 15.5888Z" fill="black"/>
<path d="M22 21.8998L21.5431 22L19 13.1002L19.4569 13L22 21.8998Z" fill="black"/>
<path d="M28 16.2653L21.2922 22L21 21.7347L27.7078 16L28 16.2653Z" fill="black"/>
<path d="M25 6.72584L24.8993 7L17 5.27412L17.1007 5L25 6.72584Z" fill="black"/>
</svg>
