<svg width="34" height="34" viewBox="0 0 34 34" fill="none" xmlns="http://www.w3.org/2000/svg">
<mask id="mask0_2032_416" style="mask-type:luminance" maskUnits="userSpaceOnUse" x="0" y="1" width="34" height="32">
<path d="M34 1.43994H0V32.7733H34V1.43994Z" fill="white"/>
</mask>
<g mask="url(#mask0_2032_416)">
<path d="M17.01 32.779L23.266 13.5342H10.7539L17.01 32.779Z" fill="#E24329"/>
<path d="M17.0109 32.7786L10.7548 13.5337H1.9873L17.0109 32.7786Z" fill="#FC6D26"/>
<path d="M1.98695 13.5337L0.0858655 19.3822C0.00133747 19.6422 0.00132582 19.9222 0.0858322 20.1822C0.170338 20.4422 0.335024 20.6688 0.556288 20.8296L17.0106 32.7787L1.98695 13.5337Z" fill="#FCA326"/>
<path d="M1.9873 13.534H10.7548L6.98706 1.94289C6.79312 1.34644 5.94897 1.34658 5.75519 1.94289L1.9873 13.534Z" fill="#E24329"/>
<path d="M17.0107 32.7786L23.2667 13.5337H32.0344L17.0107 32.7786Z" fill="#FC6D26"/>
<path d="M32.0344 13.5337L33.9355 19.3822C34.0199 19.6422 34.0199 19.9223 33.9354 20.1823C33.8509 20.4423 33.6862 20.6689 33.4649 20.8296L17.0107 32.7787L32.0344 13.5337Z" fill="#FCA326"/>
<path d="M32.0333 13.534H23.2656L27.0336 1.94289C27.2274 1.34644 28.0716 1.34658 28.2654 1.94289L32.0333 13.534Z" fill="#E24329"/>
</g>
</svg>
