<svg width="34" height="34" viewBox="0 0 34 34" fill="none" xmlns="http://www.w3.org/2000/svg">
<path d="M17 34C26.3888 34 34 26.3888 34 17C34 7.61116 26.3888 0 17 0C7.61116 0 0 7.61116 0 17C0 26.3888 7.61116 34 17 34Z" fill="#2F80ED"/>
<path d="M26.6332 7.3666C26.2082 6.9416 25.6415 6.9416 25.2165 7.3666L23.3749 9.20827C21.1082 7.64994 18.2749 8.78327 17.2832 9.77494L15.8665 11.3333C15.4415 11.7583 15.4415 12.3249 15.8665 12.7499L21.3915 18.2749C21.5332 18.4166 21.8165 18.5583 22.0999 18.5583C22.2415 18.5583 22.6665 18.4166 22.8082 18.2749L24.3665 16.7166C25.3582 15.7249 26.4915 12.8916 24.9332 10.6249L26.7749 8.78327C27.0582 8.35827 27.0582 7.7916 26.6332 7.3666ZM22.8082 15.2999L21.9582 16.1499L17.8499 12.0416L18.6999 11.1916C19.1249 10.7666 21.2499 9.63327 22.8082 11.1916C24.3665 12.7499 23.0915 14.8749 22.8082 15.2999ZM17.8499 18.2749L16.5749 19.5499L14.4499 17.4249L15.7249 16.1499C16.1499 15.7249 16.1499 15.1583 15.7249 14.7333C15.2999 14.3083 14.7332 14.3083 14.3082 14.7333L13.0332 16.0083L12.7499 15.8666C12.3249 15.4416 11.7582 15.4416 11.3332 15.8666L9.91654 17.2833C8.92487 18.2749 7.79154 21.1083 9.34987 23.3749L7.5082 25.2166C7.0832 25.6416 7.0832 26.2083 7.5082 26.6333C7.5082 26.7749 7.79154 26.9166 8.07487 26.9166C8.3582 26.9166 8.49987 26.7749 8.7832 26.6333L10.6249 24.7916C11.4749 25.2166 12.3249 25.4999 13.1749 25.4999C14.7332 25.4999 16.0082 24.7916 16.7165 24.0833L18.1332 22.6666C18.5582 22.2416 18.5582 21.6749 18.1332 21.2499L17.8499 21.1083L19.1249 19.8333C19.5499 19.4083 19.5499 18.8416 19.1249 18.4166C18.6999 17.9916 18.1332 17.8499 17.8499 18.2749ZM15.2999 22.8083C14.8749 23.2333 12.7499 24.2249 11.1915 22.8083C9.6332 21.3916 10.7665 19.1249 11.1915 18.6999L12.0415 17.8499L16.1499 21.9583L15.2999 22.8083Z" fill="white"/>
</svg>
