<svg width="34" height="34" viewBox="0 0 34 34" fill="none" xmlns="http://www.w3.org/2000/svg">
<mask id="mask0_2032_366" style="mask-type:luminance" maskUnits="userSpaceOnUse" x="0" y="0" width="34" height="34">
<path d="M34 0H0V34H34V0Z" fill="white"/>
</mask>
<g mask="url(#mask0_2032_366)">
<path d="M0 0H34V34H0V0Z" fill="#F7DF1E"/>
<path d="M8.94058 28.4131L11.5424 26.8384C12.0444 27.7284 12.501 28.4814 13.5963 28.4814C14.6462 28.4814 15.3083 28.0708 15.3083 26.4733V15.6095H18.5033V26.5184C18.5033 29.8278 16.5635 31.3341 13.7332 31.3341C11.1773 31.3341 9.69375 30.0107 8.94058 28.4131ZM20.2388 28.0706L22.8403 26.5644C23.5252 27.6829 24.4154 28.5044 25.99 28.5044C27.314 28.5044 28.1581 27.8424 28.1581 26.9295C28.1581 25.8341 27.2909 25.446 25.8302 24.8072L25.0316 24.4645C22.7264 23.4834 21.1973 22.2509 21.1973 19.6491C21.1973 17.2527 23.0231 15.4268 25.8761 15.4268C27.9073 15.4268 29.3679 16.1344 30.4176 17.983L27.9298 19.5807C27.382 18.5994 26.7888 18.2114 25.8759 18.2114C24.9401 18.2114 24.3467 18.8049 24.3467 19.5807C24.3467 20.5392 24.9401 20.9274 26.3094 21.5209L27.1081 21.8631C29.8241 23.0272 31.3532 24.2139 31.3532 26.8839C31.3532 29.7599 29.0938 31.3345 26.0584 31.3345C23.0915 31.3345 21.1744 29.9194 20.2388 28.0706Z" fill="black"/>
</g>
</svg>
