<svg width="34" height="34" viewBox="0 0 34 34" fill="none" xmlns="http://www.w3.org/2000/svg">
<path d="M27.1729 5.17041H6.375V28.7414H27.1729V5.17041Z" fill="white"/>
<path d="M2.21807 1.13875L4.42385 29.3577C4.45696 29.7814 4.7438 30.1428 5.14899 30.2712L16.7559 33.9512C16.9611 34.0163 17.1814 34.0163 17.3867 33.9512L28.9936 30.2712C29.3988 30.1428 29.6856 29.7814 29.7187 29.3577L31.9245 1.13875C31.9719 0.532061 31.4924 0.0136719 30.884 0.0136719H3.25869C2.6502 0.0136719 2.17071 0.532061 2.21807 1.13875ZM26.2679 9.89412H11.8924L12.3262 13.8948H25.9553L25.0637 25.3001L17.0713 27.834L9.07894 25.3001L8.61316 19.3415H12.8082V22.2642L17.1834 23.4385L21.5325 22.2642L21.8699 17.6062H8.4775L7.58836 6.23082H26.5542L26.2679 9.89412Z" fill="#FC490B"/>
</svg>
